# 3ds Max Wavefront OBJ Exporter v0.97b - (c)2007 guruware
# 创建的文件:18.07.2017 17:39:33

mtllib IKE160126.mtl

#
# object Plumbing_Fixtures
#

#
# object Plumbing_Fixtures
#

v  -180.0000 700.0000 290.0000
v  -180.0000 0.0000 290.0000
v  -160.0000 680.0000 290.0000
v  180.0000 700.0000 290.0000
v  160.0000 680.0000 290.0000
v  180.0000 0.0000 290.0000
v  -160.0000 20.0000 290.0000
v  160.0000 20.0000 290.0000
v  -180.0000 0.0000 -290.0000
v  -180.0000 700.0000 -290.0000
v  -160.0000 20.0000 -290.0000
v  180.0000 0.0000 -290.0000
v  160.0000 20.0000 -290.0000
v  180.0000 700.0000 -290.0000
v  -160.0000 680.0000 -290.0000
v  160.0000 680.0000 -290.0000
# 16 vertices

vn 0.0000 0.0000 1.0000
vn 0.0000 0.0000 -1.0000
vn -1.0000 0.0000 -0.0000
vn 0.0000 -1.0000 -0.0000
vn 1.0000 0.0000 -0.0000
vn 0.0000 1.0000 -0.0000
# 6 vertex normals

vt 0.0000 1.0000 0.0000
vt 0.0000 0.0000 0.0000
vt 0.0556 0.9714 0.0000
vt 1.0000 1.0000 0.0000
vt 0.9444 0.9714 0.0000
vt 1.0000 0.0000 0.0000
vt 0.0556 0.0286 0.0000
vt 0.9444 0.0286 0.0000
# 8 texture coords

g Plumbing_Fixtures
usemtl 13___Default
s 1
f 1/1/1 2/2/1 3/3/1 4/4/1 
f 3/3/1 5/5/1 6/6/1 4/4/1 
f 7/7/1 3/3/1 2/2/1 6/6/1 
f 5/5/1 8/8/1 7/7/1 6/6/1 
f 9/6/2 10/4/2 11/8/2 12/2/2 
f 11/8/2 13/7/2 14/1/2 12/2/2 
f 15/5/2 11/8/2 10/4/2 14/1/2 
f 13/7/2 16/3/2 15/5/2 14/1/2 
f 1/4/3 10/1/3 9/2/3 2/6/3 
f 2/6/4 9/4/4 12/1/4 6/2/4 
f 6/2/5 12/6/5 14/4/5 4/1/5 
f 4/6/6 14/4/6 10/1/6 1/2/6 
f 7/2/5 11/6/5 15/4/5 3/1/5 
f 3/6/4 15/4/4 16/1/4 5/2/4 
f 5/4/3 16/1/3 13/2/3 8/6/3 
f 8/6/6 13/4/6 11/1/6 7/2/6 
# 16 polygons

#
# object Plumbing_Fixtures
#

#
# object Plumbing_Fixtures
#

v  -160.0000 20.0000 -269.8472
v  160.0000 20.0000 -269.8472
v  160.0000 680.0000 -269.8472
v  -160.0000 680.0000 -269.8472
v  160.0000 680.0000 -289.8472
v  160.0000 20.0000 -289.8472
v  -160.0000 20.0000 -289.8472
v  -160.0000 680.0000 -289.8472
# 8 vertices

vn 0.0000 0.0000 1.0000
vn 0.0000 0.0000 -1.0000
vn -1.0000 0.0000 -0.0000
vn 0.0000 -1.0000 -0.0000
vn 1.0000 0.0000 -0.0000
vn 0.0000 1.0000 -0.0000
# 6 vertex normals

vt 0.0000 0.0000 0.0000
vt 1.0000 0.0000 0.0000
vt 1.0000 1.0000 0.0000
vt 0.0000 1.0000 0.0000
# 4 texture coords

g Plumbing_Fixtures
usemtl 13___Default
s 1
f 17/9/7 18/10/7 19/11/7 20/12/7 
f 21/12/8 22/9/8 23/10/8 24/11/8 
f 20/11/9 24/12/9 23/9/9 17/10/9 
f 17/10/10 23/11/10 22/12/10 18/9/10 
f 18/9/11 22/10/11 21/11/11 19/12/11 
f 19/10/12 21/11/12 24/12/12 20/9/12 
# 6 polygons

#
# object Plumbing_Fixtures
#

#
# object Plumbing_Fixtures
#

v  -79.2000 679.5875 289.9000
v  -59.2837 668.9978 289.9000
v  -63.1252 673.4170 289.9000
v  -73.3882 678.8739 289.9000
v  -67.9217 676.7755 289.9000
v  -158.4000 679.5875 289.9000
v  -158.4000 597.9125 289.9000
v  -56.6254 663.7806 289.9000
v  158.4000 597.9125 289.9000
v  158.4000 679.5875 289.9000
v  79.2000 679.5875 289.9000
v  56.6254 663.7806 289.9000
v  73.3882 678.8739 289.9000
v  67.9217 676.7755 289.9000
v  63.1252 673.4170 289.9000
v  59.2837 668.9978 289.9000
v  158.4000 597.9125 270.1000
v  -158.4000 597.9125 270.1000
v  -56.6254 663.7806 270.1000
v  56.6254 663.7806 270.1000
v  -158.4000 679.5875 270.1000
v  -79.2000 679.5875 270.1000
v  -59.2837 668.9978 270.1000
v  -73.3882 678.8739 270.1000
v  -63.1252 673.4170 270.1000
v  79.2000 679.5875 270.1000
v  158.4000 679.5875 270.1000
v  63.1252 673.4170 270.1000
v  59.2837 668.9978 270.1000
v  -67.9217 676.7755 270.1000
v  67.9217 676.7755 270.1000
v  73.3882 678.8739 270.1000
# 32 vertices

vn 0.0000 0.0000 1.0000
vn 0.0000 0.0000 -1.0000
vn -1.0000 0.0000 -0.0000
vn 0.0000 -1.0000 -0.0000
vn 1.0000 0.0000 -0.0000
vn 0.0000 1.0000 -0.0000
vn -0.1219 0.9925 -0.0000
vn -0.2419 0.9703 -0.0000
vn -0.4695 0.8829 -0.0000
vn -0.6691 0.7431 -0.0000
vn -0.8290 0.5592 -0.0000
vn -0.8910 0.4540 -0.0000
vn 0.8910 0.4540 -0.0000
vn 0.8290 0.5592 -0.0000
vn 0.6691 0.7431 -0.0000
vn 0.4695 0.8829 -0.0000
vn 0.2419 0.9703 -0.0000
vn 0.1219 0.9925 -0.0000
# 18 vertex normals

vt 0.2500 1.0000 0.0000
vt 0.3129 0.8703 0.0000
vt 0.3007 0.9244 0.0000
vt 0.2683 0.9913 0.0000
vt 0.2856 0.9656 0.0000
vt 0.0000 1.0000 0.0000
vt 0.0000 0.0000 0.0000
vt 0.3213 0.8065 0.0000
vt 1.0000 0.0000 0.0000
vt 1.0000 1.0000 0.0000
vt 0.7500 1.0000 0.0000
vt 0.6787 0.8065 0.0000
vt 0.7317 0.9913 0.0000
vt 0.7144 0.9656 0.0000
vt 0.6993 0.9244 0.0000
vt 0.6871 0.8703 0.0000
vt 1.0000 1.0000 1.0000
vt 0.7426 1.0000 0.9549
vt 0.7426 0.0000 0.9549
vt 1.0000 0.0000 1.0000
vt 0.5004 1.0000 0.8221
vt 0.5004 0.0000 0.8221
vt 1.0000 0.6096 0.2879
vt 0.0000 0.6096 0.2879
vt 0.0000 0.3301 0.1178
vt 1.0000 0.3301 0.1178
vt 1.0000 0.3301 0.8822
vt 0.0000 0.3301 0.8822
vt 0.0000 0.0000 1.0000
vt 0.7121 1.0000 0.6096
vt 0.7121 0.0000 0.6096
vt 0.4996 0.0000 0.8221
vt 0.4996 1.0000 0.8221
vt 0.2574 1.0000 0.9549
vt 0.0000 1.0000 1.0000
vt 0.2574 0.0000 0.9549
# 36 texture coords

g Plumbing_Fixtures
usemtl 13___Default
s 1
f 25/13/13 26/14/13 27/15/13 28/16/13 
f 27/15/13 29/17/13 28/16/13 
f 25/13/13 30/18/13 31/19/13 32/20/13 
f 33/21/13 34/22/13 35/23/13 36/24/13 
f 35/23/13 37/25/13 38/26/13 39/27/13 
f 32/20/13 26/14/13 25/13/13 
f 32/20/13 31/19/13 33/21/13 36/24/13 
f 39/27/13 40/28/13 36/24/13 35/23/13 
f 41/19/14 42/21/14 43/24/14 44/20/14 
f 43/24/14 45/22/14 46/23/14 47/28/14 
f 46/23/14 48/25/14 49/27/14 47/28/14 
f 43/24/14 42/21/14 45/22/14 
f 50/13/14 51/18/14 41/19/14 52/15/14 
f 41/19/14 44/20/14 53/14/14 52/15/14 
f 48/25/14 54/26/14 49/27/14 
f 55/17/14 56/16/14 50/13/14 52/15/14 
f 30/22/15 45/18/15 42/19/15 31/21/15 
f 31/21/16 42/22/16 41/18/16 33/19/16 
f 33/19/17 41/21/17 51/22/17 34/18/17 
f 34/21/18 51/22/18 50/18/18 35/19/18 
f 50/29/19 56/30/20 37/31/20 35/32/19 
f 56/30/20 55/33/21 38/34/21 37/31/20 
f 39/35/22 38/34/21 55/33/21 52/36/22 
f 52/36/22 53/37/23 40/38/23 39/35/22 
f 53/37/23 44/19/24 36/21/24 40/38/23 
f 36/21/18 44/22/18 43/18/18 32/19/18 
f 43/32/25 47/39/26 26/40/26 32/41/25 
f 47/39/26 49/42/27 27/43/27 26/40/26 
f 29/44/28 27/43/27 49/42/27 54/45/28 
f 48/46/29 46/47/30 25/41/30 28/48/29 
f 54/45/28 48/46/29 28/48/29 29/44/28 
f 25/21/18 46/22/18 45/18/18 30/19/18 
# 28 polygons - 4 triangles

#
# object Plumbing_Fixtures
#

#
# object Plumbing_Fixtures
#

v  -79.2000 597.0875 289.9000
v  -59.2837 586.4978 289.9000
v  -63.1252 590.9170 289.9000
v  -73.3882 596.3739 289.9000
v  -67.9217 594.2755 289.9000
v  -158.4000 597.0875 289.9000
v  -158.4000 515.4125 289.9000
v  -56.6254 581.2806 289.9000
v  158.4000 515.4125 289.9000
v  158.4000 597.0875 289.9000
v  79.2000 597.0875 289.9000
v  56.6254 581.2806 289.9000
v  73.3882 596.3739 289.9000
v  67.9217 594.2755 289.9000
v  63.1252 590.9170 289.9000
v  59.2837 586.4978 289.9000
v  158.4000 515.4125 270.1000
v  -158.4000 515.4125 270.1000
v  -56.6254 581.2806 270.1000
v  56.6254 581.2806 270.1000
v  -158.4000 597.0875 270.1000
v  -79.2000 597.0875 270.1000
v  -59.2837 586.4978 270.1000
v  -73.3882 596.3739 270.1000
v  -63.1252 590.9170 270.1000
v  79.2000 597.0875 270.1000
v  158.4000 597.0875 270.1000
v  63.1252 590.9170 270.1000
v  59.2837 586.4978 270.1000
v  -67.9217 594.2755 270.1000
v  67.9217 594.2755 270.1000
v  73.3882 596.3739 270.1000
# 32 vertices

vn 0.0000 0.0000 1.0000
vn 0.0000 0.0000 -1.0000
vn -1.0000 0.0000 -0.0000
vn 0.0000 -1.0000 -0.0000
vn 1.0000 0.0000 -0.0000
vn 0.0000 1.0000 -0.0000
vn -0.1219 0.9925 -0.0000
vn -0.2419 0.9703 -0.0000
vn -0.4695 0.8829 -0.0000
vn -0.6691 0.7431 -0.0000
vn -0.8290 0.5592 -0.0000
vn -0.8910 0.4540 -0.0000
vn 0.8910 0.4540 -0.0000
vn 0.8290 0.5592 -0.0000
vn 0.6691 0.7431 -0.0000
vn 0.4695 0.8829 -0.0000
vn 0.2419 0.9703 -0.0000
vn 0.1219 0.9925 -0.0000
# 18 vertex normals

vt 0.2500 1.0000 0.0000
vt 0.3129 0.8703 0.0000
vt 0.3007 0.9245 0.0000
vt 0.2683 0.9913 0.0000
vt 0.2856 0.9656 0.0000
vt 0.0000 1.0000 0.0000
vt 0.0000 0.0000 0.0000
vt 0.3213 0.8065 0.0000
vt 1.0000 0.0000 0.0000
vt 1.0000 1.0000 0.0000
vt 0.7500 1.0000 0.0000
vt 0.6787 0.8065 0.0000
vt 0.7317 0.9913 0.0000
vt 0.7144 0.9656 0.0000
vt 0.6993 0.9245 0.0000
vt 0.6871 0.8703 0.0000
vt 1.0000 1.0000 1.0000
vt 0.7426 1.0000 0.9549
vt 0.7426 0.0000 0.9549
vt 1.0000 0.0000 1.0000
vt 0.5004 1.0000 0.8221
vt 0.5004 0.0000 0.8221
vt 1.0000 0.6096 0.2879
vt 0.0000 0.6096 0.2879
vt 0.0000 0.3301 0.1178
vt 1.0000 0.3301 0.1178
vt 1.0000 0.3301 0.8822
vt 0.0000 0.3301 0.8822
vt 0.0000 0.0000 1.0000
vt 0.7121 1.0000 0.6096
vt 0.7121 0.0000 0.6096
vt 0.4996 0.0000 0.8221
vt 0.4996 1.0000 0.8221
vt 0.2574 1.0000 0.9549
vt 0.0000 1.0000 1.0000
vt 0.2574 0.0000 0.9549
# 36 texture coords

g Plumbing_Fixtures
usemtl 13___Default
s 1
f 57/49/31 58/50/31 59/51/31 60/52/31 
f 59/51/31 61/53/31 60/52/31 
f 57/49/31 62/54/31 63/55/31 64/56/31 
f 65/57/31 66/58/31 67/59/31 68/60/31 
f 67/59/31 69/61/31 70/62/31 71/63/31 
f 64/56/31 58/50/31 57/49/31 
f 64/56/31 63/55/31 65/57/31 68/60/31 
f 71/63/31 72/64/31 68/60/31 67/59/31 
f 73/55/32 74/57/32 75/60/32 76/56/32 
f 75/60/32 77/58/32 78/59/32 79/64/32 
f 78/59/32 80/61/32 81/63/32 79/64/32 
f 75/60/32 74/57/32 77/58/32 
f 82/49/32 83/54/32 73/55/32 84/51/32 
f 73/55/32 76/56/32 85/50/32 84/51/32 
f 80/61/32 86/62/32 81/63/32 
f 87/53/32 88/52/32 82/49/32 84/51/32 
f 62/58/33 77/54/33 74/55/33 63/57/33 
f 63/57/34 74/58/34 73/54/34 65/55/34 
f 65/55/35 73/57/35 83/58/35 66/54/35 
f 66/57/36 83/58/36 82/54/36 67/55/36 
f 82/65/37 88/66/38 69/67/38 67/68/37 
f 88/66/38 87/69/39 70/70/39 69/67/38 
f 71/71/40 70/70/39 87/69/39 84/72/40 
f 84/72/40 85/73/41 72/74/41 71/71/40 
f 85/73/41 76/55/42 68/57/42 72/74/41 
f 68/57/36 76/58/36 75/54/36 64/55/36 
f 75/68/43 79/75/44 58/76/44 64/77/43 
f 79/75/44 81/78/45 59/79/45 58/76/44 
f 61/80/46 59/79/45 81/78/45 86/81/46 
f 80/82/47 78/83/48 57/77/48 60/84/47 
f 86/81/46 80/82/47 60/84/47 61/80/46 
f 57/57/36 78/58/36 77/54/36 62/55/36 
# 28 polygons - 4 triangles

#
# object Plumbing_Fixtures
#

#
# object Plumbing_Fixtures
#

v  -79.2000 514.1750 289.9000
v  -56.6254 498.3681 289.9000
v  -63.1252 508.0045 289.9000
v  -73.3882 513.4614 289.9000
v  -67.9217 511.3630 289.9000
v  -158.4000 514.1750 289.9000
v  -158.4000 350.8250 289.9000
v  56.6254 498.3681 289.9000
v  158.4000 350.8250 289.9000
v  158.4000 514.1750 289.9000
v  59.2837 503.5853 289.9000
v  79.2000 514.1750 289.9000
v  63.1252 508.0045 289.9000
v  73.3882 513.4614 289.9000
v  67.9217 511.3630 289.9000
v  -59.2837 503.5853 289.9000
v  -56.6254 498.3681 270.1000
v  56.6254 498.3681 270.1000
v  158.4000 350.8250 270.1000
v  -158.4000 514.1750 270.1000
v  -158.4000 350.8250 270.1000
v  -59.2837 503.5853 270.1000
v  -79.2000 514.1750 270.1000
v  -63.1252 508.0045 270.1000
v  158.4000 514.1750 270.1000
v  79.2000 514.1750 270.1000
v  59.2837 503.5853 270.1000
v  63.1252 508.0045 270.1000
v  -73.3882 513.4614 270.1000
v  -67.9217 511.3630 270.1000
v  67.9217 511.3630 270.1000
v  73.3882 513.4614 270.1000
# 32 vertices

vn 0.0000 0.0000 1.0000
vn 0.0000 0.0000 -1.0000
vn -1.0000 0.0000 -0.0000
vn 0.0000 -1.0000 -0.0000
vn 1.0000 0.0000 -0.0000
vn 0.0000 1.0000 -0.0000
vn -0.1219 0.9925 -0.0000
vn -0.2419 0.9703 -0.0000
vn -0.4695 0.8829 -0.0000
vn -0.6691 0.7431 -0.0000
vn -0.8290 0.5592 -0.0000
vn -0.8910 0.4540 -0.0000
vn 0.8910 0.4540 -0.0000
vn 0.8290 0.5592 -0.0000
vn 0.6691 0.7431 -0.0000
vn 0.4695 0.8829 -0.0000
vn 0.2419 0.9703 -0.0000
vn 0.1219 0.9925 -0.0000
# 18 vertex normals

vt 0.2500 1.0000 0.0000
vt 0.3213 0.9032 0.0000
vt 0.3007 0.9622 0.0000
vt 0.2683 0.9956 0.0000
vt 0.2856 0.9828 0.0000
vt 0.0000 1.0000 0.0000
vt 0.0000 0.0000 0.0000
vt 0.6787 0.9032 0.0000
vt 1.0000 0.0000 0.0000
vt 1.0000 1.0000 0.0000
vt 0.6871 0.9352 0.0000
vt 0.7500 1.0000 0.0000
vt 0.6993 0.9622 0.0000
vt 0.7317 0.9956 0.0000
vt 0.7144 0.9828 0.0000
vt 0.3129 0.9352 0.0000
vt 1.0000 1.0000 1.0000
vt 0.7426 1.0000 0.9549
vt 0.7426 0.0000 0.9549
vt 1.0000 0.0000 1.0000
vt 0.0000 0.8221 0.5004
vt 1.0000 0.8221 0.5004
vt 1.0000 0.6096 0.2879
vt 0.0000 0.6096 0.2879
vt 0.0000 0.3301 0.1178
vt 1.0000 0.3301 0.1178
vt 1.0000 0.3301 0.8822
vt 0.0000 0.3301 0.8822
vt 0.0000 0.0000 1.0000
vt 1.0000 0.6096 0.7121
vt 0.0000 0.6096 0.7121
vt 0.4996 0.0000 0.8221
vt 0.4996 1.0000 0.8221
vt 0.2574 1.0000 0.9549
vt 0.0000 1.0000 1.0000
vt 0.2574 0.0000 0.9549
# 36 texture coords

g Plumbing_Fixtures
usemtl 13___Default
s 1
f 89/85/49 90/86/49 91/87/49 92/88/49 
f 91/87/49 93/89/49 92/88/49 
f 90/86/49 89/85/49 94/90/49 95/91/49 
f 96/92/49 97/93/49 98/94/49 99/95/49 
f 98/94/49 100/96/49 101/97/49 99/95/49 
f 100/96/49 102/98/49 103/99/49 101/97/49 
f 104/100/49 91/87/49 90/86/49 
f 90/86/49 95/91/49 97/93/49 96/92/49 
f 105/92/50 106/86/50 107/91/50 108/94/50 
f 107/91/50 109/93/50 108/94/50 
f 110/95/50 105/92/50 111/96/50 112/97/50 
f 113/90/50 107/91/50 106/86/50 114/85/50 
f 114/85/50 106/86/50 115/100/50 116/87/50 
f 111/96/50 117/98/50 118/99/50 112/97/50 
f 105/92/50 108/94/50 111/96/50 
f 119/89/50 120/88/50 114/85/50 116/87/50 
f 94/94/51 108/90/51 109/91/51 95/93/51 
f 95/93/52 109/94/52 107/90/52 97/91/52 
f 97/91/53 107/93/53 113/94/53 98/90/53 
f 98/93/54 113/94/54 114/90/54 100/91/54 
f 114/101/55 120/102/56 102/103/56 100/104/55 
f 120/102/56 119/105/57 103/106/57 102/103/56 
f 101/107/58 103/106/57 119/105/57 116/108/58 
f 116/108/58 115/109/59 99/110/59 101/107/58 
f 115/109/59 106/91/60 96/93/60 99/110/59 
f 96/93/54 106/94/54 105/90/54 90/91/54 
f 105/104/61 110/111/62 104/112/62 90/113/61 
f 110/111/62 112/114/63 91/115/63 104/112/62 
f 93/116/64 91/115/63 112/114/63 118/117/64 
f 117/118/65 111/119/66 89/113/66 92/120/65 
f 118/117/64 117/118/65 92/120/65 93/116/64 
f 89/93/54 111/94/54 108/90/54 94/91/54 
# 28 polygons - 4 triangles

#
# object Plumbing_Fixtures
#

#
# object Plumbing_Fixtures
#

v  -79.2000 349.1750 289.9000
v  -56.6254 333.3681 289.9000
v  -63.1252 343.0045 289.9000
v  -73.3882 348.4614 289.9000
v  -67.9217 346.3630 289.9000
v  -158.4000 349.1750 289.9000
v  -158.4000 185.8250 289.9000
v  56.6254 333.3681 289.9000
v  158.4000 185.8250 289.9000
v  158.4000 349.1750 289.9000
v  59.2837 338.5853 289.9000
v  79.2000 349.1750 289.9000
v  63.1252 343.0045 289.9000
v  73.3882 348.4614 289.9000
v  67.9217 346.3630 289.9000
v  -59.2837 338.5853 289.9000
v  -56.6254 333.3681 270.1000
v  56.6254 333.3681 270.1000
v  158.4000 185.8250 270.1000
v  -158.4000 349.1750 270.1000
v  -158.4000 185.8250 270.1000
v  -59.2837 338.5853 270.1000
v  -79.2000 349.1750 270.1000
v  -63.1252 343.0045 270.1000
v  158.4000 349.1750 270.1000
v  79.2000 349.1750 270.1000
v  59.2837 338.5853 270.1000
v  63.1252 343.0045 270.1000
v  -73.3882 348.4614 270.1000
v  -67.9217 346.3630 270.1000
v  67.9217 346.3630 270.1000
v  73.3882 348.4614 270.1000
# 32 vertices

vn 0.0000 0.0000 1.0000
vn 0.0000 0.0000 -1.0000
vn -1.0000 0.0000 -0.0000
vn 0.0000 -1.0000 -0.0000
vn 1.0000 0.0000 -0.0000
vn 0.0000 1.0000 -0.0000
vn -0.1219 0.9925 -0.0000
vn -0.2419 0.9703 -0.0000
vn -0.4695 0.8829 -0.0000
vn -0.6691 0.7431 -0.0000
vn -0.8290 0.5592 -0.0000
vn -0.8910 0.4540 -0.0000
vn 0.8910 0.4540 -0.0000
vn 0.8290 0.5592 -0.0000
vn 0.6691 0.7431 -0.0000
vn 0.4695 0.8829 -0.0000
vn 0.2419 0.9703 -0.0000
vn 0.1219 0.9925 -0.0000
# 18 vertex normals

vt 0.2500 1.0000 0.0000
vt 0.3213 0.9032 0.0000
vt 0.3007 0.9622 0.0000
vt 0.2683 0.9956 0.0000
vt 0.2856 0.9828 0.0000
vt 0.0000 1.0000 0.0000
vt 0.0000 0.0000 0.0000
vt 0.6787 0.9032 0.0000
vt 1.0000 0.0000 0.0000
vt 1.0000 1.0000 0.0000
vt 0.6871 0.9352 0.0000
vt 0.7500 1.0000 0.0000
vt 0.6993 0.9622 0.0000
vt 0.7317 0.9956 0.0000
vt 0.7144 0.9828 0.0000
vt 0.3129 0.9352 0.0000
vt 1.0000 1.0000 1.0000
vt 0.7426 1.0000 0.9549
vt 0.7426 0.0000 0.9549
vt 1.0000 0.0000 1.0000
vt 0.5004 1.0000 0.8221
vt 0.5004 0.0000 0.8221
vt 1.0000 0.6096 0.2879
vt 0.0000 0.6096 0.2879
vt 0.0000 0.3301 0.1178
vt 1.0000 0.3301 0.1178
vt 1.0000 0.3301 0.8822
vt 0.0000 0.3301 0.8822
vt 0.0000 0.0000 1.0000
vt 0.7121 1.0000 0.6096
vt 0.7121 0.0000 0.6096
vt 0.4996 0.0000 0.8221
vt 0.4996 1.0000 0.8221
vt 0.2574 1.0000 0.9549
vt 0.0000 1.0000 1.0000
vt 0.2574 0.0000 0.9549
# 36 texture coords

g Plumbing_Fixtures
usemtl 13___Default
s 1
f 121/121/67 122/122/67 123/123/67 124/124/67 
f 123/123/67 125/125/67 124/124/67 
f 122/122/67 121/121/67 126/126/67 127/127/67 
f 128/128/67 129/129/67 130/130/67 131/131/67 
f 130/130/67 132/132/67 133/133/67 131/131/67 
f 132/132/67 134/134/67 135/135/67 133/133/67 
f 136/136/67 123/123/67 122/122/67 
f 122/122/67 127/127/67 129/129/67 128/128/67 
f 137/128/68 138/122/68 139/127/68 140/130/68 
f 139/127/68 141/129/68 140/130/68 
f 142/131/68 137/128/68 143/132/68 144/133/68 
f 145/126/68 139/127/68 138/122/68 146/121/68 
f 146/121/68 138/122/68 147/136/68 148/123/68 
f 143/132/68 149/134/68 150/135/68 144/133/68 
f 137/128/68 140/130/68 143/132/68 
f 151/125/68 152/124/68 146/121/68 148/123/68 
f 126/130/69 140/126/69 141/127/69 127/129/69 
f 127/129/70 141/130/70 139/126/70 129/127/70 
f 129/127/71 139/129/71 145/130/71 130/126/71 
f 130/129/72 145/130/72 146/126/72 132/127/72 
f 146/137/73 152/138/74 134/139/74 132/140/73 
f 152/138/74 151/141/75 135/142/75 134/139/74 
f 133/143/76 135/142/75 151/141/75 148/144/76 
f 148/144/76 147/145/77 131/146/77 133/143/76 
f 147/145/77 138/127/78 128/129/78 131/146/77 
f 128/129/72 138/130/72 137/126/72 122/127/72 
f 137/140/79 142/147/80 136/148/80 122/149/79 
f 142/147/80 144/150/81 123/151/81 136/148/80 
f 125/152/82 123/151/81 144/150/81 150/153/82 
f 149/154/83 143/155/84 121/149/84 124/156/83 
f 150/153/82 149/154/83 124/156/83 125/152/82 
f 121/129/72 143/130/72 140/126/72 126/127/72 
# 28 polygons - 4 triangles

#
# object Plumbing_Fixtures
#

#
# object Plumbing_Fixtures
#

v  -79.2000 184.1750 289.9000
v  -56.6254 168.3681 289.9000
v  -63.1252 178.0045 289.9000
v  -73.3882 183.4614 289.9000
v  -67.9217 181.3630 289.9000
v  -158.4000 184.1750 289.9000
v  -158.4000 20.8250 289.9000
v  56.6254 168.3681 289.9000
v  158.4000 20.8250 289.9000
v  158.4000 184.1750 289.9000
v  59.2837 173.5853 289.9000
v  79.2000 184.1750 289.9000
v  63.1252 178.0045 289.9000
v  73.3882 183.4614 289.9000
v  67.9217 181.3630 289.9000
v  -59.2837 173.5853 289.9000
v  -56.6254 168.3681 270.1000
v  56.6254 168.3681 270.1000
v  158.4000 20.8250 270.1000
v  -158.4000 184.1750 270.1000
v  -158.4000 20.8250 270.1000
v  -59.2837 173.5853 270.1000
v  -79.2000 184.1750 270.1000
v  -63.1252 178.0045 270.1000
v  158.4000 184.1750 270.1000
v  79.2000 184.1750 270.1000
v  59.2837 173.5853 270.1000
v  63.1252 178.0045 270.1000
v  -73.3882 183.4614 270.1000
v  -67.9217 181.3630 270.1000
v  67.9217 181.3630 270.1000
v  73.3882 183.4614 270.1000
# 32 vertices

vn 0.0000 0.0000 1.0000
vn 0.0000 0.0000 -1.0000
vn -1.0000 0.0000 -0.0000
vn 0.0000 -1.0000 -0.0000
vn 1.0000 0.0000 -0.0000
vn 0.0000 1.0000 -0.0000
vn -0.1219 0.9925 -0.0000
vn -0.2419 0.9703 -0.0000
vn -0.4695 0.8829 -0.0000
vn -0.6691 0.7431 -0.0000
vn -0.8290 0.5592 -0.0000
vn -0.8910 0.4540 -0.0000
vn 0.8910 0.4540 -0.0000
vn 0.8290 0.5592 -0.0000
vn 0.6691 0.7431 -0.0000
vn 0.4695 0.8829 -0.0000
vn 0.2419 0.9703 -0.0000
vn 0.1219 0.9925 -0.0000
# 18 vertex normals

vt 0.2500 1.0000 0.0000
vt 0.3213 0.9032 0.0000
vt 0.3007 0.9622 0.0000
vt 0.2683 0.9956 0.0000
vt 0.2856 0.9828 0.0000
vt 0.0000 1.0000 0.0000
vt 0.0000 0.0000 0.0000
vt 0.6787 0.9032 0.0000
vt 1.0000 0.0000 0.0000
vt 1.0000 1.0000 0.0000
vt 0.6871 0.9352 0.0000
vt 0.7500 1.0000 0.0000
vt 0.6993 0.9622 0.0000
vt 0.7317 0.9956 0.0000
vt 0.7144 0.9828 0.0000
vt 0.3129 0.9352 0.0000
vt 1.0000 1.0000 1.0000
vt 0.7426 1.0000 0.9549
vt 0.7426 0.0000 0.9549
vt 1.0000 0.0000 1.0000
vt 0.5004 1.0000 0.8221
vt 0.5004 0.0000 0.8221
vt 1.0000 0.6096 0.2879
vt 0.0000 0.6096 0.2879
vt 0.0000 0.3301 0.1178
vt 1.0000 0.3301 0.1178
vt 1.0000 0.3301 0.8822
vt 0.0000 0.3301 0.8822
vt 0.0000 0.0000 1.0000
vt 0.7121 1.0000 0.6096
vt 0.7121 0.0000 0.6096
vt 0.4996 0.0000 0.8221
vt 0.4996 1.0000 0.8221
vt 0.2574 1.0000 0.9549
vt 0.0000 1.0000 1.0000
vt 0.2574 0.0000 0.9549
# 36 texture coords

g Plumbing_Fixtures
usemtl 13___Default
s 1
f 153/157/85 154/158/85 155/159/85 156/160/85 
f 155/159/85 157/161/85 156/160/85 
f 154/158/85 153/157/85 158/162/85 159/163/85 
f 160/164/85 161/165/85 162/166/85 163/167/85 
f 162/166/85 164/168/85 165/169/85 163/167/85 
f 164/168/85 166/170/85 167/171/85 165/169/85 
f 168/172/85 155/159/85 154/158/85 
f 154/158/85 159/163/85 161/165/85 160/164/85 
f 169/164/86 170/158/86 171/163/86 172/166/86 
f 171/163/86 173/165/86 172/166/86 
f 174/167/86 169/164/86 175/168/86 176/169/86 
f 177/162/86 171/163/86 170/158/86 178/157/86 
f 178/157/86 170/158/86 179/172/86 180/159/86 
f 175/168/86 181/170/86 182/171/86 176/169/86 
f 169/164/86 172/166/86 175/168/86 
f 183/161/86 184/160/86 178/157/86 180/159/86 
f 158/166/87 172/162/87 173/163/87 159/165/87 
f 159/165/88 173/166/88 171/162/88 161/163/88 
f 161/163/89 171/165/89 177/166/89 162/162/89 
f 162/165/90 177/166/90 178/162/90 164/163/90 
f 178/173/91 184/174/92 166/175/92 164/176/91 
f 184/174/92 183/177/93 167/178/93 166/175/92 
f 165/179/94 167/178/93 183/177/93 180/180/94 
f 180/180/94 179/181/95 163/182/95 165/179/94 
f 179/181/95 170/163/96 160/165/96 163/182/95 
f 160/165/90 170/166/90 169/162/90 154/163/90 
f 169/176/97 174/183/98 168/184/98 154/185/97 
f 174/183/98 176/186/99 155/187/99 168/184/98 
f 157/188/100 155/187/99 176/186/99 182/189/100 
f 181/190/101 175/191/102 153/185/102 156/192/101 
f 182/189/100 181/190/101 156/192/101 157/188/100 
f 153/165/90 175/166/90 172/162/90 158/163/90 
# 28 polygons - 4 triangles

