# 3ds Max Wavefront OBJ Exporter v0.97b - (c)2007 guruware
# 创建的文件:09.08.2017 23:09:26

mtllib IKE160207.mtl

#
# object Furniture
#

#
# object Furniture
#

v  258.9048 116.2501 405.7708
v  258.9048 1782.5002 405.7708
v  158.9048 1682.5002 405.7708
v  158.9048 216.2501 405.7708
v  -38.5952 1682.5002 405.7708
v  -138.5952 1782.5002 405.7708
v  -38.5952 216.2501 405.7708
v  -138.5952 116.2501 405.7708
v  661.4048 1782.5002 405.7708
v  363.9048 1682.5002 405.7708
v  561.4048 1682.5002 405.7708
v  661.4048 116.2501 405.7708
v  561.4048 216.2501 405.7708
v  363.9048 216.2501 405.7708
v  263.9048 1782.5002 405.7708
v  263.9048 116.2501 405.7708
v  -138.5952 1782.5002 390.7708
v  158.9048 1682.5002 390.7708
v  -38.5952 1682.5002 390.7708
v  -138.5952 116.2501 390.7708
v  -38.5952 216.2501 390.7708
v  158.9048 216.2501 390.7708
v  258.9048 1782.5002 390.7708
v  258.9048 116.2501 390.7708
v  263.9048 116.2501 390.7708
v  263.9048 1782.5002 390.7708
v  363.9048 1682.5002 390.7708
v  363.9048 216.2501 390.7708
v  561.4048 1682.5002 390.7708
v  661.4048 1782.5002 390.7708
v  561.4048 216.2501 390.7708
v  661.4048 116.2501 390.7708
# 32 vertices

vn 0.0000 0.0000 1.0000
vn 0.0000 0.0000 -1.0000
vn 0.0000 1.0000 -0.0000
vn -1.0000 0.0000 -0.0000
vn 0.0000 -1.0000 -0.0000
vn 1.0000 0.0000 -0.0000
# 6 vertex normals

vt 0.4969 0.0000 0.0000
vt 0.4969 1.0000 0.0000
vt 0.3719 0.9400 0.0000
vt 0.3719 0.0600 0.0000
vt 0.1250 0.9400 0.0000
vt 0.0000 1.0000 0.0000
vt 0.1250 0.0600 0.0000
vt 0.0000 0.0000 0.0000
vt 1.0000 1.0000 0.0000
vt 0.6281 0.9400 0.0000
vt 0.8750 0.9400 0.0000
vt 1.0000 0.0000 0.0000
vt 0.8750 0.0600 0.0000
vt 0.6281 0.0600 0.0000
vt 0.5031 1.0000 0.0000
vt 0.5031 0.0000 0.0000
vt -0.0000 1.0000 0.0000
vt -0.0000 0.0000 0.0000
# 18 texture coords

g Furniture
usemtl 13___Default
s 1
f 1/1/1 2/2/1 3/3/1 4/4/1 
f 5/5/1 3/3/1 2/2/1 6/6/1 
f 1/1/1 4/4/1 7/7/1 8/8/1 
f 7/7/1 5/5/1 6/6/1 8/8/1 
f 9/9/1 10/10/1 11/11/1 12/12/1 
f 11/11/1 13/13/1 14/14/1 12/12/1 
f 9/9/1 15/15/1 14/14/1 10/10/1 
f 16/16/1 12/12/1 14/14/1 15/15/1 
f 17/9/2 18/10/2 19/11/2 20/12/2 
f 19/11/2 21/13/2 22/14/2 20/12/2 
f 17/9/2 23/15/2 22/14/2 18/10/2 
f 24/16/2 20/12/2 22/14/2 23/15/2 
f 25/1/2 26/2/2 27/3/2 28/4/2 
f 29/5/2 27/3/2 26/2/2 30/6/2 
f 25/1/2 28/4/2 31/7/2 32/8/2 
f 31/7/2 29/5/2 30/6/2 32/8/2 
f 2/12/3 23/9/3 17/6/3 6/8/3 
f 6/9/4 17/17/4 20/18/4 8/12/4 
f 8/12/5 20/9/5 24/6/5 1/8/5 
f 1/8/6 24/12/6 23/9/6 2/6/6 
f 15/9/4 26/17/4 25/18/4 16/12/4 
f 16/12/5 25/9/5 32/6/5 12/8/5 
f 12/8/6 32/12/6 30/9/6 9/6/6 
f 9/12/3 30/9/3 26/6/3 15/8/3 
f 3/9/4 18/17/4 22/18/4 4/12/4 
f 4/12/3 22/9/3 21/6/3 7/8/3 
f 7/8/6 21/12/6 19/9/6 5/6/6 
f 5/12/5 19/9/5 18/6/5 3/8/5 
f 14/8/6 28/12/6 27/9/6 10/6/6 
f 10/12/5 27/9/5 29/6/5 11/8/5 
f 11/9/4 29/17/4 31/18/4 13/12/4 
f 13/12/3 31/9/3 28/6/3 14/8/3 
# 32 polygons

#
# object Furniture
#

#
# object Furniture
#

v  158.9048 216.2501 395.7708
v  158.9048 1682.5002 395.7708
v  -38.5952 1682.5002 395.7708
v  -38.5952 216.2501 395.7708
v  561.4048 216.2501 395.7708
v  561.4048 1682.5002 395.7708
v  363.9048 1682.5002 395.7708
v  363.9048 216.2501 395.7708
v  -38.5952 216.2501 390.7708
v  -38.5952 1682.5002 390.7708
v  158.9048 1682.5002 390.7708
v  158.9048 216.2501 390.7708
v  363.9048 216.2501 390.7708
v  363.9048 1682.5002 390.7708
v  561.4048 1682.5002 390.7708
v  561.4048 216.2501 390.7708
# 16 vertices

vn 0.0000 0.0000 1.0000
vn 0.0000 0.0000 -1.0000
vn 0.0000 1.0000 -0.0000
vn -1.0000 0.0000 -0.0000
vn 0.0000 -1.0000 -0.0000
vn 1.0000 0.0000 -0.0000
# 6 vertex normals

vt 0.3292 0.0000 0.0000
vt 0.3292 1.0000 0.0000
vt 0.0000 1.0000 0.0000
vt 0.0000 0.0000 0.0000
vt 1.0000 0.0000 0.0000
vt 1.0000 1.0000 0.0000
vt 0.6708 1.0000 0.0000
vt 0.6708 0.0000 0.0000
# 8 texture coords

g Furniture
usemtl 2
s 1
f 33/19/7 34/20/7 35/21/7 36/22/7 
f 37/23/7 38/24/7 39/25/7 40/26/7 
f 41/23/8 42/24/8 43/25/8 44/26/8 
f 45/19/8 46/20/8 47/21/8 48/22/8 
f 34/23/9 43/24/9 42/21/9 35/22/9 
f 35/24/10 42/21/10 41/22/10 36/23/10 
f 36/23/11 41/24/11 44/21/11 33/22/11 
f 33/22/12 44/23/12 43/24/12 34/21/12 
f 37/22/12 48/23/12 47/24/12 38/21/12 
f 38/23/9 47/24/9 46/21/9 39/22/9 
f 39/24/10 46/21/10 45/22/10 40/23/10 
f 40/23/11 45/24/11 48/21/11 37/22/11 
# 12 polygons

#
# object Furniture
#

#
# object Furniture
#

v  -138.5952 1800.0000 -94.2292
v  -138.5952 1800.0000 405.7708
v  661.4048 1800.0000 405.7708
v  661.4048 1800.0000 -94.2292
v  -123.5952 1785.0000 390.7708
v  -123.5952 1785.0000 -79.2293
v  646.4048 1785.0000 -79.2293
v  646.4048 1785.0000 390.7708
v  -138.5952 1785.0000 405.7708
v  -138.5952 1785.0000 390.7708
v  661.4048 1785.0000 390.7708
v  661.4048 1785.0000 405.7708
v  661.4048 100.0000 -94.2292
v  -138.5952 100.0000 -94.2292
v  -138.5952 115.0000 390.7708
v  -138.5952 100.0000 405.7708
v  -138.5952 115.0000 405.7708
v  661.4048 115.0000 390.7708
v  661.4048 115.0000 405.7708
v  661.4048 100.0000 405.7708
v  -123.5952 115.0000 390.7708
v  -123.5952 115.0000 -79.2293
v  646.4048 115.0000 -79.2293
v  646.4048 115.0000 390.7708
# 24 vertices

vn 0.0000 1.0000 -0.0000
vn 0.0000 -1.0000 -0.0000
vn 1.0000 0.0000 -0.0000
vn 0.0000 0.0000 -1.0000
vn -1.0000 0.0000 -0.0000
vn 0.0000 0.0000 1.0000
# 6 vertex normals

vt 0.0000 1.0000 0.0000
vt 0.0000 0.0000 0.0000
vt 1.0000 0.0000 0.0000
vt 1.0000 1.0000 0.0000
vt 0.0309 0.0000 0.0188
vt 0.9812 1.0000 0.0000
vt 0.0188 1.0000 0.0000
vt 0.0188 0.0309 0.0000
vt 0.0309 0.0000 0.0000
vt 0.0000 0.0309 0.0000
vt 0.9700 0.9912 0.0000
vt 1.0000 0.9912 0.0000
vt 0.9700 0.0088 0.0000
vt 1.0000 0.0088 0.0000
vt 0.0000 0.9912 0.0000
vt 0.0300 0.9912 0.0000
vt 0.0300 0.0088 0.0000
vt 0.0000 0.0088 0.0000
vt 0.0309 0.0000 0.9812
vt 0.0309 0.0000 1.0000
# 20 texture coords

g Furniture
usemtl 13___Default
s 1
f 49/27/13 50/28/13 51/29/13 52/30/13 
f 53/31/14 54/32/14 55/33/14 56/34/14 
s 2
f 57/29/14 58/35/14 56/34/14 59/36/14 
s 4
f 58/35/15 53/31/15 56/34/15 
s 2
f 59/36/14 60/28/14 57/29/14 
s 1
f 49/30/16 52/27/16 61/28/16 62/29/16 
f 50/30/17 49/27/17 58/37/17 57/38/17 
f 58/37/17 49/27/17 62/28/17 63/39/17 
f 63/39/17 62/28/17 64/29/17 65/40/17 
f 50/27/18 57/28/18 60/29/18 51/30/18 
f 51/27/15 60/41/15 59/42/15 52/30/15 
f 61/29/15 52/30/15 59/42/15 66/43/15 
f 66/43/15 67/44/15 68/28/15 61/29/15 
f 62/30/14 61/27/14 68/28/14 64/29/14 
f 58/27/18 63/28/18 69/29/18 53/30/18 
f 53/27/15 69/28/15 70/29/15 54/30/15 
f 54/27/18 70/28/18 71/29/18 55/30/18 
f 55/27/17 71/28/17 72/29/17 56/30/17 
f 56/27/18 72/28/18 66/29/18 59/30/18 
f 72/45/13 71/32/13 70/33/13 69/34/13 
s 2
f 67/29/13 66/46/13 69/34/13 63/36/13 
s 4
f 66/46/15 72/45/15 69/34/15 
s 2
f 63/36/13 65/28/13 67/29/13 
s 1
f 65/27/18 64/28/18 68/29/18 67/30/18 
# 20 polygons - 4 triangles

#
# object Furniture
#

#
# object Furniture
#

v  239.1870 1110.0000 420.3051
v  238.0733 1110.0000 421.7565
v  236.6219 1110.0000 422.8702
v  247.2472 1110.0000 430.7708
v  240.1260 1110.0000 416.8010
v  239.8872 1110.0000 418.6148
v  247.2472 1110.0000 405.7708
v  240.1260 1110.0000 405.7708
v  233.1178 1110.0000 423.8091
v  215.3722 1110.0000 423.8091
v  215.3722 1110.0000 430.7708
v  234.9317 1110.0000 423.5703
v  282.6836 1110.0000 405.7708
v  275.5624 1110.0000 405.7708
v  282.9224 1110.0000 418.6148
v  282.6836 1110.0000 416.8010
v  275.5624 1110.0000 430.7708
v  283.6225 1110.0000 420.3051
v  284.7362 1110.0000 421.7565
v  286.1877 1110.0000 422.8702
v  289.6917 1110.0000 423.8091
v  287.8779 1110.0000 423.5703
v  307.4374 1110.0000 430.7708
v  307.4374 1110.0000 423.8091
v  215.3722 860.0000 430.7708
v  215.3722 860.0000 423.8091
v  233.1178 860.0000 423.8091
v  247.2472 860.0000 430.7708
v  234.9317 860.0000 423.5703
v  236.6219 860.0000 422.8702
v  238.0733 860.0000 421.7565
v  239.1870 860.0000 420.3051
v  240.1260 860.0000 416.8010
v  240.1260 860.0000 405.7708
v  239.8872 860.0000 418.6148
v  247.2472 860.0000 405.7708
v  275.5624 860.0000 430.7708
v  284.7362 860.0000 421.7565
v  286.1877 860.0000 422.8702
v  287.8779 860.0000 423.5703
v  289.6917 860.0000 423.8091
v  307.4374 860.0000 423.8091
v  307.4374 860.0000 430.7708
v  282.6836 860.0000 416.8010
v  282.9224 860.0000 418.6148
v  275.5624 860.0000 405.7708
v  282.6836 860.0000 405.7708
v  283.6225 860.0000 420.3051
# 48 vertices

vn 0.0000 1.0000 -0.0000
vn 0.0000 -1.0000 -0.0000
vn -1.0000 0.0000 -0.0000
vn -0.9659 0.0000 -0.2588
vn -0.9914 0.0000 -0.1305
vn -0.9239 0.0000 -0.3827
vn -0.7934 0.0000 -0.6088
vn -0.3827 0.0000 -0.9239
vn -0.5000 0.0000 -0.8660
vn -0.1305 0.0000 -0.9914
vn -0.6088 0.0000 -0.7934
vn 0.0000 0.0000 -1.0000
vn 0.0000 0.0000 1.0000
vn 1.0000 0.0000 -0.0000
vn 0.1305 0.0000 -0.9914
vn 0.5000 0.0000 -0.8660
vn 0.3827 0.0000 -0.9239
vn 0.6088 0.0000 -0.7934
vn 0.9659 0.0000 -0.2588
vn 0.9239 0.0000 -0.3827
vn 0.9914 0.0000 -0.1305
vn 0.7934 0.0000 -0.6088
# 22 vertex normals

vt 0.2587 0.4186 0.0000
vt 0.2466 0.3606 0.0000
vt 0.2308 0.3160 0.0000
vt 0.3462 0.0000 0.0000
vt 0.2689 0.5588 0.0000
vt 0.2663 0.4862 0.0000
vt 0.3462 1.0000 0.0000
vt 0.2689 1.0000 0.0000
vt 0.1928 0.2785 0.0000
vt 0.0000 0.2785 0.0000
vt 0.0000 0.0000 0.0000
vt 0.2125 0.2880 0.0000
vt 0.7311 1.0000 0.0000
vt 0.6538 1.0000 0.0000
vt 0.7337 0.4862 0.0000
vt 0.7311 0.5588 0.0000
vt 0.6538 0.0000 0.0000
vt 0.7413 0.4186 0.0000
vt 0.7534 0.3606 0.0000
vt 0.7692 0.3160 0.0000
vt 0.8072 0.2785 0.0000
vt 0.7875 0.2880 0.0000
vt 1.0000 0.0000 0.0000
vt 1.0000 0.2785 0.0000
vt 0.0000 1.0000 0.0000
vt 1.0000 1.0000 0.0000
vt 0.2588 0.0000 0.9659
vt 0.2588 1.0000 0.9659
vt 0.0000 1.0000 1.0000
vt 0.0000 0.0000 1.0000
vt 0.5000 0.0000 0.8660
vt 0.5000 1.0000 0.8660
vt 0.2929 0.0000 0.2929
vt 0.2929 1.0000 0.2929
vt 0.7412 0.0000 0.0341
vt 0.7412 1.0000 0.0341
vt 0.5000 1.0000 0.1340
vt 0.5000 0.0000 0.1340
vt 0.2588 0.0000 0.0341
vt 0.2588 1.0000 0.0341
# 40 texture coords

g Furniture
usemtl 13___Default
s 1
f 73/47/19 74/48/19 75/49/19 76/50/19 
f 77/51/19 78/52/19 76/50/19 79/53/19 
f 80/54/19 77/51/19 79/53/19 
f 78/52/19 73/47/19 76/50/19 
f 81/55/19 82/56/19 83/57/19 76/50/19 
f 75/49/19 84/58/19 81/55/19 76/50/19 
f 85/59/19 86/60/19 87/61/19 88/62/19 
f 89/63/19 90/64/19 87/61/19 86/60/19 
f 91/65/19 90/64/19 89/63/19 92/66/19 
f 92/66/19 89/63/19 93/67/19 94/68/19 
f 95/69/19 96/70/19 93/67/19 89/63/19 
f 97/69/20 98/70/20 99/67/20 100/63/20 
f 100/63/20 99/67/20 101/68/20 102/66/20 
f 100/63/20 102/66/20 103/65/20 104/64/20 
f 105/62/20 106/59/20 100/63/20 107/61/20 
f 106/59/20 108/60/20 100/63/20 
f 107/61/20 100/63/20 104/64/20 
f 109/50/20 110/48/20 111/49/20 112/58/20 
f 109/50/20 112/58/20 113/55/20 114/56/20 
f 114/56/20 115/57/20 109/50/20 
f 116/51/20 117/52/20 118/53/20 119/54/20 
f 117/52/20 120/47/20 109/50/20 118/53/20 
f 120/47/20 110/48/20 109/50/20 
f 80/71/21 106/57/21 105/69/21 77/72/21 
f 107/73/22 78/74/22 77/75/23 105/76/23 
f 104/77/24 73/78/24 78/74/22 107/73/22 
s 2
f 73/78/25 104/77/25 103/79/25 74/80/25 
s 1
f 101/81/26 84/82/26 75/83/27 102/84/27 
s 2
f 99/69/28 81/72/28 84/82/28 101/81/28 
s 1
f 74/80/29 103/79/29 102/84/27 75/83/27 
f 81/71/30 99/57/30 98/69/30 82/72/30 
f 82/71/21 98/57/21 97/69/21 83/72/21 
f 83/71/31 97/57/31 100/69/31 76/72/31 
f 76/71/32 100/57/32 108/69/32 79/72/32 
f 79/71/30 108/57/30 106/69/30 80/72/30 
f 85/71/30 119/57/30 118/69/30 86/72/30 
f 86/71/21 118/57/21 109/69/21 89/72/21 
f 89/71/31 109/57/31 115/69/31 95/72/31 
f 95/71/32 115/57/32 114/69/32 96/72/32 
f 96/71/30 114/57/30 113/69/30 93/72/30 
f 112/85/33 94/86/33 93/71/33 113/57/33 
s 2
f 111/84/34 92/83/34 94/86/35 112/85/35 
f 92/83/34 111/84/34 110/79/36 91/80/36 
s 1
f 117/81/37 87/82/37 90/83/38 120/84/38 
f 116/69/39 88/72/39 87/82/37 117/81/37 
s 4
f 91/80/40 110/79/40 120/84/40 90/83/40 
s 1
f 88/71/32 116/57/32 119/69/32 85/72/32 
# 41 polygons - 6 triangles

#
# object Furniture
#

#
# object Furniture
#

v  -138.5952 100.0000 405.7708
v  -93.5952 100.0000 405.7708
v  -93.5952 100.0000 360.7708
v  -138.5952 100.0000 360.7708
v  -138.5952 100.0000 -49.2292
v  -93.5952 100.0000 -49.2292
v  -93.5952 100.0000 -94.2292
v  -138.5952 100.0000 -94.2292
v  616.4048 100.0000 360.7708
v  616.4048 100.0000 405.7708
v  661.4048 100.0000 405.7708
v  661.4048 100.0000 360.7708
v  616.4048 100.0000 -94.2292
v  616.4048 100.0000 -49.2292
v  661.4048 100.0000 -49.2292
v  661.4048 100.0000 -94.2292
v  -138.5952 0.0000 360.7708
v  -93.5952 0.0000 360.7708
v  -93.5952 0.0000 405.7708
v  -138.5952 0.0000 405.7708
v  -138.5952 0.0000 -94.2292
v  -93.5952 0.0000 -94.2292
v  -93.5952 0.0000 -49.2292
v  -138.5952 0.0000 -49.2292
v  616.4048 0.0000 405.7708
v  616.4048 0.0000 360.7708
v  661.4048 0.0000 360.7708
v  661.4048 0.0000 405.7708
v  616.4048 0.0000 -49.2292
v  616.4048 0.0000 -94.2292
v  661.4048 0.0000 -94.2292
v  661.4048 0.0000 -49.2292
# 32 vertices

vn 0.0000 1.0000 -0.0000
vn 0.0000 -1.0000 -0.0000
vn 1.0000 0.0000 -0.0000
vn 0.0000 0.0000 -1.0000
vn -1.0000 0.0000 -0.0000
vn 0.0000 0.0000 1.0000
# 6 vertex normals

vt 0.0000 0.0000 0.0000
vt 0.0563 0.0000 0.0000
vt 0.0563 0.0900 0.0000
vt 0.0000 0.0900 0.0000
vt 0.0000 0.9100 0.0000
vt 0.0563 0.9100 0.0000
vt 0.0563 1.0000 0.0000
vt 0.0000 1.0000 0.0000
vt 0.9438 0.0900 0.0000
vt 0.9438 0.0000 0.0000
vt 1.0000 0.0000 0.0000
vt 1.0000 0.0900 0.0000
vt 0.9438 1.0000 0.0000
vt 0.9438 0.9100 0.0000
vt 1.0000 0.9100 0.0000
vt 1.0000 1.0000 0.0000
vt 0.0562 0.0000 0.0000
vt 0.0562 0.0900 0.0000
vt 0.0562 0.9100 0.0000
vt 0.0562 1.0000 0.0000
# 20 texture coords

g Furniture
usemtl 13___Default
s 1
f 121/87/41 122/88/41 123/89/41 124/90/41 
f 125/91/41 126/92/41 127/93/41 128/94/41 
f 129/95/41 130/96/41 131/97/41 132/98/41 
f 133/99/41 134/100/41 135/101/41 136/102/41 
f 137/98/42 138/95/42 139/96/42 140/97/42 
f 141/102/42 142/99/42 143/100/42 144/101/42 
f 145/103/42 146/104/42 147/90/42 148/87/42 
f 149/105/42 150/106/42 151/94/42 152/91/42 
f 122/94/43 139/87/43 138/97/43 123/102/43 
f 123/94/44 138/87/44 137/97/44 124/102/44 
f 124/94/45 137/87/45 140/97/45 121/102/45 
f 121/94/46 140/87/46 139/97/46 122/102/46 
f 127/94/44 142/87/44 141/97/44 128/102/44 
f 128/94/45 141/87/45 144/97/45 125/102/45 
f 125/94/46 144/87/46 143/97/46 126/102/46 
f 126/94/43 143/87/43 142/97/43 127/102/43 
f 130/94/46 145/87/46 148/97/46 131/102/46 
f 131/94/43 148/87/43 147/97/43 132/102/43 
f 132/94/44 147/87/44 146/97/44 129/102/44 
f 129/94/45 146/87/45 145/97/45 130/102/45 
f 133/94/45 150/87/45 149/97/45 134/102/45 
f 134/94/46 149/87/46 152/97/46 135/102/46 
f 135/94/43 152/87/43 151/97/43 136/102/43 
f 136/94/44 151/87/44 150/97/44 133/102/44 
# 24 polygons

