# 3ds Max Wavefront OBJ Exporter v0.97b - (c)2007 guruware
# 创建的文件:13.06.2017 14:37:28

mtllib IKE160025.mtl

#
# object Furniture
#

#
# object Furniture
#

v  145.6914 30.0000 3.7273
v  158.6324 31.7037 3.7273
v  170.6914 36.6987 3.7273
v  195.6914 80.0000 3.7273
v  188.9927 55.0000 3.7273
v  193.9877 67.0591 3.7273
v  181.0467 44.6447 3.7273
v  -194.3086 80.0000 3.7273
v  -179.6640 44.6447 3.7273
v  195.6914 470.0000 3.7273
v  -169.3086 36.6987 3.7273
v  -157.2496 31.7037 3.7273
v  -144.3086 30.0000 3.7273
v  -192.6049 67.0591 3.7273
v  -187.6099 55.0000 3.7273
v  181.0467 505.3553 3.7273
v  170.6914 513.3013 3.7273
v  188.9927 495.0000 3.7273
v  193.9877 482.9409 3.7273
v  145.6914 520.0000 3.7273
v  -144.3086 520.0000 3.7273
v  158.6324 518.2963 3.7273
v  -194.3086 470.0000 3.7273
v  -179.6640 505.3553 3.7273
v  -187.6099 495.0000 3.7273
v  -192.6049 482.9409 3.7273
v  -169.3086 513.3013 3.7273
v  -157.2496 518.2963 3.7273
v  145.6914 520.0000 -6.2727
v  158.6324 518.2963 -6.2727
v  170.6914 513.3013 -6.2727
v  195.6914 470.0000 -6.2727
v  193.9877 482.9409 -6.2727
v  181.0467 505.3553 -6.2727
v  188.9927 495.0000 -6.2727
v  -194.3086 470.0000 -6.2727
v  -144.3086 520.0000 -6.2727
v  -169.3086 513.3013 -6.2727
v  -157.2496 518.2963 -6.2727
v  -192.6049 482.9409 -6.2727
v  -187.6099 495.0000 -6.2727
v  -179.6640 505.3553 -6.2727
v  -194.3086 80.0000 -6.2727
v  195.6914 80.0000 -6.2727
v  193.9877 67.0591 -6.2727
v  188.9927 55.0000 -6.2727
v  181.0467 44.6447 -6.2727
v  145.6914 30.0000 -6.2727
v  -144.3086 30.0000 -6.2727
v  158.6324 31.7037 -6.2727
v  170.6914 36.6987 -6.2727
v  -179.6640 44.6447 -6.2727
v  -187.6099 55.0000 -6.2727
v  -192.6049 67.0591 -6.2727
v  -157.2496 31.7037 -6.2727
v  -169.3086 36.6987 -6.2727
# 56 vertices

vn 0.0000 0.0000 1.0000
vn 0.0000 0.0000 -1.0000
vn 0.9914 0.1305 -0.0000
vn 0.9659 0.2588 -0.0000
vn 0.8660 0.5000 -0.0000
vn 0.7934 0.6088 -0.0000
vn 0.6088 0.7934 -0.0000
vn 0.5000 0.8660 -0.0000
vn 0.3827 0.9239 -0.0000
vn 0.1305 0.9914 -0.0000
vn 0.0000 1.0000 -0.0000
vn -0.1305 0.9914 -0.0000
vn -0.3827 0.9239 -0.0000
vn -0.5000 0.8660 -0.0000
vn -0.6088 0.7934 -0.0000
vn -0.7934 0.6088 -0.0000
vn -0.8660 0.5000 -0.0000
vn -0.9659 0.2588 -0.0000
vn -0.9914 0.1305 -0.0000
vn -1.0000 0.0000 -0.0000
vn -0.9914 -0.1305 -0.0000
vn -0.9659 -0.2588 -0.0000
vn -0.9239 -0.3827 -0.0000
vn -0.7071 -0.7071 -0.0000
vn -0.7934 -0.6088 -0.0000
vn -0.5000 -0.8660 -0.0000
vn -0.3827 -0.9239 -0.0000
vn -0.1305 -0.9914 -0.0000
vn 0.0000 -1.0000 -0.0000
vn 0.1305 -0.9914 -0.0000
vn 0.3827 -0.9239 -0.0000
vn 0.5000 -0.8660 -0.0000
vn 0.7071 -0.7071 -0.0000
vn 0.7934 -0.6088 -0.0000
vn 0.9239 -0.3827 -0.0000
vn 0.9659 -0.2588 -0.0000
vn 0.9914 -0.1305 -0.0000
vn 1.0000 0.0000 -0.0000
# 38 vertex normals

vt 0.8718 0.0000 0.0000
vt 0.9050 0.0035 0.0000
vt 0.9359 0.0137 0.0000
vt 1.0000 0.1020 0.0000
vt 0.9828 0.0510 0.0000
vt 0.9956 0.0756 0.0000
vt 0.9624 0.0299 0.0000
vt 0.0000 0.1020 0.0000
vt 0.0376 0.0299 0.0000
vt 1.0000 0.8980 0.0000
vt 0.0641 0.0137 0.0000
vt 0.0950 0.0035 0.0000
vt 0.1282 0.0000 0.0000
vt 0.0044 0.0756 0.0000
vt 0.0172 0.0510 0.0000
vt 0.9624 0.9701 0.0000
vt 0.9359 0.9863 0.0000
vt 0.9828 0.9490 0.0000
vt 0.9956 0.9244 0.0000
vt 0.8718 1.0000 0.0000
vt 0.1282 1.0000 0.0000
vt 0.9050 0.9965 0.0000
vt 0.0000 0.8980 0.0000
vt 0.0376 0.9701 0.0000
vt 0.0172 0.9490 0.0000
vt 0.0044 0.9244 0.0000
vt 0.0641 0.9863 0.0000
vt 0.0950 0.9965 0.0000
vt 1.0000 0.0000 1.0000
vt 1.0000 0.2588 0.9659
vt 0.0000 0.2588 0.9659
vt 0.0000 0.0000 1.0000
vt 1.0000 0.5000 0.8660
vt 0.0000 0.5000 0.8660
vt 0.7071 0.0000 0.7071
vt 0.7071 1.0000 0.7071
vt 0.5000 1.0000 0.8660
vt 0.5000 0.0000 0.8660
vt 0.2588 1.0000 0.9659
vt 0.2588 0.0000 0.9659
vt 0.0000 1.0000 1.0000
vt 1.0000 0.0000 0.0000
vt 1.0000 1.0000 0.0000
vt 0.0000 1.0000 0.0000
vt 0.0000 0.0000 0.0000
vt 1.0000 1.0000 1.0000
vt 0.7412 1.0000 0.9659
vt 0.7412 0.0000 0.9659
vt 1.0000 0.7071 0.2929
vt 0.0000 0.7071 0.2929
vt 0.0000 0.5000 0.1340
vt 1.0000 0.5000 0.1340
vt 0.0000 0.2588 0.0341
vt 1.0000 0.2588 0.0341
vt -0.0000 1.0000 0.0000
vt -0.0000 0.7412 0.0341
vt 1.0000 0.7412 0.0341
vt -0.0000 0.5000 0.1340
vt 0.7071 0.0000 0.2929
vt 0.7071 1.0000 0.2929
vt 0.5000 1.0000 0.1340
vt 0.5000 0.0000 0.1340
vt 0.2588 1.0000 0.0341
vt 0.2588 0.0000 0.0341
vt -0.0000 0.0000 0.0000
vt 0.7412 1.0000 0.0341
vt 0.7412 0.0000 0.0341
vt 0.0000 0.2929 0.7071
vt 1.0000 0.2929 0.7071
vt 1.0000 0.7412 0.9659
vt 0.0000 0.7412 0.9659
# 71 texture coords

g Furniture
usemtl 13___Default
s 1
f 1/1/1 2/2/1 3/3/1 4/4/1 
f 5/5/1 6/6/1 4/4/1 7/7/1 
f 4/4/1 3/3/1 7/7/1 
f 8/8/1 9/9/1 1/1/1 10/10/1 
f 1/1/1 4/4/1 10/10/1 
f 11/11/1 12/12/1 13/13/1 9/9/1 
f 14/14/1 15/15/1 9/9/1 8/8/1 
f 9/9/1 13/13/1 1/1/1 
f 16/16/1 17/17/1 10/10/1 18/18/1 
f 10/10/1 19/19/1 18/18/1 
f 20/20/1 21/21/1 10/10/1 22/22/1 
f 10/10/1 17/17/1 22/22/1 
f 23/23/1 8/8/1 10/10/1 21/21/1 
f 24/24/1 25/25/1 26/26/1 27/27/1 
f 27/27/1 26/26/1 23/23/1 21/21/1 
f 21/21/1 28/28/1 27/27/1 
f 29/21/2 30/28/2 31/27/2 32/23/2 
f 33/26/2 32/23/2 31/27/2 34/24/2 
f 34/24/2 35/25/2 33/26/2 
f 29/21/2 32/23/2 36/10/2 37/20/2 
f 38/17/2 39/22/2 37/20/2 36/10/2 
f 40/19/2 41/18/2 42/16/2 38/17/2 
f 38/17/2 36/10/2 40/19/2 
f 43/4/2 36/10/2 32/23/2 44/8/2 
f 44/8/2 45/14/2 46/15/2 47/9/2 
f 48/13/2 49/1/2 44/8/2 50/12/2 
f 44/8/2 47/9/2 51/11/2 50/12/2 
f 52/7/2 53/5/2 54/6/2 43/4/2 
f 49/1/2 55/2/2 56/3/2 52/7/2 
f 49/1/2 52/7/2 43/4/2 44/8/2 
f 32/29/3 33/30/4 19/31/4 10/32/3 
f 33/30/4 35/33/5 18/34/5 19/31/4 
f 16/35/6 18/34/5 35/33/5 34/36/6 
s 2
f 34/36/7 31/37/8 17/38/8 16/35/7 
f 31/37/8 30/39/9 22/40/9 17/38/8 
s 1
f 20/32/10 22/40/10 30/39/10 29/41/10 
f 20/42/11 29/43/11 37/44/11 21/45/11 
f 37/46/12 39/47/12 28/48/12 21/29/12 
s 2
f 39/47/13 38/37/14 27/38/14 28/48/13 
f 24/49/15 27/38/14 38/37/14 42/50/15 
s 1
f 42/50/16 41/51/17 25/52/17 24/49/16 
f 41/51/17 40/53/18 26/54/18 25/52/17 
f 23/42/19 26/54/18 40/53/18 36/45/19 
f 23/43/20 36/44/20 43/45/20 8/42/20 
f 43/55/21 54/56/22 14/57/22 8/43/21 
f 54/56/22 53/58/23 15/52/23 14/57/22 
s 2
f 9/59/24 15/52/25 53/58/25 52/60/24 
f 52/60/24 56/61/26 11/62/26 9/59/24 
f 56/61/26 55/63/27 12/64/27 11/62/26 
s 1
f 13/65/28 12/64/28 55/63/28 49/55/28 
f 13/42/29 49/43/29 48/55/29 1/65/29 
f 48/43/30 50/66/30 2/67/30 1/42/30 
s 2
f 50/66/31 51/61/32 3/62/32 2/67/31 
f 7/68/33 3/62/32 51/61/32 47/69/33 
f 47/69/33 46/33/34 5/34/34 7/68/33 
s 1
f 46/33/35 45/70/36 6/71/36 5/34/35 
f 4/41/37 6/71/36 45/70/36 44/46/37 
f 4/45/38 44/42/38 32/43/38 10/44/38 
# 50 polygons - 8 triangles

#
# object Furniture
#

#
# object Furniture
#

v  181.0467 505.3553 13.7273
v  188.9927 495.0000 13.7273
v  214.9734 510.0000 13.7273
v  202.2599 526.5685 13.7273
v  222.9655 490.7055 13.7273
v  193.9877 482.9409 13.7273
v  225.6914 470.0000 13.7273
v  195.6914 470.0000 13.7273
v  195.6914 80.0000 13.7273
v  225.6914 80.0000 13.7273
v  170.6914 513.3013 13.7273
v  185.6914 539.2820 13.7273
v  158.6324 518.2963 13.7273
v  166.3969 547.2741 13.7273
v  145.6914 520.0000 13.7273
v  145.6914 550.0000 13.7273
v  -144.3086 550.0000 13.7273
v  -144.3086 520.0000 13.7273
v  -165.0141 547.2741 13.7273
v  193.9877 67.0591 13.7273
v  222.9655 59.2945 13.7273
v  214.9734 40.0000 13.7273
v  188.9927 55.0000 13.7273
v  181.0467 44.6447 13.7273
v  202.2599 23.4315 13.7273
v  170.6914 36.6987 13.7273
v  166.3969 2.7259 13.7273
v  145.6914 0.0000 13.7273
v  158.6324 31.7037 13.7273
v  145.6914 30.0000 13.7273
v  185.6914 10.7180 13.7273
v  -144.3086 30.0000 13.7273
v  -144.3086 0.0000 13.7273
v  -184.3086 539.2820 13.7273
v  -157.2496 518.2963 13.7273
v  -179.6640 505.3553 13.7273
v  -169.3086 513.3013 13.7273
v  -200.8772 526.5685 13.7273
v  -187.6099 495.0000 13.7273
v  -213.5906 510.0000 13.7273
v  -192.6049 482.9409 13.7273
v  -221.5827 490.7055 13.7273
v  -194.3086 470.0000 13.7273
v  -224.3086 470.0000 13.7273
v  -224.3086 80.0000 13.7273
v  -194.3086 80.0000 13.7273
v  -221.5827 59.2945 13.7273
v  -169.3086 36.6987 13.7273
v  -179.6640 44.6447 13.7273
v  -200.8772 23.4315 13.7273
v  -165.0141 2.7259 13.7273
v  -184.3086 10.7180 13.7273
v  -157.2496 31.7037 13.7273
v  -192.6049 67.0591 13.7273
v  -213.5906 40.0000 13.7273
v  -187.6099 55.0000 13.7273
v  -200.8772 526.5685 -16.2727
v  145.6914 550.0000 -16.2727
v  -224.3086 470.0000 -16.2727
v  -213.5906 510.0000 -16.2727
v  -221.5827 490.7055 -16.2727
v  -184.3086 539.2820 -16.2727
v  -165.0141 547.2741 -16.2727
v  -144.3086 550.0000 -16.2727
v  -224.3086 80.0000 -16.2727
v  225.6914 80.0000 -16.2727
v  -144.3086 0.0000 -16.2727
v  -184.3086 10.7180 -16.2727
v  -200.8772 23.4315 -16.2727
v  -213.5906 40.0000 -16.2727
v  -221.5827 59.2945 -16.2727
v  -165.0141 2.7259 -16.2727
v  222.9655 490.7055 -16.2727
v  225.6914 470.0000 -16.2727
v  214.9734 510.0000 -16.2727
v  166.3969 547.2741 -16.2727
v  185.6914 539.2820 -16.2727
v  202.2599 526.5685 -16.2727
v  202.2599 23.4315 -16.2727
v  185.6914 10.7180 -16.2727
v  166.3969 2.7259 -16.2727
v  214.9734 40.0000 -16.2727
v  145.6914 0.0000 -16.2727
v  222.9655 59.2945 -16.2727
v  145.6914 520.0000 -6.2727
v  158.6324 518.2963 -6.2727
v  170.6914 513.3013 -6.2727
v  181.0467 505.3553 -6.2727
v  188.9927 495.0000 -6.2727
v  193.9877 482.9409 -6.2727
v  195.6914 470.0000 -6.2727
v  195.6914 80.0000 -6.2727
v  193.9877 67.0591 -6.2727
v  188.9927 55.0000 -6.2727
v  181.0467 44.6447 -6.2727
v  170.6914 36.6987 -6.2727
v  158.6324 31.7037 -6.2727
v  145.6914 30.0000 -6.2727
v  -144.3086 30.0000 -6.2727
v  -157.2496 31.7037 -6.2727
v  -169.3086 36.6987 -6.2727
v  -179.6640 44.6447 -6.2727
v  -187.6099 55.0000 -6.2727
v  -192.6049 67.0591 -6.2727
v  -194.3086 80.0000 -6.2727
v  -194.3086 470.0000 -6.2727
v  -192.6049 482.9409 -6.2727
v  -187.6099 495.0000 -6.2727
v  -179.6640 505.3553 -6.2727
v  -169.3086 513.3013 -6.2727
v  -157.2496 518.2963 -6.2727
v  -144.3086 520.0000 -6.2727
# 112 vertices

vn 0.0000 0.0000 1.0000
vn 0.0000 0.0000 -1.0000
vn 0.0000 1.0000 -0.0000
vn -0.1305 0.9914 -0.0000
vn -0.3827 0.9239 -0.0000
vn -0.5000 0.8660 -0.0000
vn -0.7071 0.7071 -0.0000
vn -0.7934 0.6088 -0.0000
vn -0.9239 0.3827 -0.0000
vn -0.9659 0.2588 -0.0000
vn -0.9914 0.1305 -0.0000
vn -1.0000 0.0000 -0.0000
vn -0.9914 -0.1305 -0.0000
vn -0.9239 -0.3827 -0.0000
vn -0.8660 -0.5000 -0.0000
vn -0.7934 -0.6088 -0.0000
vn -0.6088 -0.7934 -0.0000
vn -0.3827 -0.9239 -0.0000
vn -0.2588 -0.9659 -0.0000
vn -0.1305 -0.9914 -0.0000
vn 0.0000 -1.0000 -0.0000
vn 0.1305 -0.9914 -0.0000
vn 0.2588 -0.9659 -0.0000
vn 0.3827 -0.9239 -0.0000
vn 0.6088 -0.7934 -0.0000
vn 0.7934 -0.6088 -0.0000
vn 0.8660 -0.5000 -0.0000
vn 0.9239 -0.3827 -0.0000
vn 0.9914 -0.1305 -0.0000
vn 1.0000 0.0000 -0.0000
vn 0.9914 0.1305 -0.0000
vn 0.9659 0.2588 -0.0000
vn 0.9239 0.3827 -0.0000
vn 0.7071 0.7071 -0.0000
vn 0.7934 0.6088 -0.0000
vn 0.5000 0.8660 -0.0000
vn 0.3827 0.9239 -0.0000
vn 0.1305 0.9914 -0.0000
vn -0.5000 -0.8660 -0.0000
vn -0.9659 -0.2588 -0.0000
vn 0.9659 -0.2588 -0.0000
vn 0.5000 -0.8660 -0.0000
# 42 vertex normals

vt 0.9008 0.9188 0.0000
vt 0.9184 0.9000 0.0000
vt 0.9762 0.9273 0.0000
vt 0.9479 0.9574 0.0000
vt 0.9939 0.8922 0.0000
vt 0.9295 0.8781 0.0000
vt 1.0000 0.8545 0.0000
vt 0.9333 0.8545 0.0000
vt 0.9333 0.1455 0.0000
vt 1.0000 0.1455 0.0000
vt 0.8778 0.9333 0.0000
vt 0.9111 0.9805 0.0000
vt 0.8510 0.9424 0.0000
vt 0.8682 0.9950 0.0000
vt 0.8222 0.9455 0.0000
vt 0.8222 1.0000 0.0000
vt 0.1778 1.0000 0.0000
vt 0.1778 0.9455 0.0000
vt 0.1318 0.9950 0.0000
vt 0.9295 0.1219 0.0000
vt 0.9939 0.1078 0.0000
vt 0.9762 0.0727 0.0000
vt 0.9184 0.1000 0.0000
vt 0.9008 0.0812 0.0000
vt 0.9479 0.0426 0.0000
vt 0.8778 0.0667 0.0000
vt 0.8682 0.0050 0.0000
vt 0.8222 0.0000 0.0000
vt 0.8510 0.0576 0.0000
vt 0.8222 0.0545 0.0000
vt 0.9111 0.0195 0.0000
vt 0.1778 0.0545 0.0000
vt 0.1778 0.0000 0.0000
vt 0.0889 0.9805 0.0000
vt 0.1490 0.9424 0.0000
vt 0.0992 0.9188 0.0000
vt 0.1222 0.9333 0.0000
vt 0.0521 0.9574 0.0000
vt 0.0816 0.9000 0.0000
vt 0.0238 0.9273 0.0000
vt 0.0705 0.8781 0.0000
vt 0.0061 0.8922 0.0000
vt 0.0667 0.8545 0.0000
vt 0.0000 0.8545 0.0000
vt 0.0000 0.1455 0.0000
vt 0.0667 0.1455 0.0000
vt 0.0061 0.1078 0.0000
vt 0.1222 0.0667 0.0000
vt 0.0992 0.0812 0.0000
vt 0.0521 0.0426 0.0000
vt 0.1318 0.0050 0.0000
vt 0.0889 0.0195 0.0000
vt 0.1490 0.0576 0.0000
vt 0.0705 0.1219 0.0000
vt 0.0238 0.0727 0.0000
vt 0.0816 0.1000 0.0000
vt 1.0000 0.0000 0.0000
vt 1.0000 1.0000 0.0000
vt 0.0000 1.0000 0.0000
vt 0.0000 0.0000 0.0000
vt 1.0000 1.0000 1.0000
vt 0.7412 1.0000 0.9659
vt 0.7412 0.0000 0.9659
vt 1.0000 0.0000 1.0000
vt 0.5000 1.0000 0.8660
vt 0.5000 0.0000 0.8660
vt 1.0000 0.7071 0.2929
vt 0.0000 0.7071 0.2929
vt 0.0000 0.5000 0.1340
vt 1.0000 0.5000 0.1340
vt 0.0000 0.2588 0.0341
vt 1.0000 0.2588 0.0341
vt 0.0000 0.7412 0.0341
vt 1.0000 0.7412 0.0341
vt 0.7071 0.0000 0.2929
vt 0.7071 1.0000 0.2929
vt 0.5000 1.0000 0.1340
vt 0.5000 0.0000 0.1340
vt 0.2588 1.0000 0.0341
vt 0.2588 0.0000 0.0341
vt 0.7412 1.0000 0.0341
vt 0.7412 0.0000 0.0341
vt 0.0000 0.2929 0.7071
vt 1.0000 0.2929 0.7071
vt 1.0000 0.5000 0.8660
vt 0.0000 0.5000 0.8660
vt 1.0000 0.7412 0.9659
vt 0.0000 0.7412 0.9659
vt 0.0000 1.0000 1.0000
vt 1.0000 0.2588 0.9659
vt 0.0000 0.2588 0.9659
vt 0.0000 0.0000 1.0000
vt 0.7071 0.0000 0.7071
vt 0.7071 1.0000 0.7071
vt 0.2588 0.0000 0.9659
vt 0.2588 1.0000 0.9659
vt 0.0000 0.7071 0.7071
vt 1.0000 0.7071 0.7071
vt 1.0000 0.2929 0.2929
vt 0.0000 0.2929 0.2929
vt 1.0000 0.1020 0.0000
vt 0.0000 0.1020 0.0000
vt 0.8718 0.0000 0.0000
vt 0.9624 0.0299 0.0000
vt 0.9050 0.0035 0.0000
vt 0.9359 0.0137 0.0000
vt 0.9956 0.0756 0.0000
vt 0.9828 0.0510 0.0000
vt 0.1282 0.0000 0.0000
vt 0.0044 0.0756 0.0000
vt 0.0641 0.0137 0.0000
vt 0.0950 0.0035 0.0000
vt 0.0172 0.0510 0.0000
vt 0.0376 0.0299 0.0000
vt 0.0000 0.8980 0.0000
vt 1.0000 0.8980 0.0000
vt 0.9956 0.9244 0.0000
vt 0.8718 1.0000 0.0000
vt 0.9828 0.9490 0.0000
vt 0.9624 0.9701 0.0000
vt 0.9359 0.9863 0.0000
vt 0.9050 0.9965 0.0000
vt 0.0172 0.9490 0.0000
vt 0.0044 0.9244 0.0000
vt 0.0376 0.9701 0.0000
vt 0.1282 1.0000 0.0000
vt 0.0641 0.9863 0.0000
vt 0.0950 0.9965 0.0000
# 128 texture coords

g Furniture
usemtl 14___Default
s 1
f 57/72/39 58/73/39 59/74/39 60/75/39 
f 61/76/39 59/74/39 58/73/39 62/77/39 
f 63/78/39 61/76/39 62/77/39 64/79/39 
f 63/78/39 64/79/39 65/80/39 66/81/39 
f 67/82/39 57/72/39 68/83/39 69/84/39 
f 68/83/39 70/85/39 71/86/39 69/84/39 
f 70/85/39 72/87/39 73/88/39 71/86/39 
f 57/72/39 60/75/39 68/83/39 
f 74/89/39 71/86/39 73/88/39 75/90/39 
f 66/81/39 65/80/39 76/91/39 77/92/39 
f 78/93/39 77/92/39 79/94/39 80/95/39 
f 81/96/39 78/93/39 80/95/39 82/97/39 
f 77/92/39 76/91/39 79/94/39 
f 83/98/39 81/96/39 82/97/39 84/99/39 
f 82/97/39 85/100/39 86/101/39 84/99/39 
f 87/102/39 81/96/39 83/98/39 
f 84/99/39 86/101/39 88/103/39 89/104/39 
f 75/90/39 90/105/39 91/106/39 74/89/39 
f 90/105/39 92/107/39 93/108/39 91/106/39 
f 94/109/39 95/110/39 92/107/39 90/105/39 
f 96/111/39 97/112/39 95/110/39 94/109/39 
f 96/111/39 98/113/39 99/114/39 97/112/39 
f 100/115/39 101/116/39 99/114/39 98/113/39 
f 102/117/39 99/114/39 101/116/39 103/118/39 
f 104/119/39 105/120/39 106/121/39 107/122/39 
f 106/121/39 108/123/39 107/122/39 
f 109/124/39 104/119/39 107/122/39 88/103/39 
f 89/104/39 88/103/39 107/122/39 
f 110/125/39 102/117/39 103/118/39 111/126/39 
f 105/120/39 112/127/39 111/126/39 106/121/39 
f 111/126/39 112/127/39 110/125/39 
f 113/75/40 114/88/40 115/78/40 116/74/40 
f 115/78/40 117/76/40 116/74/40 
f 118/83/40 119/85/40 120/87/40 113/75/40 
f 113/75/40 120/87/40 114/88/40 
f 121/81/40 115/78/40 122/116/40 123/99/40 
f 124/102/40 125/96/40 126/93/40 121/81/40 
f 126/93/40 127/92/40 121/81/40 
f 123/99/40 128/98/40 124/102/40 121/81/40 
f 129/113/40 130/115/40 114/88/40 131/111/40 
f 114/88/40 132/90/40 133/105/40 131/111/40 
f 133/105/40 134/109/40 131/111/40 
f 130/115/40 122/116/40 115/78/40 114/88/40 
f 135/121/40 136/123/40 137/122/40 138/126/40 
f 137/122/40 139/104/40 122/116/40 140/118/40 
f 140/118/40 138/126/40 137/122/40 
f 123/99/40 122/116/40 139/104/40 
f 72/128/41 114/129/41 120/130/41 73/131/41 
f 120/132/42 119/133/42 75/134/42 73/135/42 
s 2
f 119/133/43 118/136/44 90/137/44 75/134/43 
f 94/138/45 90/137/44 118/136/44 113/139/45 
f 113/139/45 116/140/46 96/141/46 94/138/45 
s 1
f 116/140/47 117/142/48 98/143/48 96/141/47 
f 100/128/49 98/143/48 117/142/48 115/131/49 
f 100/129/50 115/130/50 121/131/50 101/128/50 
f 121/130/51 127/144/51 103/145/51 101/129/51 
s 2
f 127/144/52 126/140/53 111/141/53 103/145/52 
f 106/146/54 111/141/53 126/140/53 125/147/54 
s 1
f 125/147/55 124/148/55 108/149/55 106/146/55 
s 2
f 124/148/56 128/150/57 107/151/57 108/149/56 
f 89/131/58 107/151/57 128/150/57 123/130/58 
s 1
f 89/128/59 123/129/59 139/130/59 84/131/59 
f 139/129/60 137/152/61 83/153/61 84/128/60 
f 137/152/61 136/148/62 87/149/62 83/153/61 
s 2
f 81/154/63 87/149/63 136/148/63 135/155/63 
s 1
f 135/155/64 138/156/65 78/157/65 81/154/64 
f 138/156/65 140/158/66 77/159/66 78/157/65 
s 2
f 66/160/67 77/159/67 140/158/67 122/132/67 
s 1
f 66/131/68 122/128/68 130/129/68 63/130/68 
f 130/135/69 129/161/70 61/162/70 63/163/69 
f 129/161/70 131/156/71 59/157/71 61/162/70 
s 2
f 60/164/72 59/157/73 131/156/73 134/165/72 
f 134/165/72 133/136/74 68/137/74 60/164/72 
f 70/166/75 68/137/74 133/136/74 132/167/75 
s 1
f 72/163/76 70/166/76 132/167/76 114/160/76 
f 69/134/58 71/135/58 141/132/58 142/133/58 
s 2
f 67/137/77 69/134/56 142/133/56 143/136/77 
f 143/136/77 144/168/55 57/169/55 67/137/77 
s 1
f 62/161/78 58/156/53 145/157/53 146/162/78 
f 64/135/51 62/161/78 146/162/78 147/163/51 
f 144/168/54 145/157/53 58/156/53 57/169/54 
f 64/129/50 147/130/50 148/131/50 65/128/50 
f 76/158/48 65/132/49 148/160/49 149/159/48 
f 79/156/47 76/158/48 149/159/48 150/157/47 
s 2
f 150/157/46 151/147/45 80/146/45 79/156/46 
f 85/151/43 82/149/44 152/148/44 153/150/43 
s 1
f 86/131/42 85/151/42 153/150/42 154/130/42 
s 2
f 151/147/45 152/148/44 82/149/44 80/146/45 
s 1
f 86/128/41 154/129/41 155/130/41 88/131/41 
f 109/153/76 88/128/76 155/129/76 156/152/76 
s 2
f 104/149/74 109/153/75 156/152/75 157/148/74 
f 157/148/74 158/170/72 105/171/72 104/149/74 
s 1
f 110/144/70 112/140/71 159/141/71 160/145/70 
f 102/130/69 110/144/70 160/145/70 161/129/69 
s 2
f 158/170/72 159/141/73 112/140/73 105/171/72 
s 1
f 102/131/68 161/128/68 162/129/68 99/130/68 
f 97/142/79 99/131/67 162/128/67 163/143/79 
f 95/140/65 97/142/79 163/143/79 164/141/65 
f 164/141/65 165/165/64 92/164/64 95/140/65 
s 2
f 91/166/62 93/137/80 166/136/80 167/167/62 
s 1
f 74/163/60 91/166/60 167/167/60 168/160/60 
s 2
f 165/165/63 166/136/80 93/137/80 92/164/63 
s 1
f 74/128/59 168/129/59 141/130/59 71/131/59 
f 148/172/39 161/173/39 154/174/39 151/175/39 
f 154/174/39 153/176/39 152/177/39 151/175/39 
f 149/178/39 148/172/39 151/175/39 150/179/39 
f 155/180/39 154/174/39 161/173/39 160/181/39 
f 157/182/39 156/183/39 155/180/39 159/184/39 
f 158/185/39 157/182/39 159/184/39 
f 160/181/39 159/184/39 155/180/39 
f 162/186/39 161/173/39 148/172/39 147/187/39 
f 147/187/39 146/188/39 141/189/39 162/186/39 
f 146/188/39 145/190/39 144/191/39 141/189/39 
f 141/189/39 144/191/39 143/192/39 142/193/39 
f 164/194/39 163/195/39 162/186/39 165/196/39 
f 165/196/39 141/189/39 168/197/39 166/198/39 
f 168/197/39 167/199/39 166/198/39 
f 165/196/39 162/186/39 141/189/39 
# 102 polygons - 16 triangles

