# 3ds Max Wavefront OBJ Exporter v0.97b - (c)2007 guruware
# 创建的文件:04.08.2017 10:55:30

mtllib IKE160238.mtl

#
# object Generic_Models
#

v  -315.0000 979.9999 80.0000
v  315.0000 979.9999 80.0000
v  315.0000 979.9999 -80.0000
v  -315.0000 979.9999 -80.0000
v  315.0000 954.7200 -80.0000
v  315.0000 954.7200 80.0000
v  -315.0000 954.7200 80.0000
v  -315.0000 954.7200 -80.0000
# 8 vertices

vn 0.0000 1.0000 -0.0000
vn 0.0000 -1.0000 -0.0000
vn -1.0000 0.0000 -0.0000
vn 0.0000 0.0000 1.0000
vn 1.0000 0.0000 -0.0000
vn 0.0000 0.0000 -1.0000
# 6 vertex normals

vt 0.0000 0.0000 0.0000
vt 1.0000 0.0000 0.0000
vt 1.0000 1.0000 0.0000
vt 0.0000 1.0000 0.0000
vt -0.0000 1.0000 0.0000
vt -0.0000 0.0000 0.0000
# 6 texture coords

g Generic_Models
usemtl 01___Default
s 1
f 1/1/1 2/2/1 3/3/1 4/4/1 
f 5/5/2 6/6/2 7/2/2 8/3/2 
f 4/4/3 8/1/3 7/2/3 1/3/3 
f 1/4/4 7/1/4 6/2/4 2/3/4 
f 2/4/5 6/1/5 5/2/5 3/3/5 
f 3/4/6 5/1/6 8/2/6 4/3/6 
# 6 polygons

#
# object Generic_Models
#

v  -315.0000 25.2800 80.0000
v  315.0000 25.2800 80.0000
v  315.0000 25.2800 -80.0000
v  -315.0000 25.2800 -80.0000
v  315.0000 0.0000 -80.0000
v  315.0000 0.0000 80.0000
v  -315.0000 0.0000 80.0000
v  -315.0000 0.0000 -80.0000
# 8 vertices

vn 0.0000 1.0000 -0.0000
vn 0.0000 -1.0000 -0.0000
vn -1.0000 0.0000 -0.0000
vn 0.0000 0.0000 1.0000
vn 1.0000 0.0000 -0.0000
vn 0.0000 0.0000 -1.0000
# 6 vertex normals

vt 0.0000 0.0000 0.0000
vt 1.0000 0.0000 0.0000
vt 1.0000 1.0000 0.0000
vt 0.0000 1.0000 0.0000
vt -0.0000 1.0000 0.0000
vt -0.0000 0.0000 0.0000
# 6 texture coords

g Generic_Models
usemtl 01___Default
s 1
f 9/7/7 10/8/7 11/9/7 12/10/7 
f 13/11/8 14/12/8 15/8/8 16/9/8 
f 12/10/9 16/7/9 15/8/9 9/9/9 
f 9/10/10 15/7/10 14/8/10 10/9/10 
f 10/10/11 14/7/11 13/8/11 11/9/11 
f 11/10/12 13/7/12 16/8/12 12/9/12 
# 6 polygons

#
# object Generic_Models
#

v  290.0000 252.6604 49.4669
v  -290.0000 252.6604 49.4669
v  -290.0000 238.0036 49.4669
v  290.0000 238.0036 49.4669
v  -290.0000 238.0036 -70.0000
v  -290.0000 252.6604 -70.0000
v  290.0000 252.6604 -70.0000
v  290.0000 238.0036 -70.0000
# 8 vertices

vn 0.0000 0.0000 1.0000
vn 0.0000 0.0000 -1.0000
vn 1.0000 0.0000 -0.0000
vn 0.0000 1.0000 -0.0000
vn -1.0000 0.0000 -0.0000
vn 0.0000 -1.0000 -0.0000
# 6 vertex normals

vt 1.0000 1.0000 0.0000
vt 0.0000 1.0000 0.0000
vt 0.0000 0.0000 0.0000
vt 1.0000 0.0000 0.0000
# 4 texture coords

g Generic_Models
usemtl 01___Default
s 1
f 17/13/13 18/14/13 19/15/13 20/16/13 
f 21/16/14 22/13/14 23/14/14 24/15/14 
f 20/15/15 24/16/15 23/13/15 17/14/15 
f 17/16/16 23/13/16 22/14/16 18/15/16 
f 18/13/17 22/14/17 21/15/17 19/16/17 
f 19/16/18 21/13/18 24/14/18 20/15/18 
# 6 polygons

#
# object Generic_Models
#

v  239.0000 893.7201 49.4669
v  239.0000 843.7201 49.4669
v  -239.0000 843.7201 49.4669
v  -239.0000 893.7201 49.4669
v  -238.0000 844.7201 60.0000
v  238.0000 844.7201 60.0000
v  238.0000 892.7202 60.0000
v  -238.0000 892.7202 60.0000
# 8 vertices

vn 0.0000 0.0000 -1.0000
vn 0.0000 0.0000 1.0000
vn 0.0000 0.9955 0.0945
vn 0.9955 0.0000 0.0945
vn 0.0000 -0.9955 0.0945
vn -0.9955 0.0000 0.0945
# 6 vertex normals

vt -0.0000 1.0000 0.0000
vt -0.0000 0.0000 0.0000
vt 1.0000 0.0000 0.0000
vt 1.0000 1.0000 0.0000
vt 0.0000 0.0000 0.0000
vt 0.0000 1.0000 0.0000
vt 0.9979 0.0000 0.0000
vt 1.0000 1.0000 1.0000
vt 0.0000 1.0000 1.0000
vt 0.0021 0.0000 0.0000
vt 0.0000 0.0200 0.0000
vt 1.0000 0.0000 1.0000
vt 0.0000 0.9800 0.0000
vt 0.0021 1.0000 0.0000
vt 0.0000 0.0000 1.0000
vt 0.9979 1.0000 0.0000
vt 1.0000 0.9800 0.0000
vt 1.0000 0.0200 0.0000
# 18 texture coords

g Generic_Models
usemtl 01___Default
s 1
f 25/17/19 26/18/19 27/19/19 28/20/19 
f 29/21/20 30/19/20 31/20/20 32/22/20 
f 31/23/21 25/24/21 28/25/21 32/26/21 
f 30/27/22 26/28/22 25/24/22 31/29/22 
f 29/30/23 27/31/23 26/28/23 30/32/23 
f 32/33/24 28/25/24 27/31/24 29/34/24 
# 6 polygons

#
# object Generic_Models
#

v  -239.0000 225.2643 49.4669
v  -289.0000 225.2643 49.4669
v  -289.0000 893.7044 49.4669
v  -239.0000 893.7044 49.4669
v  -288.0000 892.7045 60.0000
v  -288.0000 226.2643 60.0000
v  -240.0000 226.2643 60.0000
v  -240.0000 892.7045 60.0000
# 8 vertices

vn 0.0000 0.0000 -1.0000
vn 0.0000 0.0000 1.0000
vn 0.9955 0.0000 0.0945
vn 0.0000 -0.9955 0.0945
vn -0.9955 0.0000 0.0945
vn 0.0000 0.9955 0.0945
# 6 vertex normals

vt 0.0000 0.0000 0.0000
vt 1.0000 0.0000 0.0000
vt 1.0000 1.0000 0.0000
vt 0.0000 1.0000 0.0000
vt 0.0000 0.0015 0.0000
vt 1.0000 0.0000 1.0000
vt 1.0000 1.0000 1.0000
vt 0.0000 0.9985 0.0000
vt 0.9800 0.0000 1.0000
vt 0.0200 0.0000 1.0000
vt 1.0000 0.9985 1.0000
vt 0.0000 1.0000 1.0000
vt 0.0000 0.0000 1.0000
vt 1.0000 0.0015 0.0000
vt 0.9800 0.0000 0.0000
vt 0.0200 0.0000 0.0000
# 16 texture coords

g Generic_Models
usemtl 01___Default
s 1
f 33/35/25 34/36/25 35/37/25 36/38/25 
f 37/38/26 38/35/26 39/36/26 40/37/26 
f 39/39/27 33/40/27 36/41/27 40/42/27 
f 38/43/28 34/37/28 33/38/28 39/44/28 
f 37/45/29 35/46/29 34/47/29 38/48/29 
f 40/49/30 36/41/30 35/46/30 37/50/30 
# 6 polygons

#
# object Generic_Models
#

v  289.0000 893.7044 49.4669
v  289.0000 225.2643 49.4669
v  239.0000 225.2643 49.4669
v  239.0000 893.7044 49.4669
v  240.0000 226.2643 60.0000
v  288.0000 226.2643 60.0000
v  288.0000 892.7045 60.0000
v  240.0000 892.7045 60.0000
# 8 vertices

vn 0.0000 0.0000 -1.0000
vn 0.0000 0.0000 1.0000
vn -0.9955 0.0000 0.0945
vn 0.0000 -0.9955 0.0945
vn 0.9955 0.0000 0.0945
vn 0.0000 0.9955 0.0945
# 6 vertex normals

vt 0.0000 1.0000 0.0000
vt 0.0000 0.0000 0.0000
vt 1.0000 0.0000 0.0000
vt 1.0000 1.0000 0.0000
vt 1.0000 0.9985 1.0000
vt 0.0000 1.0000 1.0000
vt 0.0000 0.0000 1.0000
vt 1.0000 0.0015 0.0000
vt 0.9800 0.0000 1.0000
vt 0.0200 0.0000 1.0000
vt 0.0000 0.0015 0.0000
vt 1.0000 0.0000 1.0000
vt 1.0000 1.0000 1.0000
vt 0.0000 0.9985 0.0000
vt 0.9800 0.0000 0.0000
vt 0.0200 0.0000 0.0000
# 16 texture coords

g Generic_Models
usemtl 01___Default
s 1
f 41/51/31 42/52/31 43/53/31 44/54/31 
f 45/52/32 46/53/32 47/54/32 48/51/32 
f 48/55/33 44/56/33 43/57/33 45/58/33 
f 45/59/34 43/54/34 42/51/34 46/60/34 
f 46/61/35 42/62/35 41/63/35 47/64/35 
f 47/65/36 41/63/36 44/56/36 48/66/36 
# 6 polygons

#
# object Generic_Models
#

v  239.0000 275.2643 49.4669
v  239.0000 225.2643 49.4669
v  -239.0000 225.2643 49.4669
v  -239.0000 275.2643 49.4669
v  -238.0000 226.2643 60.0000
v  238.0000 226.2643 60.0000
v  238.0000 274.2643 60.0000
v  -238.0000 274.2643 60.0000
# 8 vertices

vn 0.0000 0.0000 -1.0000
vn 0.0000 0.0000 1.0000
vn 0.0000 0.9955 0.0945
vn 0.9955 0.0000 0.0945
vn 0.0000 -0.9955 0.0945
vn -0.9955 0.0000 0.0945
# 6 vertex normals

vt -0.0000 1.0000 0.0000
vt -0.0000 0.0000 0.0000
vt 1.0000 0.0000 0.0000
vt 1.0000 1.0000 0.0000
vt 0.0000 0.0000 0.0000
vt 0.0000 1.0000 0.0000
vt 0.9979 0.0000 0.0000
vt 1.0000 1.0000 1.0000
vt 0.0000 1.0000 1.0000
vt 0.0021 0.0000 0.0000
vt 0.0000 0.0200 0.0000
vt 1.0000 0.0000 1.0000
vt 0.0000 0.9800 0.0000
vt 0.0021 1.0000 0.0000
vt 0.0000 0.0000 1.0000
vt 0.9979 1.0000 0.0000
vt 1.0000 0.9800 1.0000
vt 1.0000 0.0200 0.0000
# 18 texture coords

g Generic_Models
usemtl 01___Default
s 1
f 49/67/37 50/68/37 51/69/37 52/70/37 
f 53/71/38 54/69/38 55/70/38 56/72/38 
f 55/73/39 49/74/39 52/75/39 56/76/39 
f 54/77/40 50/78/40 49/74/40 55/79/40 
f 53/80/41 51/81/41 50/78/41 54/82/41 
f 56/83/42 52/75/42 51/81/42 53/84/42 
# 6 polygons

#
# object Generic_Models
#

v  240.0000 844.7200 49.4669
v  -240.0000 844.7200 49.4669
v  -240.0000 274.2643 49.4669
v  240.0000 274.2643 49.4669
v  -240.0000 274.2643 46.3224
v  -240.0000 844.7200 46.3224
v  240.0000 844.7200 46.3224
v  240.0000 274.2643 46.3224
# 8 vertices

vn 0.0000 0.0000 1.0000
vn 0.0000 0.0000 -1.0000
vn 1.0000 0.0000 -0.0000
vn 0.0000 1.0000 -0.0000
vn -1.0000 0.0000 -0.0000
vn 0.0000 -1.0000 -0.0000
# 6 vertex normals

vt 1.0000 1.0000 0.0000
vt 0.0000 1.0000 0.0000
vt 0.0000 0.0000 0.0000
vt 1.0000 0.0000 0.0000
# 4 texture coords

g Generic_Models
usemtl wire_000000000
s 1
f 57/85/43 58/86/43 59/87/43 60/88/43 
f 61/88/44 62/85/44 63/86/44 64/87/44 
f 60/87/45 64/88/45 63/85/45 57/86/45 
f 57/88/46 63/85/46 62/86/46 58/87/46 
f 58/85/47 62/86/47 61/87/47 59/88/47 
f 59/88/48 61/85/48 64/86/48 60/87/48 
# 6 polygons

#
# object Generic_Models
#

v  290.0000 25.2800 -70.0000
v  290.0000 894.7201 -70.0000
v  -290.0000 894.7201 -70.0000
v  -290.0000 25.2800 -70.0000
v  -305.0000 954.7201 -80.0000
v  305.0000 954.7201 -80.0000
v  305.0000 25.2800 -80.0000
v  -305.0000 25.2800 -80.0000
v  -290.0000 25.2800 60.0000
v  -305.0000 25.2800 60.0000
v  305.0000 25.2800 60.0000
v  290.0000 25.2800 60.0000
v  290.0000 894.7201 60.0000
v  305.0000 954.7201 60.0000
v  -290.0000 894.7201 60.0000
v  -305.0000 954.7201 60.0000
# 16 vertices

vn 0.0000 0.0000 1.0000
vn 0.0000 0.0000 -1.0000
vn 0.0000 -1.0000 -0.0000
vn 1.0000 0.0000 -0.0000
vn 0.0000 1.0000 -0.0000
vn -1.0000 0.0000 -0.0000
# 6 vertex normals

vt 1.0000 0.0000 0.0000
vt 1.0000 1.0000 0.0000
vt 0.0000 1.0000 0.0000
vt 0.0000 0.0000 0.0000
vt 0.9754 0.9286 0.0000
vt 0.9754 0.0000 0.0000
vt 0.0246 0.0000 0.0000
vt 0.0246 0.9286 0.0000
vt 0.9754 0.9354 0.0000
vt 0.0246 0.9354 0.0000
vt -0.0000 1.0000 0.0000
vt -0.0000 0.0000 0.0000
# 12 texture coords

g Generic_Models
usemtl 01___Default
s 1
f 65/89/49 66/90/49 67/91/49 68/92/49 
f 69/90/50 70/91/50 71/92/50 72/89/50 
f 68/93/51 73/94/51 74/89/51 72/90/51 
f 75/92/51 76/95/51 65/96/51 71/91/51 
f 65/96/51 68/93/51 72/90/51 71/91/51 
f 77/97/49 76/94/49 75/89/49 78/90/49 
f 74/92/49 73/95/49 79/98/49 80/91/49 
f 79/98/49 77/97/49 78/90/49 80/91/49 
f 73/92/52 68/89/52 67/90/52 79/91/52 
f 79/89/51 67/90/51 66/91/51 77/92/51 
f 78/89/53 70/90/53 69/91/53 80/92/53 
f 77/90/54 66/91/54 65/92/54 76/89/54 
f 75/92/52 71/89/52 70/90/52 78/91/52 
f 80/90/54 69/99/54 72/100/54 74/89/54 
# 14 polygons

