# 3ds Max Wavefront OBJ Exporter v0.97b - (c)2007 guruware
# 创建的文件:20.07.2017 09:49:11

mtllib IKE160158.mtl

#
# object Generic_Models
#

#
# object Generic_Models
#

v  976.6575 740.0001 -93.7955
v  976.6575 740.0001 -493.7955
v  -593.3425 740.0001 -93.7955
v  -593.3425 740.0001 -493.7955
v  976.6575 720.0001 -93.7955
v  -593.3425 720.0001 -93.7955
v  976.6575 720.0001 -493.7955
v  -593.3425 720.0001 -493.7955
# 8 vertices

vn 0.0000 1.0000 -0.0000
vn 0.0000 -1.0000 -0.0000
vn 0.0000 0.0000 -1.0000
vn -1.0000 0.0000 -0.0000
vn 0.0000 0.0000 1.0000
vn 1.0000 0.0000 -0.0000
# 6 vertex normals

vt 1.0000 0.0000 0.0000
vt 1.0000 1.0000 0.0000
vt 0.0000 0.0000 0.0000
vt 0.0000 1.0000 0.0000
# 4 texture coords

g Generic_Models
usemtl 1
s 1
f 1/1/1 2/2/1 3/3/1 
f 2/2/1 4/4/1 3/3/1 
f 5/3/2 6/1/2 7/4/2 
f 6/1/2 8/2/2 7/4/2 
f 4/2/3 2/4/3 8/1/3 
f 2/4/3 7/3/3 8/1/3 
f 3/2/4 4/4/4 6/1/4 
f 4/4/4 8/3/4 6/1/4 
f 1/2/5 3/4/5 5/1/5 
f 3/4/5 6/3/5 5/1/5 
f 2/2/6 1/4/6 7/1/6 
f 1/4/6 5/3/6 7/1/6 
# 12 faces

#
# object Generic_Models
#

#
# object Generic_Models
#

v  -513.3425 0.0000 -113.7955
v  -513.3425 720.0000 -113.7955
v  -553.3425 0.0000 -113.7955
v  -553.3425 720.0000 -113.7955
v  -553.3425 0.0000 -473.7955
v  -553.3425 720.0000 -473.7955
v  -513.3425 0.0000 -473.7955
v  -513.3425 720.0000 -473.7955
# 8 vertices

vn 0.0000 0.0000 1.0000
vn 0.0000 0.0000 -1.0000
vn 0.0000 1.0000 -0.0000
vn -1.0000 0.0000 -0.0000
vn 0.0000 -1.0000 -0.0000
vn 1.0000 0.0000 -0.0000
# 6 vertex normals

vt 1.0000 0.0000 0.0000
vt 1.0000 1.0000 0.0000
vt 0.0000 0.0000 0.0000
vt 0.0000 1.0000 0.0000
# 4 texture coords

g Generic_Models
usemtl 1
s 1
f 9/5/7 10/6/7 11/7/7 
f 10/6/7 12/8/7 11/7/7 
f 13/5/8 14/6/8 15/7/8 
f 14/6/8 16/8/8 15/7/8 
f 14/8/9 12/7/9 16/6/9 
f 12/7/9 10/5/9 16/6/9 
f 11/5/10 12/6/10 13/7/10 
f 12/6/10 14/8/10 13/7/10 
f 15/8/11 9/7/11 13/6/11 
f 9/7/11 11/5/11 13/6/11 
f 10/8/12 9/7/12 16/6/12 
f 9/7/12 15/5/12 16/6/12 
# 12 faces

#
# object Generic_Models
#

#
# object Generic_Models
#

v  936.6575 0.0000 -113.7955
v  936.6575 720.0000 -113.7955
v  896.6575 0.0000 -113.7955
v  896.6575 720.0000 -113.7955
v  936.6575 720.0000 -473.7955
v  936.6575 0.0000 -473.7955
v  896.6575 720.0000 -473.7955
v  896.6575 0.0000 -473.7955
# 8 vertices

vn 0.0000 0.0000 1.0000
vn 0.0000 0.0000 -1.0000
vn 0.0000 1.0000 -0.0000
vn 1.0000 0.0000 -0.0000
vn 0.0000 -1.0000 -0.0000
vn -1.0000 0.0000 -0.0000
# 6 vertex normals

vt 1.0000 0.0000 0.0000
vt 1.0000 1.0000 0.0000
vt 0.0000 0.0000 0.0000
vt 0.0000 1.0000 0.0000
# 4 texture coords

g Generic_Models
usemtl 1
s 1
f 17/9/13 18/10/13 19/11/13 
f 18/10/13 20/12/13 19/11/13 
f 21/12/14 22/11/14 23/10/14 
f 22/11/14 24/9/14 23/10/14 
f 23/12/15 20/11/15 21/10/15 
f 20/11/15 18/9/15 21/10/15 
f 18/12/16 17/11/16 21/10/16 
f 17/11/16 22/9/16 21/10/16 
f 22/12/17 17/11/17 24/10/17 
f 17/11/17 19/9/17 24/10/17 
f 19/9/18 20/10/18 24/11/18 
f 20/10/18 23/12/18 24/11/18 
# 12 faces

#
# object Generic_Models
#

#
# object Generic_Models
#

v  -513.3425 680.0001 -113.7955
v  896.6575 680.0001 -113.7955
v  -513.3425 720.0001 -113.7955
v  896.6575 720.0001 -113.7955
v  896.6575 680.0001 -473.7955
v  -513.3425 680.0001 -473.7955
v  896.6575 720.0001 -473.7955
v  -513.3425 720.0001 -473.7955
# 8 vertices

vn 0.0000 0.0000 1.0000
vn 0.0000 0.0000 -1.0000
vn 0.0000 1.0000 -0.0000
vn -1.0000 0.0000 -0.0000
vn 0.0000 -1.0000 -0.0000
vn 1.0000 0.0000 -0.0000
# 6 vertex normals

vt 0.0000 0.0000 0.0000
vt 1.0000 0.0000 0.0000
vt 0.0000 1.0000 0.0000
vt 1.0000 1.0000 0.0000
# 4 texture coords

g Generic_Models
usemtl 1
s 1
f 25/13/19 26/14/19 27/15/19 
f 26/14/19 28/16/19 27/15/19 
f 29/13/20 30/14/20 31/15/20 
f 30/14/20 32/16/20 31/15/20 
f 27/13/21 28/14/21 32/15/21 
f 28/14/21 31/16/21 32/15/21 
f 30/13/22 25/14/22 32/15/22 
f 25/14/22 27/16/22 32/15/22 
f 26/13/23 25/14/23 29/15/23 
f 25/14/23 30/16/23 29/15/23 
f 31/16/24 28/15/24 29/14/24 
f 28/15/24 26/13/24 29/14/24 
# 12 faces

#
# object Generic_Models
#

#
# object Generic_Models
#

v  -513.3425 80.0000 -113.7955
v  896.6575 80.0000 -113.7955
v  -513.3425 120.0000 -113.7955
v  896.6575 120.0000 -113.7955
v  -513.3425 120.0000 -473.7955
v  896.6575 120.0000 -473.7955
v  -513.3425 80.0000 -473.7955
v  896.6575 80.0000 -473.7955
# 8 vertices

vn 0.0000 0.0000 1.0000
vn 0.0000 0.0000 -1.0000
vn 0.0000 -1.0000 -0.0000
vn -1.0000 0.0000 -0.0000
vn 0.0000 1.0000 -0.0000
vn 1.0000 0.0000 -0.0000
# 6 vertex normals

vt 0.0000 0.0000 0.0000
vt 1.0000 0.0000 0.0000
vt 0.0000 1.0000 0.0000
vt 1.0000 1.0000 0.0000
# 4 texture coords

g Generic_Models
usemtl 1
s 1
f 33/17/25 34/18/25 35/19/25 
f 34/18/25 36/20/25 35/19/25 
f 37/20/26 38/19/26 39/18/26 
f 38/19/26 40/17/26 39/18/26 
f 34/17/27 33/18/27 40/19/27 
f 33/18/27 39/20/27 40/19/27 
f 39/17/28 33/18/28 37/19/28 
f 33/18/28 35/20/28 37/19/28 
f 35/17/29 36/18/29 37/19/29 
f 36/18/29 38/20/29 37/19/29 
f 38/20/30 36/19/30 40/18/30 
f 36/19/30 34/17/30 40/18/30 
# 12 faces

#
# object Generic_Models
#

#
# object Generic_Models
#

v  181.6575 500.0000 -113.7955
v  -513.3425 500.0000 -113.7955
v  181.6575 480.0000 -113.7955
v  -513.3425 480.0000 -113.7955
v  181.6575 480.0000 -473.7955
v  -513.3425 480.0000 -473.7955
v  181.6575 500.0000 -473.7955
v  -513.3425 500.0000 -473.7955
# 8 vertices

vn 0.0000 0.0000 1.0000
vn 0.0000 0.0000 -1.0000
vn -1.0000 0.0000 -0.0000
vn 0.0000 -1.0000 -0.0000
vn 1.0000 0.0000 -0.0000
vn 0.0000 1.0000 -0.0000
# 6 vertex normals

vt 1.0000 1.0000 0.0000
vt 0.0000 1.0000 0.0000
vt 1.0000 0.0000 0.0000
vt 0.0000 0.0000 0.0000
# 4 texture coords

g Generic_Models
usemtl 1
s 1
f 41/21/31 42/22/31 43/23/31 
f 42/22/31 44/24/31 43/23/31 
f 45/24/32 46/23/32 47/22/32 
f 46/23/32 48/21/32 47/22/32 
f 46/24/33 44/23/33 48/22/33 
f 44/23/33 42/21/33 48/22/33 
f 45/22/34 43/24/34 46/21/34 
f 43/24/34 44/23/34 46/21/34 
f 41/22/35 43/24/35 47/21/35 
f 43/24/35 45/23/35 47/21/35 
f 48/22/36 42/24/36 47/21/36 
f 42/24/36 41/23/36 47/21/36 
# 12 faces

#
# object Generic_Models
#

#
# object Generic_Models
#

v  201.6575 120.0000 -113.7955
v  201.6575 680.0000 -113.7955
v  181.6575 120.0000 -113.7955
v  181.6575 680.0000 -113.7955
v  181.6575 120.0000 -473.7955
v  181.6575 680.0000 -473.7955
v  201.6575 120.0000 -473.7955
v  201.6575 680.0000 -473.7955
# 8 vertices

vn 0.0000 0.0000 1.0000
vn 0.0000 0.0000 -1.0000
vn 0.0000 1.0000 -0.0000
vn -1.0000 0.0000 -0.0000
vn 0.0000 -1.0000 -0.0000
vn 1.0000 0.0000 -0.0000
# 6 vertex normals

vt 1.0000 0.0000 0.0000
vt 1.0000 1.0000 0.0000
vt 0.0000 0.0000 0.0000
vt 0.0000 1.0000 0.0000
# 4 texture coords

g Generic_Models
usemtl 1
s 1
f 49/25/37 50/26/37 51/27/37 
f 50/26/37 52/28/37 51/27/37 
f 53/25/38 54/26/38 55/27/38 
f 54/26/38 56/28/38 55/27/38 
f 54/28/39 52/27/39 56/26/39 
f 52/27/39 50/25/39 56/26/39 
f 51/25/40 52/26/40 53/27/40 
f 52/26/40 54/28/40 53/27/40 
f 55/28/41 49/27/41 53/26/41 
f 49/27/41 51/25/41 53/26/41 
f 50/28/42 49/27/42 56/26/42 
f 49/27/42 55/25/42 56/26/42 
# 12 faces

#
# object Generic_Models
#

#
# object Generic_Models
#

v  201.6575 480.0000 -113.7955
v  896.6575 480.0000 -113.7955
v  201.6575 500.0000 -113.7955
v  896.6575 500.0000 -113.7955
v  201.6575 480.0000 -473.7955
v  201.6575 500.0000 -473.7955
v  896.6575 480.0000 -473.7955
v  896.6575 500.0000 -473.7955
# 8 vertices

vn 0.0000 0.0000 1.0000
vn 0.0000 0.0000 -1.0000
vn 1.0000 0.0000 -0.0000
vn 0.0000 -1.0000 -0.0000
vn -1.0000 0.0000 -0.0000
vn 0.0000 1.0000 -0.0000
# 6 vertex normals

vt 0.0000 0.0000 0.0000
vt 1.0000 0.0000 0.0000
vt 0.0000 1.0000 0.0000
vt 1.0000 1.0000 0.0000
# 4 texture coords

g Generic_Models
usemtl 1
s 1
f 57/29/43 58/30/43 59/31/43 
f 58/30/43 60/32/43 59/31/43 
f 61/30/44 62/32/44 63/29/44 
f 62/32/44 64/31/44 63/29/44 
f 64/32/45 60/31/45 63/30/45 
f 60/31/45 58/29/45 63/30/45 
f 63/31/46 58/29/46 61/32/46 
f 58/29/46 57/30/46 61/32/46 
f 57/30/47 59/32/47 61/29/47 
f 59/32/47 62/31/47 61/29/47 
f 62/31/48 59/29/48 64/32/48 
f 59/29/48 60/30/48 64/32/48 
# 12 faces

#
# object Generic_Models
#

#
# object Generic_Models
#

v  -175.8425 500.0000 -113.7955
v  -155.8425 500.0000 -113.7955
v  -175.8425 680.0000 -113.7955
v  -155.8425 680.0000 -113.7955
v  -175.8425 500.0000 -473.7955
v  -175.8425 680.0000 -473.7955
v  -155.8425 500.0000 -473.7955
v  -155.8425 680.0000 -473.7955
# 8 vertices

vn 0.0000 0.0000 1.0000
vn 0.0000 0.0000 -1.0000
vn 0.0000 1.0000 -0.0000
vn -1.0000 0.0000 -0.0000
vn 0.0000 -1.0000 -0.0000
vn 1.0000 0.0000 -0.0000
# 6 vertex normals

vt 0.0000 0.0000 0.0000
vt 1.0000 0.0000 0.0000
vt 0.0000 1.0000 0.0000
vt 1.0000 1.0000 0.0000
# 4 texture coords

g Generic_Models
usemtl 1
s 1
f 65/33/49 66/34/49 67/35/49 
f 66/34/49 68/36/49 67/35/49 
f 69/34/50 70/36/50 71/33/50 
f 70/36/50 72/35/50 71/33/50 
f 70/35/51 67/33/51 72/36/51 
f 67/33/51 68/34/51 72/36/51 
f 65/34/52 67/36/52 69/33/52 
f 67/36/52 70/35/52 69/33/52 
f 71/35/53 66/33/53 69/36/53 
f 66/33/53 65/34/53 69/36/53 
f 68/35/54 66/33/54 72/36/54 
f 66/33/54 71/34/54 72/36/54 
# 12 faces

#
# object Generic_Models
#

#
# object Generic_Models
#

v  -155.8465 120.0000 -113.7955
v  -155.8465 480.0000 -113.7955
v  -175.8425 120.0000 -113.7955
v  -175.8425 480.0000 -113.7955
v  -175.8425 120.0000 -473.7955
v  -175.8425 480.0000 -473.7955
v  -155.8465 120.0000 -473.7955
v  -155.8465 480.0000 -473.7955
# 8 vertices

vn 0.0000 0.0000 1.0000
vn 0.0000 0.0000 -1.0000
vn 0.0000 1.0000 -0.0000
vn -1.0000 0.0000 -0.0000
vn 0.0000 -1.0000 -0.0000
vn 1.0000 0.0000 -0.0000
# 6 vertex normals

vt 1.0000 0.0000 0.0000
vt 1.0000 1.0000 0.0000
vt 0.0000 0.0000 0.0000
vt 0.0000 1.0000 0.0000
# 4 texture coords

g Generic_Models
usemtl 1
s 1
f 73/37/55 74/38/55 75/39/55 
f 74/38/55 76/40/55 75/39/55 
f 77/37/56 78/38/56 79/39/56 
f 78/38/56 80/40/56 79/39/56 
f 78/40/57 76/39/57 80/38/57 
f 76/39/57 74/37/57 80/38/57 
f 75/37/58 76/38/58 77/39/58 
f 76/38/58 78/40/58 77/39/58 
f 79/40/59 73/39/59 77/38/59 
f 73/39/59 75/37/59 77/38/59 
f 74/40/60 73/39/60 80/38/60 
f 73/39/60 79/37/60 80/38/60 
# 12 faces

#
# object Generic_Models
#

#
# object Generic_Models
#

v  559.1575 500.0000 -113.7955
v  559.1575 680.0000 -113.7955
v  539.1575 500.0000 -113.7955
v  539.1575 680.0000 -113.7955
v  559.1575 500.0000 -473.7955
v  539.1575 500.0000 -473.7955
v  559.1575 680.0000 -473.7955
v  539.1575 680.0000 -473.7955
# 8 vertices

vn 0.0000 0.0000 1.0000
vn 0.0000 0.0000 -1.0000
vn 0.0000 1.0000 -0.0000
vn 1.0000 0.0000 -0.0000
vn 0.0000 -1.0000 -0.0000
vn -1.0000 0.0000 -0.0000
# 6 vertex normals

vt 1.0000 0.0000 0.0000
vt 1.0000 1.0000 0.0000
vt 0.0000 0.0000 0.0000
vt 0.0000 1.0000 0.0000
# 4 texture coords

g Generic_Models
usemtl 1
s 1
f 81/41/61 82/42/61 83/43/61 
f 82/42/61 84/44/61 83/43/61 
f 85/43/62 86/41/62 87/44/62 
f 86/41/62 88/42/62 87/44/62 
f 88/44/63 84/43/63 87/42/63 
f 84/43/63 82/41/63 87/42/63 
f 82/44/64 81/43/64 87/42/64 
f 81/43/64 85/41/64 87/42/64 
f 85/44/65 81/43/65 86/42/65 
f 81/43/65 83/41/65 86/42/65 
f 83/41/66 84/42/66 86/43/66 
f 84/42/66 88/44/66 86/43/66 
# 12 faces

#
# object Generic_Models
#

#
# object Generic_Models
#

v  559.1575 480.0000 -113.7955
v  539.1614 480.0000 -113.7955
v  559.1575 120.0000 -113.7955
v  539.1614 120.0000 -113.7955
v  559.1575 120.0000 -473.7955
v  539.1614 120.0000 -473.7955
v  559.1575 480.0000 -473.7955
v  539.1614 480.0000 -473.7955
# 8 vertices

vn 0.0000 0.0000 1.0000
vn 0.0000 0.0000 -1.0000
vn 0.0000 1.0000 -0.0000
vn 1.0000 0.0000 -0.0000
vn 0.0000 -1.0000 -0.0000
vn -1.0000 0.0000 -0.0000
# 6 vertex normals

vt 1.0000 1.0000 0.0000
vt 0.0000 1.0000 0.0000
vt 1.0000 0.0000 0.0000
vt 0.0000 0.0000 0.0000
# 4 texture coords

g Generic_Models
usemtl 1
s 1
f 89/45/67 90/46/67 91/47/67 
f 90/46/67 92/48/67 91/47/67 
f 93/48/68 94/47/68 95/46/68 
f 94/47/68 96/45/68 95/46/68 
f 96/46/69 90/48/69 95/45/69 
f 90/48/69 89/47/69 95/45/69 
f 89/46/70 91/48/70 95/45/70 
f 91/48/70 93/47/70 95/45/70 
f 93/46/71 91/48/71 94/45/71 
f 91/48/71 92/47/71 94/45/71 
f 92/47/72 90/45/72 94/48/72 
f 90/45/72 96/46/72 94/48/72 
# 12 faces

