# 3ds Max Wavefront OBJ Exporter v0.97b - (c)2007 guruware
# 创建的文件:25.03.2012 16:51:22

mtllib IKE030020-3D.mtl

#
# object Loft03
#

v  6.4041 -0.0000 39.9384
v  61.4041 -0.0000 39.9384
v  61.4041 -0.0000 -15.0616
v  6.4041 -0.0000 -15.0616
v  6.4041 45.0000 39.9384
v  61.4041 45.0000 39.9384
v  61.4041 45.0000 -15.0616
v  6.4041 45.0000 -15.0616
v  61.4041 -0.0000 35.3284
v  61.4041 34.7801 35.3284
v  6.4041 34.7801 35.3284
v  6.4041 -0.0000 35.3284
v  61.4041 34.7801 -10.4517
v  61.4041 -0.0000 -10.4517
v  6.4041 -0.0000 -10.4517
v  6.4041 34.7801 -10.4517
v  56.7942 34.7801 39.9384
v  56.7942 -0.0000 39.9384
v  56.7942 -0.0000 -15.0616
v  56.7942 34.7801 -15.0616
v  56.7942 -0.0000 -10.4517
v  56.7942 34.7801 35.3284
v  56.7942 34.7801 -10.4517
v  56.7942 -0.0000 35.3284
v  11.0141 -0.0000 35.3284
v  11.0141 -0.0000 39.9384
v  11.0141 34.7801 -15.0616
v  11.0141 -0.0000 -15.0616
v  11.0141 -0.0000 -10.4517
v  11.0141 34.7801 -10.4517
v  11.0141 34.7801 35.3284
v  11.0141 34.7801 39.9384
# 32 vertices

vn 0.0000 -1.0000 -0.0000
vn 0.0000 -1.0000 -0.0000
vn 0.0000 -1.0000 -0.0000
vn 0.0000 -1.0000 -0.0000
vn 0.0000 -1.0000 -0.0000
vn 0.0000 -1.0000 -0.0000
vn 0.0000 1.0000 -0.0000
vn 0.0000 1.0000 -0.0000
vn 0.0000 1.0000 -0.0000
vn 0.0000 1.0000 -0.0000
vn 0.0000 1.0000 -0.0000
vn 0.0000 1.0000 -0.0000
vn 1.0000 0.0000 0.0000
vn 1.0000 0.0000 0.0000
vn 1.0000 0.0000 0.0000
vn 1.0000 0.0000 -0.0000
vn 1.0000 0.0000 -0.0000
vn 1.0000 0.0000 -0.0000
vn 0.0000 -1.0000 -0.0000
vn 0.0000 -1.0000 -0.0000
vn 0.0000 -1.0000 -0.0000
vn 0.0000 -1.0000 -0.0000
vn 0.0000 -1.0000 -0.0000
vn 0.0000 -1.0000 -0.0000
vn -1.0000 0.0000 -0.0000
vn -1.0000 0.0000 -0.0000
vn -1.0000 0.0000 -0.0000
vn -1.0000 0.0000 -0.0000
vn -1.0000 0.0000 -0.0000
vn -1.0000 0.0000 -0.0000
vn 0.0000 -1.0000 -0.0000
vn 0.0000 -1.0000 -0.0000
vn 0.0000 -1.0000 -0.0000
vn 0.0000 -1.0000 -0.0000
vn 0.0000 -1.0000 -0.0000
vn 0.0000 -1.0000 -0.0000
vn 0.0000 0.0000 -1.0000
vn 0.0000 0.0000 -1.0000
vn 0.0000 0.0000 -1.0000
vn 0.0000 -0.0000 -1.0000
vn 0.0000 -0.0000 -1.0000
vn 0.0000 -0.0000 -1.0000
vn -0.0000 0.0000 1.0000
vn -0.0000 0.0000 1.0000
vn -0.0000 0.0000 1.0000
vn -0.0000 0.0000 1.0000
vn -0.0000 0.0000 1.0000
vn -0.0000 0.0000 1.0000
vn 1.0000 -0.0000 0.0000
vn 1.0000 -0.0000 0.0000
vn 1.0000 -0.0000 0.0000
vn 1.0000 0.0000 0.0000
vn 1.0000 0.0000 0.0000
vn 1.0000 0.0000 0.0000
vn 1.0000 0.0000 -0.0000
vn 1.0000 0.0000 -0.0000
vn 1.0000 0.0000 -0.0000
vn 1.0000 -0.0000 -0.0000
vn 1.0000 -0.0000 -0.0000
vn 1.0000 -0.0000 -0.0000
vn -1.0000 0.0000 -0.0000
vn -1.0000 0.0000 -0.0000
vn -1.0000 0.0000 -0.0000
vn -1.0000 -0.0000 -0.0000
vn -1.0000 -0.0000 -0.0000
vn -1.0000 -0.0000 -0.0000
vn -1.0000 0.0000 0.0000
vn -1.0000 0.0000 0.0000
vn -1.0000 0.0000 0.0000
vn -1.0000 0.0000 0.0000
vn -1.0000 0.0000 0.0000
vn -1.0000 0.0000 0.0000
vn 0.0000 -1.0000 -0.0000
vn 0.0000 -1.0000 -0.0000
vn 0.0000 -1.0000 -0.0000
vn 0.0000 -1.0000 -0.0000
vn 0.0000 -1.0000 -0.0000
vn 0.0000 -1.0000 -0.0000
vn 0.0000 0.0000 1.0000
vn 0.0000 0.0000 1.0000
vn 0.0000 0.0000 1.0000
vn 0.0000 0.0000 1.0000
vn 0.0000 0.0000 1.0000
vn 0.0000 0.0000 1.0000
vn -0.0000 -0.0000 1.0000
vn -0.0000 -0.0000 1.0000
vn -0.0000 -0.0000 1.0000
vn -0.0000 0.0000 1.0000
vn -0.0000 0.0000 1.0000
vn -0.0000 0.0000 1.0000
vn -0.0000 0.0000 1.0000
vn -0.0000 0.0000 1.0000
vn -0.0000 0.0000 1.0000
vn -0.0000 -0.0000 1.0000
vn -0.0000 -0.0000 1.0000
vn -0.0000 -0.0000 1.0000
vn 0.0000 0.0000 -1.0000
vn 0.0000 0.0000 -1.0000
vn 0.0000 0.0000 -1.0000
vn 0.0000 0.0000 -1.0000
vn 0.0000 0.0000 -1.0000
vn 0.0000 0.0000 -1.0000
vn 0.0000 0.0000 -1.0000
vn 0.0000 0.0000 -1.0000
vn 0.0000 0.0000 -1.0000
vn 0.0000 0.0000 -1.0000
vn 0.0000 0.0000 -1.0000
vn 0.0000 0.0000 -1.0000
vn -0.0000 0.0000 -1.0000
vn -0.0000 0.0000 -1.0000
vn -0.0000 0.0000 -1.0000
vn 0.0000 -0.0000 -1.0000
vn 0.0000 -0.0000 -1.0000
vn 0.0000 -0.0000 -1.0000
vn 0.0000 -1.0000 -0.0000
vn 0.0000 -1.0000 -0.0000
vn 0.0000 -1.0000 -0.0000
vn 0.0000 -1.0000 -0.0000
vn 0.0000 -1.0000 -0.0000
vn 0.0000 -1.0000 -0.0000
vn 0.0000 0.0000 1.0000
vn 0.0000 0.0000 1.0000
vn 0.0000 0.0000 1.0000
vn -0.0000 -0.0000 1.0000
vn -0.0000 -0.0000 1.0000
vn -0.0000 -0.0000 1.0000
vn 0.0000 -1.0000 -0.0000
vn 0.0000 -1.0000 -0.0000
vn 0.0000 -1.0000 -0.0000
vn 0.0000 -1.0000 -0.0000
vn 0.0000 -1.0000 -0.0000
vn 0.0000 -1.0000 -0.0000
vn 0.0000 0.0000 -1.0000
vn 0.0000 0.0000 -1.0000
vn 0.0000 0.0000 -1.0000
vn 0.0000 0.0000 -1.0000
vn 0.0000 0.0000 -1.0000
vn 0.0000 0.0000 -1.0000
vn 0.0000 -1.0000 -0.0000
vn 0.0000 -1.0000 -0.0000
vn 0.0000 -1.0000 -0.0000
vn 0.0000 -1.0000 -0.0000
vn 0.0000 -1.0000 -0.0000
vn 0.0000 -1.0000 -0.0000
vn 1.0000 -0.0000 0.0000
vn 1.0000 -0.0000 0.0000
vn 1.0000 -0.0000 0.0000
vn 1.0000 -0.0000 -0.0000
vn 1.0000 -0.0000 -0.0000
vn 1.0000 -0.0000 -0.0000
vn 1.0000 0.0000 -0.0000
vn 1.0000 0.0000 -0.0000
vn 1.0000 0.0000 -0.0000
vn 1.0000 0.0000 -0.0000
vn 1.0000 0.0000 -0.0000
vn 1.0000 0.0000 -0.0000
vn 0.0000 -1.0000 -0.0000
vn 0.0000 -1.0000 -0.0000
vn 0.0000 -1.0000 -0.0000
vn 0.0000 -1.0000 -0.0000
vn 0.0000 -1.0000 -0.0000
vn 0.0000 -1.0000 -0.0000
vn 0.0000 -1.0000 -0.0000
vn 0.0000 -1.0000 -0.0000
vn 0.0000 -1.0000 -0.0000
vn 0.0000 -1.0000 -0.0000
vn 0.0000 -1.0000 -0.0000
vn 0.0000 -1.0000 -0.0000
vn -1.0000 0.0000 -0.0000
vn -1.0000 0.0000 -0.0000
vn -1.0000 0.0000 -0.0000
vn -1.0000 -0.0000 -0.0000
vn -1.0000 -0.0000 -0.0000
vn -1.0000 -0.0000 -0.0000
vn -1.0000 0.0000 -0.0000
vn -1.0000 0.0000 -0.0000
vn -1.0000 0.0000 -0.0000
vn -1.0000 0.0000 -0.0000
vn -1.0000 0.0000 -0.0000
vn -1.0000 0.0000 -0.0000
# 180 vertex normals

vt 0.0005 0.0005 0.0842
vt 0.0005 0.0842 0.0842
vt 0.9995 0.0005 0.0842
vt 0.0005 0.0005 0.0005
vt 0.9995 0.9995 0.0005
vt 0.9995 0.0005 0.0005
vt 0.0005 0.0005 0.9995
vt 0.0005 0.9995 0.9995
vt 0.2274 0.0842 0.0005
vt 0.0005 0.9995 0.0842
vt 0.9995 0.0005 0.9995
vt 0.9995 0.9158 0.0005
vt 0.0005 0.9158 0.0842
vt 0.0842 0.9995 0.7726
vt 0.0005 0.9995 0.0005
vt 0.0005 0.9995 0.9158
vt 0.2274 0.9158 0.0005
vt 0.7726 0.0842 0.0842
vt 0.7726 0.9158 0.0842
vt 0.2274 0.9995 0.0842
vt 0.9995 0.9995 0.0842
vt 0.0005 0.9995 0.0005
vt 0.9995 0.0842 0.9158
vt 0.9995 0.0005 0.9158
vt 0.9995 0.9158 0.7726
vt 0.7726 0.0005 0.0842
vt 0.7726 0.9995 0.0842
vt 0.0005 0.9158 0.7726
vt 0.9995 0.9995 0.9158
vt 0.9995 0.9158 0.9158
vt 0.0842 0.9158 0.7726
vt 0.9158 0.9158 0.7726
vt 0.9995 0.0842 0.0005
vt 0.9158 0.0842 0.0005
vt 0.9158 0.0005 0.0005
vt 0.9158 0.0005 0.0005
vt 0.9995 0.0005 0.0005
vt 0.9995 0.0842 0.0005
vt 0.0005 0.9995 0.9995
vt 0.0005 0.0005 0.9995
vt 0.9995 0.0005 0.9995
vt 0.9995 0.0005 0.9995
vt 0.9995 0.9995 0.9995
vt 0.0005 0.9995 0.9995
vt 0.9995 0.0005 0.0005
vt 0.9995 0.0842 0.0005
vt 0.2274 0.0842 0.0005
vt 0.2274 0.0842 0.0005
vt 0.0005 0.0005 0.0005
vt 0.9995 0.0005 0.0005
vt 0.0005 0.0842 0.0005
vt 0.0005 0.0005 0.0005
vt 0.0842 0.0005 0.0005
vt 0.0842 0.0005 0.0005
vt 0.0842 0.0842 0.0005
vt 0.0005 0.0842 0.0005
vt 0.7726 0.9158 0.9995
vt 0.9995 0.9995 0.9995
vt 0.0005 0.9995 0.9995
vt 0.0005 0.9995 0.9995
vt 0.0005 0.9158 0.9995
vt 0.7726 0.9158 0.9995
vt 0.0842 0.0005 0.7726
vt 0.9158 0.0005 0.7726
vt 0.9158 0.0842 0.7726
vt 0.9158 0.0842 0.7726
vt 0.0842 0.0842 0.7726
vt 0.0842 0.0005 0.7726
vt 0.2274 0.0842 0.0842
vt 0.2274 0.0005 0.0842
vt 0.9995 0.0005 0.0842
vt 0.9995 0.0842 0.0842
vt 0.2274 0.0842 0.0842
vt 0.0005 0.0842 0.9158
vt 0.0005 0.0005 0.9158
vt 0.7726 0.0005 0.9158
vt 0.7726 0.0005 0.9158
vt 0.7726 0.0842 0.9158
vt 0.0005 0.0842 0.9158
vt 0.0005 0.9995 0.0005
vt 0.0005 0.0005 0.0005
vt 0.2274 0.0842 0.0005
vt 0.2274 0.9158 0.0005
vt 0.0005 0.9995 0.0005
vt 0.9995 0.9995 0.0005
vt 0.0005 0.9995 0.0005
vt 0.2274 0.9158 0.0005
vt 0.9995 0.9995 0.0005
vt 0.7726 0.0842 0.9995
vt 0.9995 0.0005 0.9995
vt 0.9995 0.9995 0.9995
vt 0.9995 0.9995 0.9995
vt 0.7726 0.9158 0.9995
vt 0.7726 0.0842 0.9995
vt 0.7726 0.0842 0.9995
vt 0.0005 0.0842 0.9995
vt 0.0005 0.0005 0.9995
vt 0.0005 0.0005 0.9995
vt 0.9995 0.0005 0.9995
vt 0.7726 0.0842 0.9995
vt 0.9995 0.9995 0.0005
vt 0.9158 0.9995 0.0005
vt 0.9158 0.9158 0.0005
vt 0.9158 0.9158 0.0005
vt 0.9995 0.9158 0.0005
vt 0.9995 0.9995 0.0005
vt 0.9995 0.9995 0.0005
vt 0.0005 0.9158 0.0005
vt 0.9995 0.9995 0.0005
vt 0.0005 0.9158 0.0005
vt 0.7726 0.9158 0.0005
vt 0.9995 0.9995 0.0005
vt 0.7726 0.9158 0.0005
vt 0.7726 0.0842 0.0005
vt 0.7726 0.0842 0.0005
vt 0.0005 0.0842 0.0005
vt 0.0005 0.0005 0.0005
vt 0.7726 0.0842 0.0005
vt 0.9995 0.0005 0.0005
vt 0.7726 0.0842 0.0005
vt 0.9995 0.0005 0.9995
vt 0.9995 0.0842 0.9995
vt 0.2274 0.0842 0.9995
vt 0.0005 0.0005 0.9995
vt 0.2274 0.0842 0.9995
vt 0.0005 0.9995 0.9995
vt 0.2274 0.0842 0.9995
vt 0.0005 0.9995 0.9995
vt 0.2274 0.0842 0.9995
vt 0.2274 0.9158 0.9995
vt 0.9995 0.9995 0.9995
vt 0.2274 0.9158 0.9995
vt 0.9995 0.9158 0.9995
vt 0.9995 0.9995 0.9995
vt 0.2274 0.9158 0.9995
vt 0.0005 0.9158 0.0005
vt 0.0842 0.9158 0.0005
vt 0.0842 0.9995 0.0005
vt 0.0842 0.9995 0.0005
vt 0.0005 0.9158 0.0005
vt 0.7726 0.9995 0.9158
vt 0.0005 0.9158 0.9158
vt 0.0005 0.9158 0.9158
vt 0.7726 0.9158 0.9158
vt 0.7726 0.9995 0.9158
vt 0.0842 0.9158 0.7726
vt 0.9158 0.9158 0.7726
vt 0.9158 0.9995 0.7726
vt 0.9158 0.9995 0.7726
vt 0.0842 0.9158 0.7726
vt 0.9995 0.9158 0.0842
vt 0.2274 0.9995 0.0842
vt 0.2274 0.9158 0.0842
vt 0.9995 0.9158 0.0842
vt 0.0842 0.0842 0.7726
vt 0.9158 0.0842 0.7726
vt 0.9158 0.9158 0.7726
vt 0.9158 0.9158 0.7726
vt 0.0842 0.9158 0.7726
vt 0.0842 0.0842 0.7726
vt 0.2274 0.9995 0.9158
vt 0.2274 0.9158 0.9158
vt 0.9995 0.9158 0.9158
vt 0.2274 0.9995 0.9158
vt 0.9995 0.0005 0.9158
vt 0.2274 0.0842 0.9158
vt 0.2274 0.0842 0.9158
vt 0.2274 0.0005 0.9158
vt 0.0005 0.0842 0.7726
vt 0.0842 0.0842 0.7726
vt 0.0842 0.9158 0.7726
vt 0.0005 0.0842 0.7726
vt 0.9995 0.0842 0.7726
vt 0.9158 0.9158 0.7726
vt 0.9158 0.0842 0.7726
vt 0.9995 0.0842 0.7726
vt 0.0005 0.0005 0.0842
vt 0.7726 0.0842 0.0842
vt 0.7726 0.9995 0.0842
vt 0.0005 0.9158 0.0842
# 180 texture coords

g Loft03
usemtl Material__26
s off
f 18/33/1 24/34/2 9/35/3 
f 9/36/4 2/37/5 18/38/6 
f 5/39/7 6/40/8 7/41/9 
f 7/42/10 8/43/11 5/44/12 
f 2/45/13 9/46/14 10/47/15 
f 10/48/16 6/49/17 2/50/18 
f 19/51/19 3/52/20 14/53/21 
f 14/54/22 21/55/23 19/56/24 
f 16/57/25 8/58/26 4/59/27 
f 4/60/28 15/61/29 16/62/30 
f 13/63/31 10/64/32 22/65/33 
f 22/66/34 23/67/35 13/68/36 
f 22/69/37 10/70/38 9/71/39 
f 9/3/40 24/72/41 22/73/42 
f 21/74/43 14/75/44 13/76/45 
f 13/77/46 23/78/47 21/79/48 
f 7/80/49 6/81/50 10/82/51 
f 10/9/52 13/83/53 7/84/54 
f 3/85/55 7/86/56 13/87/57 
f 13/17/58 14/12/59 3/88/60 
f 11/89/61 5/90/62 8/91/63 
f 8/92/64 16/93/65 11/94/66 
f 11/95/67 12/96/68 1/97/69 
f 1/98/70 5/99/71 11/100/72 
f 1/101/73 12/102/74 25/103/75 
f 25/104/76 26/105/77 1/106/78 
f 5/107/79 1/22/80 26/108/81 
f 5/109/82 26/110/83 32/111/84 
f 5/112/85 32/113/86 17/114/87 
f 17/115/88 18/116/89 2/117/90 
f 17/118/91 2/4/92 6/119/93 
f 5/5/94 17/120/95 6/6/96 
f 3/121/97 19/122/98 20/123/99 
f 7/124/100 3/11/101 20/125/102 
f 8/126/103 7/7/104 20/127/105 
f 8/128/106 20/129/107 27/130/108 
f 4/131/109 8/8/110 27/132/111 
f 28/133/112 4/134/113 27/135/114 
f 28/136/115 29/137/116 15/138/117 
f 15/139/118 4/15/119 28/140/120 
f 16/141/121 15/16/122 29/142/123 
f 29/143/124 30/144/125 16/145/126 
f 30/146/127 31/147/128 11/148/129 
f 11/149/130 16/14/131 30/150/132 
f 25/151/133 12/21/134 11/152/135 
f 11/20/136 31/153/137 25/154/138 
f 23/155/139 22/156/140 31/157/141 
f 31/158/142 30/159/143 23/160/144 
f 27/161/145 30/162/146 29/163/147 
f 29/30/148 28/29/149 27/164/150 
f 26/165/151 25/23/152 31/166/153 
f 31/167/154 32/168/155 26/24/156 
f 20/169/157 23/170/158 30/171/159 
f 30/31/160 27/28/161 20/172/162 
f 17/173/163 32/25/164 31/174/165 
f 31/32/166 22/175/167 17/176/168 
f 18/177/169 17/26/170 22/178/171 
f 22/18/172 24/2/173 18/1/174 
f 20/179/175 19/10/176 21/180/177 
f 21/13/178 23/19/179 20/27/180 
# 0 polygons - 60 triangles

#
# object Loft04
#

v  -61.2198 -0.0000 20.0368
v  -6.2198 -0.0000 20.0368
v  -6.2198 -0.0000 -34.9632
v  -61.2198 -0.0000 -34.9632
v  -61.2198 45.0000 20.0368
v  -6.2198 45.0000 20.0368
v  -6.2198 45.0000 -34.9632
v  -61.2198 45.0000 -34.9632
v  -6.2198 -0.0000 15.4269
v  -6.2198 34.7801 15.4269
v  -61.2198 34.7801 15.4269
v  -61.2198 -0.0000 15.4269
v  -6.2198 34.7801 -30.3532
v  -6.2198 -0.0000 -30.3532
v  -61.2198 -0.0000 -30.3532
v  -61.2198 34.7801 -30.3532
v  -10.8298 34.7801 20.0368
v  -10.8298 -0.0000 20.0368
v  -10.8298 -0.0000 -34.9632
v  -10.8298 34.7801 -34.9632
v  -10.8298 -0.0000 -30.3532
v  -10.8298 34.7801 15.4269
v  -10.8298 34.7801 -30.3532
v  -10.8298 -0.0000 15.4269
v  -56.6099 -0.0000 15.4269
v  -56.6099 -0.0000 20.0368
v  -56.6099 34.7801 -34.9632
v  -56.6099 -0.0000 -34.9632
v  -56.6099 -0.0000 -30.3532
v  -56.6099 34.7801 -30.3532
v  -56.6099 34.7801 15.4269
v  -56.6099 34.7801 20.0368
# 32 vertices

vn 0.0000 -1.0000 -0.0000
vn 0.0000 -1.0000 -0.0000
vn 0.0000 -1.0000 -0.0000
vn 0.0000 -1.0000 -0.0000
vn 0.0000 -1.0000 -0.0000
vn 0.0000 -1.0000 -0.0000
vn 0.0000 1.0000 -0.0000
vn 0.0000 1.0000 -0.0000
vn 0.0000 1.0000 -0.0000
vn 0.0000 1.0000 -0.0000
vn 0.0000 1.0000 -0.0000
vn 0.0000 1.0000 -0.0000
vn 1.0000 0.0000 0.0000
vn 1.0000 0.0000 0.0000
vn 1.0000 0.0000 0.0000
vn 1.0000 0.0000 -0.0000
vn 1.0000 0.0000 -0.0000
vn 1.0000 0.0000 -0.0000
vn 0.0000 -1.0000 -0.0000
vn 0.0000 -1.0000 -0.0000
vn 0.0000 -1.0000 -0.0000
vn 0.0000 -1.0000 -0.0000
vn 0.0000 -1.0000 -0.0000
vn 0.0000 -1.0000 -0.0000
vn -1.0000 0.0000 -0.0000
vn -1.0000 0.0000 -0.0000
vn -1.0000 0.0000 -0.0000
vn -1.0000 0.0000 -0.0000
vn -1.0000 0.0000 -0.0000
vn -1.0000 0.0000 -0.0000
vn 0.0000 -1.0000 -0.0000
vn 0.0000 -1.0000 -0.0000
vn 0.0000 -1.0000 -0.0000
vn 0.0000 -1.0000 -0.0000
vn 0.0000 -1.0000 -0.0000
vn 0.0000 -1.0000 -0.0000
vn 0.0000 -0.0000 -1.0000
vn 0.0000 -0.0000 -1.0000
vn 0.0000 -0.0000 -1.0000
vn 0.0000 -0.0000 -1.0000
vn 0.0000 -0.0000 -1.0000
vn 0.0000 -0.0000 -1.0000
vn -0.0000 0.0000 1.0000
vn -0.0000 0.0000 1.0000
vn -0.0000 0.0000 1.0000
vn -0.0000 -0.0000 1.0000
vn -0.0000 -0.0000 1.0000
vn -0.0000 -0.0000 1.0000
vn 1.0000 -0.0000 0.0000
vn 1.0000 -0.0000 0.0000
vn 1.0000 -0.0000 0.0000
vn 1.0000 0.0000 0.0000
vn 1.0000 0.0000 0.0000
vn 1.0000 0.0000 0.0000
vn 1.0000 0.0000 -0.0000
vn 1.0000 0.0000 -0.0000
vn 1.0000 0.0000 -0.0000
vn 1.0000 -0.0000 -0.0000
vn 1.0000 -0.0000 -0.0000
vn 1.0000 -0.0000 -0.0000
vn -1.0000 0.0000 -0.0000
vn -1.0000 0.0000 -0.0000
vn -1.0000 0.0000 -0.0000
vn -1.0000 -0.0000 -0.0000
vn -1.0000 -0.0000 -0.0000
vn -1.0000 -0.0000 -0.0000
vn -1.0000 0.0000 -0.0000
vn -1.0000 0.0000 -0.0000
vn -1.0000 0.0000 -0.0000
vn -1.0000 0.0000 -0.0000
vn -1.0000 0.0000 -0.0000
vn -1.0000 0.0000 -0.0000
vn 0.0000 -1.0000 -0.0000
vn 0.0000 -1.0000 -0.0000
vn 0.0000 -1.0000 -0.0000
vn 0.0000 -1.0000 -0.0000
vn 0.0000 -1.0000 -0.0000
vn 0.0000 -1.0000 -0.0000
vn -0.0000 0.0000 1.0000
vn -0.0000 0.0000 1.0000
vn -0.0000 0.0000 1.0000
vn 0.0000 0.0000 1.0000
vn 0.0000 0.0000 1.0000
vn 0.0000 0.0000 1.0000
vn -0.0000 -0.0000 1.0000
vn -0.0000 -0.0000 1.0000
vn -0.0000 -0.0000 1.0000
vn -0.0000 0.0000 1.0000
vn -0.0000 0.0000 1.0000
vn -0.0000 0.0000 1.0000
vn -0.0000 0.0000 1.0000
vn -0.0000 0.0000 1.0000
vn -0.0000 0.0000 1.0000
vn -0.0000 0.0000 1.0000
vn -0.0000 0.0000 1.0000
vn -0.0000 0.0000 1.0000
vn 0.0000 0.0000 -1.0000
vn 0.0000 0.0000 -1.0000
vn 0.0000 0.0000 -1.0000
vn 0.0000 0.0000 -1.0000
vn 0.0000 0.0000 -1.0000
vn 0.0000 0.0000 -1.0000
vn 0.0000 0.0000 -1.0000
vn 0.0000 0.0000 -1.0000
vn 0.0000 0.0000 -1.0000
vn 0.0000 0.0000 -1.0000
vn 0.0000 0.0000 -1.0000
vn 0.0000 0.0000 -1.0000
vn -0.0000 0.0000 -1.0000
vn -0.0000 0.0000 -1.0000
vn -0.0000 0.0000 -1.0000
vn 0.0000 -0.0000 -1.0000
vn 0.0000 -0.0000 -1.0000
vn 0.0000 -0.0000 -1.0000
vn 0.0000 -1.0000 -0.0000
vn 0.0000 -1.0000 -0.0000
vn 0.0000 -1.0000 -0.0000
vn 0.0000 -1.0000 -0.0000
vn 0.0000 -1.0000 -0.0000
vn 0.0000 -1.0000 -0.0000
vn 0.0000 0.0000 1.0000
vn 0.0000 0.0000 1.0000
vn 0.0000 0.0000 1.0000
vn -0.0000 -0.0000 1.0000
vn -0.0000 -0.0000 1.0000
vn -0.0000 -0.0000 1.0000
vn 0.0000 -1.0000 -0.0000
vn 0.0000 -1.0000 -0.0000
vn 0.0000 -1.0000 -0.0000
vn 0.0000 -1.0000 -0.0000
vn 0.0000 -1.0000 -0.0000
vn 0.0000 -1.0000 -0.0000
vn 0.0000 0.0000 -1.0000
vn 0.0000 0.0000 -1.0000
vn 0.0000 0.0000 -1.0000
vn 0.0000 0.0000 -1.0000
vn 0.0000 0.0000 -1.0000
vn 0.0000 0.0000 -1.0000
vn 0.0000 -1.0000 -0.0000
vn 0.0000 -1.0000 -0.0000
vn 0.0000 -1.0000 -0.0000
vn 0.0000 -1.0000 -0.0000
vn 0.0000 -1.0000 -0.0000
vn 0.0000 -1.0000 -0.0000
vn 1.0000 -0.0000 0.0000
vn 1.0000 -0.0000 0.0000
vn 1.0000 -0.0000 0.0000
vn 1.0000 -0.0000 -0.0000
vn 1.0000 -0.0000 -0.0000
vn 1.0000 -0.0000 -0.0000
vn 1.0000 0.0000 -0.0000
vn 1.0000 0.0000 -0.0000
vn 1.0000 0.0000 -0.0000
vn 1.0000 0.0000 -0.0000
vn 1.0000 0.0000 -0.0000
vn 1.0000 0.0000 -0.0000
vn 0.0000 -1.0000 -0.0000
vn 0.0000 -1.0000 -0.0000
vn 0.0000 -1.0000 -0.0000
vn 0.0000 -1.0000 -0.0000
vn 0.0000 -1.0000 -0.0000
vn 0.0000 -1.0000 -0.0000
vn 0.0000 -1.0000 -0.0000
vn 0.0000 -1.0000 -0.0000
vn 0.0000 -1.0000 -0.0000
vn 0.0000 -1.0000 -0.0000
vn 0.0000 -1.0000 -0.0000
vn 0.0000 -1.0000 -0.0000
vn -1.0000 0.0000 0.0000
vn -1.0000 0.0000 0.0000
vn -1.0000 0.0000 0.0000
vn -1.0000 -0.0000 -0.0000
vn -1.0000 -0.0000 -0.0000
vn -1.0000 -0.0000 -0.0000
vn -1.0000 0.0000 -0.0000
vn -1.0000 0.0000 -0.0000
vn -1.0000 0.0000 -0.0000
vn -1.0000 -0.0000 -0.0000
vn -1.0000 -0.0000 -0.0000
vn -1.0000 -0.0000 -0.0000
# 180 vertex normals

vt 0.9995 0.0005 0.9995
vt 0.9995 0.0005 0.0005
vt 0.0005 0.0005 0.0005
vt 0.0005 0.0005 0.9995
vt 0.0005 0.9995 0.9995
vt 0.0005 0.0005 0.9995
vt 0.9995 0.0005 0.9995
vt 0.9995 0.9995 0.9995
vt 0.9158 0.0005 0.0005
vt 0.0842 0.7726 0.0005
vt 0.9158 0.7726 0.9995
vt 0.9158 0.0005 0.9995
vt 0.0842 0.0005 0.7726
vt 0.0842 0.0005 0.0005
vt 0.0842 0.0005 0.9995
vt 0.0842 0.7726 0.9995
vt 0.9158 0.7726 0.0005
vt 0.9995 0.0842 0.0005
vt 0.0005 0.0842 0.0005
vt 0.0842 0.7726 0.9995
vt 0.0842 0.0842 0.0005
vt 0.9158 0.0842 0.7726
vt 0.0842 0.0842 0.7726
vt 0.9158 0.0842 0.0005
vt 0.9158 0.9158 0.0005
vt 0.9995 0.9158 0.0005
vt 0.9158 0.7726 0.9995
vt 0.9158 0.0005 0.9995
vt 0.0842 0.9158 0.0005
vt 0.0842 0.7726 0.9158
vt 0.9158 0.9158 0.7726
vt 0.0842 0.7726 0.0005
vt 0.0005 0.9995 0.0005
vt 0.0005 0.0005 0.0005
vt 0.0842 0.0005 0.0005
vt 0.0005 0.9995 0.9995
vt 0.9158 0.0005 0.7726
vt 0.0842 0.7726 0.0842
vt 0.0005 0.7726 0.0842
vt 0.0005 0.0005 0.0842
vt 0.0842 0.0005 0.0842
vt 0.9158 0.0005 0.9158
vt 0.9995 0.0005 0.9158
vt 0.9995 0.7726 0.9158
vt 0.9158 0.7726 0.9158
vt 0.9158 0.7726 0.0005
vt 0.9995 0.9995 0.0005
vt 0.0005 0.9995 0.0005
vt 0.9158 0.7726 0.0005
vt 0.9158 0.0005 0.0005
vt 0.9995 0.0005 0.0005
vt 0.9995 0.9995 0.0005
vt 0.9995 0.9995 0.9995
vt 0.0005 0.9995 0.9995
vt 0.9995 0.9995 0.9995
vt 0.9995 0.9995 0.0005
vt 0.9158 0.9995 0.0005
vt 0.0005 0.9995 0.0005
vt 0.0005 0.0005 0.0005
vt 0.0842 0.0005 0.0005
vt 0.9158 0.0005 0.0005
vt 0.9995 0.0005 0.0005
vt 0.9995 0.9995 0.0005
vt 0.9995 0.0005 0.9995
vt 0.9995 0.9995 0.9995
vt 0.0005 0.9995 0.9995
vt 0.0005 0.0005 0.9995
vt 0.0842 0.0005 0.9995
vt 0.0842 0.9995 0.0005
vt 0.0005 0.9995 0.0005
vt 0.0005 0.9158 0.0005
vt 0.0005 0.7726 0.9158
vt 0.0005 0.0005 0.9158
vt 0.0842 0.0005 0.9158
vt 0.9158 0.9995 0.7726
vt 0.0842 0.9995 0.7726
vt 0.0842 0.9158 0.7726
vt 0.9158 0.0005 0.0842
vt 0.9995 0.0005 0.0842
vt 0.9995 0.7726 0.0842
vt 0.9158 0.7726 0.0842
vt 0.0842 0.9158 0.7726
vt 0.9995 0.0005 0.9158
vt 0.9995 0.7726 0.9158
vt 0.9158 0.7726 0.9158
vt 0.9158 0.0005 0.9158
vt 0.0005 0.7726 0.9158
vt 0.0005 0.0005 0.9158
vt 0.0842 0.0005 0.9158
vt 0.0842 0.7726 0.9158
vt 0.0005 0.9158 0.7726
vt 0.0005 0.0842 0.7726
vt 0.0842 0.9158 0.7726
vt 0.9995 0.0842 0.7726
vt 0.9995 0.9158 0.7726
vt 0.9158 0.7726 0.0842
vt 0.9158 0.0005 0.0842
vt 0.9995 0.0005 0.0842
vt 0.9995 0.7726 0.0842
vt 0.0842 0.7726 0.0842
vt 0.0005 0.7726 0.0842
vt 0.0005 0.0005 0.0842
vt 0.0842 0.0005 0.0842
# 103 texture coords

g Loft04
usemtl default
s off
f 50/198/181 56/204/182 41/189/183 
f 41/189/184 34/182/185 50/198/186 
f 37/185/187 38/186/188 39/187/189 
f 39/187/190 40/188/191 37/185/192 
f 34/214/193 41/215/194 42/190/195 
f 42/190/196 38/213/197 34/214/198 
f 51/199/199 35/183/200 46/194/201 
f 46/194/202 53/201/203 51/199/204 
f 48/196/205 40/216/206 36/184/207 
f 36/184/208 47/195/209 48/196/210 
f 45/193/211 42/217/212 54/202/213 
f 54/202/214 55/203/215 45/193/216 
f 54/218/217 42/219/218 41/220/219 
f 41/220/220 56/221/221 54/218/222 
f 53/222/223 46/223/224 45/224/225 
f 45/224/226 55/225/227 53/222/228 
f 39/227/229 38/228/230 42/190/231 
f 42/190/232 45/226/233 39/227/234 
f 35/231/235 39/232/236 45/229/237 
f 45/229/238 46/230/239 35/231/240 
f 43/191/241 37/233/242 40/234/243 
f 40/234/244 48/196/245 43/191/246 
f 43/191/247 44/192/248 33/181/249 
f 33/181/250 37/235/251 43/191/252 
f 33/236/253 44/237/254 57/205/255 
f 57/205/256 58/206/257 33/236/258 
f 37/238/259 33/239/260 58/240/261 
f 37/238/262 58/240/263 64/212/264 
f 37/238/265 64/212/266 49/197/267 
f 49/197/268 50/241/269 34/242/270 
f 49/197/271 34/242/272 38/243/273 
f 37/238/274 49/197/275 38/243/276 
f 35/247/277 51/248/278 52/200/279 
f 39/246/280 35/247/281 52/200/282 
f 40/245/283 39/246/284 52/200/285 
f 40/245/286 52/200/287 59/207/288 
f 36/244/289 40/245/290 59/207/291 
f 60/208/292 36/244/293 59/207/294 
f 60/251/295 61/209/296 47/249/297 
f 47/249/298 36/250/299 60/251/300 
f 48/252/301 47/253/302 61/254/303 
f 61/254/304 62/210/305 48/252/306 
f 62/257/307 63/211/308 43/255/309 
f 43/255/310 48/256/311 62/257/312 
f 57/258/313 44/259/314 43/260/315 
f 43/260/316 63/261/317 57/258/318 
f 55/203/319 54/202/320 63/211/321 
f 63/211/322 62/262/323 55/203/324 
f 59/264/325 62/265/326 61/266/327 
f 61/266/328 60/263/329 59/264/330 
f 58/268/331 57/269/332 63/270/333 
f 63/270/334 64/267/335 58/268/336 
f 52/272/337 55/203/338 62/273/339 
f 62/273/340 59/271/341 52/272/342 
f 49/274/343 64/275/344 63/211/345 
f 63/211/346 54/202/347 49/274/348 
f 50/278/349 49/279/350 54/276/351 
f 54/276/352 56/277/353 50/278/354 
f 52/281/355 51/282/356 53/283/357 
f 53/283/358 55/280/359 52/281/360 
# 0 polygons - 60 triangles

