# 3ds Max Wavefront OBJ Exporter v0.97b - (c)2007 guruware
# 创建的文件:24.08.2017 10:11:12

mtllib IKE170023.mtl

#
# object Generic_Models
#

#
# object Generic_Models
#

v  -250.8412 50.0000 45.1049
v  -250.8412 0.0000 45.1049
v  519.1588 0.0000 45.1049
v  519.1588 50.0000 45.1049
v  519.1588 0.0000 -344.8951
v  -250.8412 0.0000 -344.8951
v  -250.8412 50.0000 -344.8951
v  519.1588 50.0000 -344.8951
# 8 vertices

vn 0.0000 0.0000 1.0000
vn 0.0000 0.0000 -1.0000
vn 0.0000 1.0000 -0.0000
vn -1.0000 0.0000 -0.0000
vn 0.0000 -1.0000 -0.0000
vn 1.0000 0.0000 -0.0000
# 6 vertex normals

vt 0.0000 1.0000 0.0000
vt 0.0000 0.0000 0.0000
vt 1.0000 0.0000 0.0000
vt 1.0000 1.0000 0.0000
vt -0.0000 1.0000 0.0000
vt -0.0000 0.0000 0.0000
# 6 texture coords

g Generic_Models
usemtl 1
s 1
f 1/1/1 2/2/1 3/3/1 4/4/1 
f 5/2/2 6/3/2 7/4/2 8/1/2 
f 4/3/3 8/4/3 7/1/3 1/2/3 
f 1/4/4 7/1/4 6/2/4 2/3/4 
f 2/3/5 6/4/5 5/5/5 3/6/5 
f 3/2/6 5/3/6 8/4/6 4/1/6 
# 6 polygons

#
# object Generic_Models
#

#
# object Generic_Models
#

v  -250.8412 720.0000 45.1049
v  -250.8412 50.0000 45.1049
v  -200.8412 50.0000 45.1049
v  -200.8412 720.0000 45.1049
v  -200.8412 50.0000 -344.8951
v  -250.8412 50.0000 -344.8951
v  -250.8412 720.0000 -344.8951
v  -200.8412 720.0000 -344.8951
# 8 vertices

vn 0.0000 0.0000 1.0000
vn 0.0000 0.0000 -1.0000
vn 0.0000 1.0000 -0.0000
vn -1.0000 0.0000 -0.0000
vn 0.0000 -1.0000 -0.0000
vn 1.0000 0.0000 -0.0000
# 6 vertex normals

vt 0.0000 1.0000 0.0000
vt 0.0000 0.0000 0.0000
vt 1.0000 0.0000 0.0000
vt 1.0000 1.0000 0.0000
# 4 texture coords

g Generic_Models
usemtl 1
s 1
f 9/7/7 10/8/7 11/9/7 12/10/7 
f 13/8/8 14/9/8 15/10/8 16/7/8 
f 12/9/9 16/10/9 15/7/9 9/8/9 
f 9/10/10 15/7/10 14/8/10 10/9/10 
f 10/9/11 14/10/11 13/7/11 11/8/11 
f 11/8/12 13/9/12 16/10/12 12/7/12 
# 6 polygons

#
# object Generic_Models
#

#
# object Generic_Models
#

v  469.1588 50.0000 45.1049
v  519.1588 50.0000 45.1049
v  519.1588 720.0000 45.1049
v  469.1588 720.0000 45.1049
v  519.1588 720.0000 -344.8951
v  519.1588 50.0000 -344.8951
v  469.1588 50.0000 -344.8951
v  469.1588 720.0000 -344.8951
# 8 vertices

vn 0.0000 0.0000 1.0000
vn 0.0000 0.0000 -1.0000
vn 0.0000 1.0000 -0.0000
vn 1.0000 0.0000 -0.0000
vn 0.0000 -1.0000 -0.0000
vn -1.0000 0.0000 -0.0000
# 6 vertex normals

vt 0.0000 0.0000 0.0000
vt 1.0000 0.0000 0.0000
vt 1.0000 1.0000 0.0000
vt 0.0000 1.0000 0.0000
# 4 texture coords

g Generic_Models
usemtl 1
s 1
f 17/11/13 18/12/13 19/13/13 20/14/13 
f 21/14/14 22/11/14 23/12/14 24/13/14 
f 19/12/15 21/13/15 24/14/15 20/11/15 
f 18/11/16 22/12/16 21/13/16 19/14/16 
f 17/12/17 23/13/17 22/14/17 18/11/17 
f 20/13/18 24/14/18 23/11/18 17/12/18 
# 6 polygons

#
# object Generic_Models
#

#
# object Generic_Models
#

v  -200.8412 390.0000 45.1049
v  -200.8412 380.2000 45.1049
v  469.1588 380.2000 45.1049
v  469.1588 390.0000 45.1049
v  469.1588 380.2000 -344.8951
v  -200.8412 380.2000 -344.8951
v  -200.8412 390.0000 -344.8951
v  469.1588 390.0000 -344.8951
# 8 vertices

vn 0.0000 0.0000 1.0000
vn 0.0000 0.0000 -1.0000
vn 0.0000 1.0000 -0.0000
vn -1.0000 0.0000 -0.0000
vn 0.0000 -1.0000 -0.0000
vn 1.0000 0.0000 -0.0000
# 6 vertex normals

vt 0.0000 1.0000 0.0000
vt 0.0000 0.0000 0.0000
vt 1.0000 0.0000 0.0000
vt 1.0000 1.0000 0.0000
vt -0.0000 0.0000 0.0000
vt -0.0000 1.0000 0.0000
# 6 texture coords

g Generic_Models
usemtl 1
s 1
f 25/15/19 26/16/19 27/17/19 28/18/19 
f 29/19/20 30/17/20 31/18/20 32/20/20 
f 28/17/21 32/18/21 31/15/21 25/16/21 
f 25/18/22 31/20/22 30/19/22 26/17/22 
f 26/17/23 30/18/23 29/15/23 27/16/23 
f 27/16/24 29/17/24 32/18/24 28/15/24 
# 6 polygons

#
# object Generic_Models
#

#
# object Generic_Models
#

v  129.1588 720.0000 45.1049
v  129.1588 390.0000 45.1049
v  139.1588 390.0000 45.1049
v  139.1588 720.0000 45.1049
v  139.1588 390.0000 -344.8951
v  129.1588 390.0000 -344.8951
v  129.1588 720.0000 -344.8951
v  139.1588 720.0000 -344.8951
# 8 vertices

vn 0.0000 0.0000 1.0000
vn 0.0000 0.0000 -1.0000
vn 0.0000 1.0000 -0.0000
vn -1.0000 0.0000 -0.0000
vn 0.0000 -1.0000 -0.0000
vn 1.0000 0.0000 -0.0000
# 6 vertex normals

vt 0.0000 1.0000 0.0000
vt 0.0000 0.0000 0.0000
vt 1.0000 0.0000 0.0000
vt 1.0000 1.0000 0.0000
# 4 texture coords

g Generic_Models
usemtl 1
s 1
f 33/21/25 34/22/25 35/23/25 36/24/25 
f 37/22/26 38/23/26 39/24/26 40/21/26 
f 36/23/27 40/24/27 39/21/27 33/22/27 
f 33/24/28 39/21/28 38/22/28 34/23/28 
f 34/23/29 38/24/29 37/21/29 35/22/29 
f 35/22/30 37/23/30 40/24/30 36/21/30 
# 6 polygons

#
# object Generic_Models
#

#
# object Generic_Models
#

v  129.1588 380.2000 45.1049
v  129.1588 50.0000 45.1049
v  139.1588 50.0000 45.1049
v  139.1588 380.2000 45.1049
v  139.1588 50.0000 -344.8951
v  129.1588 50.0000 -344.8951
v  129.1588 380.2000 -344.8951
v  139.1588 380.2000 -344.8951
# 8 vertices

vn 0.0000 0.0000 1.0000
vn 0.0000 0.0000 -1.0000
vn 0.0000 1.0000 -0.0000
vn -1.0000 0.0000 -0.0000
vn 0.0000 -1.0000 -0.0000
vn 1.0000 0.0000 -0.0000
# 6 vertex normals

vt 0.0000 1.0000 0.0000
vt 0.0000 0.0000 0.0000
vt 1.0000 0.0000 0.0000
vt 1.0000 1.0000 0.0000
# 4 texture coords

g Generic_Models
usemtl 1
s 1
f 41/25/31 42/26/31 43/27/31 44/28/31 
f 45/26/32 46/27/32 47/28/32 48/25/32 
f 44/27/33 48/28/33 47/25/33 41/26/33 
f 41/28/34 47/25/34 46/26/34 42/27/34 
f 42/27/35 46/28/35 45/25/35 43/26/35 
f 43/26/36 45/27/36 48/28/36 44/25/36 
# 6 polygons

#
# object Generic_Models
#

#
# object Generic_Models
#

v  -195.8412 685.0000 -339.8951
v  -160.8412 685.0000 -339.8951
v  -160.8412 685.0000 -344.8951
v  -200.8412 685.0000 -344.8951
v  -200.8412 685.0000 -314.8951
v  -195.8412 685.0000 -314.8951
v  -195.8412 646.1215 -339.8951
v  -195.8412 646.1215 -314.8951
v  -200.8412 646.1215 -314.8951
v  -200.8412 646.1215 -344.8951
v  -160.8412 646.1215 -344.8951
v  -160.8412 646.1215 -339.8951
# 12 vertices

vn 0.0000 1.0000 -0.0000
vn 0.0000 -1.0000 -0.0000
vn -1.0000 0.0000 -0.0000
vn 0.0000 0.0000 1.0000
vn 1.0000 0.0000 -0.0000
vn 0.0000 0.0000 -1.0000
# 6 vertex normals

vt 0.1250 0.8333 0.0000
vt 1.0000 0.8333 0.0000
vt 1.0000 1.0000 0.0000
vt 0.0000 1.0000 0.0000
vt 0.0000 0.0000 0.0000
vt 0.1250 0.0000 0.0000
vt 0.8750 0.8333 0.0000
vt 0.8750 0.0000 0.0000
vt 1.0000 0.0000 0.0000
vt 0.0000 0.8333 0.0000
# 10 texture coords

g Generic_Models
usemtl 1
s 1
f 49/29/37 50/30/37 51/31/37 52/32/37 
f 53/33/37 54/34/37 49/29/37 52/32/37 
f 55/35/38 56/36/38 57/37/38 58/31/38 
f 59/32/38 60/38/38 55/35/38 58/31/38 
f 52/32/39 58/33/39 57/37/39 53/31/39 
f 53/32/40 57/33/40 56/37/40 54/31/40 
f 54/32/41 56/33/41 55/37/41 49/31/41 
f 49/32/40 55/33/40 60/37/40 50/31/40 
f 50/32/41 60/33/41 59/37/41 51/31/41 
f 51/32/42 59/33/42 58/37/42 52/31/42 
# 10 polygons

#
# object Generic_Models
#

#
# object Generic_Models
#

v  464.1588 685.0000 -339.8951
v  464.1588 685.0000 -314.8951
v  469.1588 685.0000 -314.8951
v  469.1588 685.0000 -344.8951
v  429.1588 685.0000 -344.8951
v  429.1588 685.0000 -339.8951
v  464.1588 646.1215 -339.8951
v  429.1588 646.1215 -339.8951
v  429.1588 646.1215 -344.8951
v  469.1588 646.1215 -344.8951
v  469.1588 646.1215 -314.8951
v  464.1588 646.1215 -314.8951
# 12 vertices

vn 0.0000 1.0000 -0.0000
vn 0.0000 -1.0000 -0.0000
vn 1.0000 0.0000 -0.0000
vn 0.0000 0.0000 1.0000
vn -1.0000 0.0000 -0.0000
vn 0.0000 0.0000 -1.0000
# 6 vertex normals

vt 0.8750 0.8333 0.0000
vt 0.8750 0.0000 0.0000
vt 1.0000 0.0000 0.0000
vt 1.0000 1.0000 0.0000
vt 0.0000 1.0000 0.0000
vt 0.0000 0.8333 0.0000
vt 0.1250 0.8333 0.0000
vt 1.0000 0.8333 0.0000
vt 0.0000 0.0000 0.0000
vt 0.1250 0.0000 0.0000
# 10 texture coords

g Generic_Models
usemtl 1
s 1
f 61/39/43 62/40/43 63/41/43 64/42/43 
f 65/43/43 66/44/43 61/39/43 64/42/43 
f 67/45/44 68/46/44 69/42/44 70/43/44 
f 71/47/44 72/48/44 67/45/44 70/43/44 
f 63/43/45 71/47/45 70/41/45 64/42/45 
f 62/43/46 72/47/46 71/41/46 63/42/46 
f 61/43/47 67/47/47 72/41/47 62/42/47 
f 66/43/46 68/47/46 67/41/46 61/42/46 
f 65/43/47 69/47/47 68/41/47 66/42/47 
f 64/43/48 70/47/48 69/41/48 65/42/48 
# 10 polygons

#
# object Generic_Models
#

#
# object Generic_Models
#

v  -250.8412 770.0000 45.1049
v  -250.8412 720.0000 45.1049
v  519.1588 720.0000 45.1049
v  519.1588 770.0000 45.1049
v  519.1588 720.0000 -344.8951
v  -250.8412 720.0000 -344.8951
v  -250.8412 770.0000 -344.8951
v  519.1588 770.0000 -344.8951
# 8 vertices

vn 0.0000 0.0000 1.0000
vn 0.0000 0.0000 -1.0000
vn 0.0000 1.0000 -0.0000
vn -1.0000 0.0000 -0.0000
vn 0.0000 -1.0000 -0.0000
vn 1.0000 0.0000 -0.0000
# 6 vertex normals

vt 0.0000 1.0000 0.0000
vt 0.0000 0.0000 0.0000
vt 1.0000 0.0000 0.0000
vt 1.0000 1.0000 0.0000
vt -0.0000 1.0000 0.0000
vt -0.0000 0.0000 0.0000
# 6 texture coords

g Generic_Models
usemtl 1
s 1
f 73/49/49 74/50/49 75/51/49 76/52/49 
f 77/50/50 78/51/50 79/52/50 80/49/50 
f 76/51/51 80/52/51 79/49/51 73/50/51 
f 73/52/52 79/49/52 78/50/52 74/51/52 
f 74/51/53 78/52/53 77/53/53 75/54/53 
f 75/50/54 77/51/54 80/52/54 76/49/54 
# 6 polygons

#
# object Generic_Models
#

#
# object Generic_Models
#

v  -195.8412 375.2000 45.1049
v  -195.8412 54.7220 45.1049
v  124.1588 54.7220 45.1049
v  124.1588 375.2000 45.1049
v  124.1588 54.7220 33.5950
v  -195.8412 54.7220 33.5950
v  -195.8412 375.2000 33.5950
v  124.1588 375.2000 33.5950
# 8 vertices

vn 0.0000 0.0000 1.0000
vn 0.0000 0.0000 -1.0000
vn 0.0000 1.0000 -0.0000
vn -1.0000 0.0000 -0.0000
vn 0.0000 -1.0000 -0.0000
vn 1.0000 0.0000 -0.0000
# 6 vertex normals

vt 0.0000 1.0000 0.0000
vt 0.0000 0.0000 0.0000
vt 1.0000 0.0000 0.0000
vt 1.0000 1.0000 0.0000
# 4 texture coords

g Generic_Models
usemtl 2
s 1
f 81/55/55 82/56/55 83/57/55 84/58/55 
f 85/56/56 86/57/56 87/58/56 88/55/56 
f 84/57/57 88/58/57 87/55/57 81/56/57 
f 81/58/58 87/55/58 86/56/58 82/57/58 
f 82/57/59 86/58/59 85/55/59 83/56/59 
f 83/56/60 85/57/60 88/58/60 84/55/60 
# 6 polygons

#
# object Generic_Models
#

#
# object Generic_Models
#

v  93.7942 208.2523 53.5950
v  95.0001 208.7518 53.5950
v  90.0001 208.7518 53.5950
v  91.2060 208.2523 53.5950
v  96.8302 210.5819 53.5950
v  97.5001 213.0819 53.5950
v  96.0356 209.5464 53.5950
v  97.3297 211.7878 53.5950
v  88.9645 216.6174 53.5950
v  87.5001 213.0819 53.5950
v  87.6704 211.7878 53.5950
v  88.1699 210.5819 53.5950
v  92.5001 208.0819 53.5950
v  88.9645 209.5464 53.5950
v  97.3297 214.3760 53.5950
v  95.0001 217.4120 53.5950
v  96.8302 215.5819 53.5950
v  96.0356 216.6174 53.5950
v  91.2060 217.9115 53.5950
v  90.0001 217.4120 53.5950
v  92.5001 218.0819 53.5950
v  93.7942 217.9115 53.5950
v  88.1699 215.5819 53.5950
v  87.6704 214.3760 53.5950
v  91.2060 217.9115 45.1049
v  92.5001 218.0819 45.1049
v  93.7942 217.9115 45.1049
v  95.0001 217.4120 45.1049
v  96.0356 216.6174 45.1049
v  96.8302 215.5819 45.1049
v  97.3297 214.3760 45.1049
v  90.0001 217.4120 45.1049
v  88.9645 216.6174 45.1049
v  97.5001 213.0819 45.1049
v  95.0001 208.7518 45.1049
v  87.6704 214.3760 45.1049
v  88.1699 215.5819 45.1049
v  87.5001 213.0819 45.1049
v  88.1699 210.5819 45.1049
v  97.3297 211.7878 45.1049
v  96.8302 210.5819 45.1049
v  96.0356 209.5464 45.1049
v  90.0001 208.7518 45.1049
v  88.9645 209.5464 45.1049
v  91.2060 208.2523 45.1049
v  93.7942 208.2523 45.1049
v  92.5001 208.0819 45.1049
v  87.6704 211.7878 45.1049
# 48 vertices

vn 0.0000 0.0000 1.0000
vn 0.0000 0.0000 -1.0000
vn -0.9914 -0.1305 -0.0000
vn -0.9659 -0.2588 -0.0000
vn -0.9239 -0.3827 -0.0000
vn -0.6088 -0.7934 -0.0000
vn -0.5000 -0.8660 -0.0000
vn -0.7934 -0.6088 -0.0000
vn -0.3827 -0.9239 -0.0000
vn 0.0000 -1.0000 -0.0000
vn -0.1305 -0.9914 -0.0000
vn 0.1305 -0.9914 -0.0000
vn 0.3827 -0.9239 -0.0000
vn 0.5000 -0.8660 -0.0000
vn 0.7071 -0.7071 -0.0000
vn 0.7933 -0.6088 -0.0000
vn 0.9239 -0.3827 -0.0000
vn 0.9659 -0.2588 -0.0000
vn 0.9914 -0.1305 -0.0000
vn 0.9914 0.1305 -0.0000
vn 0.9659 0.2588 -0.0000
vn 0.9239 0.3827 -0.0000
vn 0.7071 0.7071 -0.0000
vn 0.5000 0.8660 -0.0000
vn 0.7933 0.6088 -0.0000
vn 0.2588 0.9659 -0.0000
vn 0.1305 0.9914 -0.0000
vn -0.1305 0.9914 -0.0000
vn -0.2588 0.9659 -0.0000
vn -0.3827 0.9239 -0.0000
vn -0.7934 0.6088 -0.0000
vn -0.6088 0.7934 -0.0000
vn -0.9239 0.3827 -0.0000
vn -0.9659 0.2588 -0.0000
vn -0.9914 0.1305 -0.0000
# 35 vertex normals

vt 0.6294 0.0170 0.0000
vt 0.7500 0.0670 0.0000
vt 0.2500 0.0670 0.0000
vt 0.3706 0.0170 0.0000
vt 0.9330 0.2500 0.0000
vt 1.0000 0.5000 0.0000
vt 0.8536 0.1464 0.0000
vt 0.9830 0.3706 0.0000
vt 0.1464 0.8536 0.0000
vt 0.0000 0.5000 0.0000
vt 0.0170 0.3706 0.0000
vt 0.0670 0.2500 0.0000
vt 0.5000 0.0000 0.0000
vt 0.1464 0.1464 0.0000
vt 0.9830 0.6294 0.0000
vt 0.7500 0.9330 0.0000
vt 0.9330 0.7500 0.0000
vt 0.8536 0.8536 0.0000
vt 0.3706 0.9830 0.0000
vt 0.2500 0.9330 0.0000
vt 0.5000 1.0000 0.0000
vt 0.6294 0.9830 0.0000
vt 0.0670 0.7500 0.0000
vt 0.0170 0.6294 0.0000
vt 0.0000 1.0000 0.0000
vt 0.0000 0.7412 0.0170
vt 1.0000 0.7412 0.0170
vt 1.0000 1.0000 0.0000
vt 0.0000 0.5000 0.0670
vt 1.0000 0.5000 0.0670
vt 0.0000 0.2929 0.1464
vt 0.7500 1.0000 0.1340
vt 0.7500 0.0000 0.1340
vt 1.0000 0.2929 0.1464
vt 0.6294 1.0000 0.0341
vt 0.6294 0.0000 0.0341
vt 0.3706 1.0000 0.0341
vt 0.3706 0.0000 0.0341
vt 1.0000 0.1340 0.7500
vt 0.0000 0.1340 0.7500
vt 1.0000 0.2929 0.8536
vt 1.0000 0.5000 0.9330
vt 0.0000 0.5000 0.9330
vt 0.0000 0.2929 0.8536
vt 1.0000 0.7412 0.9830
vt 0.0000 0.7412 0.9830
vt 0.0000 1.0000 1.0000
vt 1.0000 1.0000 1.0000
vt 1.0000 0.0000 1.0000
vt 1.0000 0.2588 0.9830
vt 0.0000 0.2588 0.9830
vt 0.0000 0.0000 1.0000
vt 1.0000 0.7071 0.8536
vt 0.7500 1.0000 0.8660
vt 0.7500 0.0000 0.8660
vt 0.0000 0.7071 0.8536
vt 0.6294 1.0000 0.9659
vt 0.6294 0.0000 0.9659
vt 0.5000 0.0000 1.0000
vt 0.5000 1.0000 1.0000
vt 0.3706 1.0000 0.9659
vt 0.3706 0.0000 0.9659
vt 0.0000 0.8660 0.2500
vt 1.0000 0.8660 0.2500
vt 0.0000 0.7071 0.1464
vt 1.0000 0.7071 0.1464
vt 0.0000 0.2588 0.0170
vt 1.0000 0.2588 0.0170
vt 1.0000 0.0000 0.0000
vt 0.0000 0.0000 0.0000
# 70 texture coords

g Generic_Models
usemtl 3
s 1
f 89/59/61 90/60/61 91/61/61 92/62/61 
f 93/63/61 94/64/61 90/60/61 95/65/61 
f 96/66/61 94/64/61 93/63/61 
f 90/60/61 97/67/61 98/68/61 91/61/61 
f 98/68/61 99/69/61 100/70/61 91/61/61 
f 89/59/61 92/62/61 101/71/61 
f 91/61/61 100/70/61 102/72/61 
f 90/60/61 94/64/61 103/73/61 104/74/61 
f 103/73/61 105/75/61 106/76/61 104/74/61 
f 107/77/61 108/78/61 104/74/61 109/79/61 
f 104/74/61 110/80/61 109/79/61 
f 90/60/61 104/74/61 108/78/61 97/67/61 
f 97/67/61 111/81/61 112/82/61 98/68/61 
f 113/80/62 114/79/62 115/77/62 116/78/62 
f 117/67/62 118/81/62 119/82/62 116/78/62 
f 120/74/62 113/80/62 116/78/62 121/76/62 
f 116/78/62 122/68/62 123/61/62 121/76/62 
f 124/73/62 125/75/62 121/76/62 126/64/62 
f 126/64/62 121/76/62 123/61/62 127/63/62 
f 116/78/62 119/82/62 122/68/62 
f 123/61/62 122/68/62 128/69/62 129/70/62 
f 123/61/62 129/70/62 130/72/62 
f 131/60/62 132/65/62 123/61/62 133/59/62 
f 123/61/62 134/62/62 135/71/62 133/59/62 
f 132/65/62 127/63/62 123/61/62 
f 136/66/62 126/64/62 127/63/62 
f 126/83/63 136/84/64 99/85/64 98/86/63 
f 136/84/64 127/87/65 100/88/65 99/85/64 
f 132/89/66 131/90/67 91/91/67 102/92/66 
s 2
f 127/87/68 132/89/68 102/92/68 100/88/68 
s 1
f 131/90/67 133/93/69 92/94/69 91/91/67 
s 2
f 101/71/70 92/94/71 133/93/71 135/79/70 
f 135/79/70 134/95/72 89/96/72 101/71/70 
s 1
f 134/95/73 123/97/74 90/98/74 89/96/73 
f 130/99/75 129/100/76 93/101/76 95/102/75 
f 123/97/74 130/99/75 95/102/75 90/98/74 
s 2
f 129/100/77 128/103/78 96/104/78 93/101/77 
f 94/105/79 96/104/78 128/103/78 122/106/79 
s 1
f 122/107/80 119/108/81 103/109/81 94/110/80 
f 119/108/81 118/100/82 105/101/82 103/109/81 
s 2
f 117/111/83 116/112/84 104/113/84 106/114/83 
f 118/100/85 117/111/83 106/114/83 105/101/85 
f 116/112/84 115/115/86 110/116/86 104/113/84 
f 109/117/87 110/116/86 115/115/86 114/118/87 
s 1
f 114/118/88 113/119/89 107/120/89 109/117/88 
f 113/119/89 120/121/90 108/122/90 107/120/89 
f 121/123/91 125/87/91 111/88/91 97/124/91 
s 2
f 120/121/92 121/123/92 97/124/92 108/122/92 
f 125/87/93 124/125/94 112/126/94 111/88/93 
f 98/127/95 112/126/94 124/125/94 126/128/95 
# 42 polygons - 8 triangles

#
# object Generic_Models
#

#
# object Generic_Models
#

v  144.1588 375.7000 45.1049
v  144.1588 54.7220 45.1049
v  464.1588 54.7220 45.1049
v  464.1588 375.7000 45.1049
v  464.1588 54.7220 33.5950
v  144.1588 54.7220 33.5950
v  144.1588 375.7000 33.5950
v  464.1588 375.7000 33.5950
# 8 vertices

vn 0.0000 0.0000 1.0000
vn 0.0000 0.0000 -1.0000
vn 0.0000 1.0000 -0.0000
vn -1.0000 0.0000 -0.0000
vn 0.0000 -1.0000 -0.0000
vn 1.0000 0.0000 -0.0000
# 6 vertex normals

vt 0.0000 1.0000 0.0000
vt 0.0000 0.0000 0.0000
vt 1.0000 0.0000 0.0000
vt 1.0000 1.0000 0.0000
vt -0.0000 1.0000 0.0000
vt -0.0000 0.0000 0.0000
# 6 texture coords

g Generic_Models
usemtl 2
s 1
f 137/129/96 138/130/96 139/131/96 140/132/96 
f 141/130/97 142/131/97 143/132/97 144/129/97 
f 140/131/98 144/132/98 143/129/98 137/130/98 
f 137/132/99 143/133/99 142/134/99 138/131/99 
f 138/131/100 142/132/100 141/129/100 139/130/100 
f 139/130/101 141/131/101 144/132/101 140/129/101 
# 6 polygons

#
# object Generic_Models
#

#
# object Generic_Models
#

v  433.7942 208.7523 53.5950
v  435.0001 209.2518 53.5950
v  431.2060 208.7523 53.5950
v  432.5001 208.5819 53.5950
v  436.8302 216.0819 53.5950
v  436.0356 217.1174 53.5950
v  437.5001 213.5819 53.5950
v  436.0356 210.0464 53.5950
v  436.8302 211.0819 53.5950
v  437.3297 212.2878 53.5950
v  428.1699 211.0819 53.5950
v  430.0001 209.2518 53.5950
v  428.9645 210.0464 53.5950
v  427.6704 212.2878 53.5950
v  427.6704 214.8760 53.5950
v  427.5001 213.5819 53.5950
v  428.9645 217.1174 53.5950
v  428.1699 216.0819 53.5950
v  435.0001 217.9120 53.5950
v  433.7942 218.4115 53.5950
v  431.2060 218.4115 53.5950
v  432.5001 218.5819 53.5950
v  430.0001 217.9120 53.5950
v  437.3297 214.8760 53.5950
v  431.2060 218.4115 45.1049
v  432.5001 218.5819 45.1049
v  433.7942 218.4115 45.1049
v  435.0001 217.9120 45.1049
v  428.9645 217.1174 45.1049
v  436.0356 217.1174 45.1049
v  428.1699 216.0819 45.1049
v  436.8302 216.0819 45.1049
v  428.1699 211.0819 45.1049
v  430.0001 217.9120 45.1049
v  436.0356 210.0464 45.1049
v  435.0001 209.2518 45.1049
v  427.6704 212.2878 45.1049
v  427.5001 213.5819 45.1049
v  427.6704 214.8760 45.1049
v  437.3297 214.8760 45.1049
v  437.5001 213.5819 45.1049
v  437.3297 212.2878 45.1049
v  436.8302 211.0819 45.1049
v  433.7942 208.7523 45.1049
v  431.2060 208.7523 45.1049
v  430.0001 209.2518 45.1049
v  428.9645 210.0464 45.1049
v  432.5001 208.5819 45.1049
# 48 vertices

vn 0.0000 0.0000 1.0000
vn 0.0000 0.0000 -1.0000
vn -0.9914 -0.1305 -0.0000
vn -0.9659 -0.2588 -0.0000
vn -0.9239 -0.3827 -0.0000
vn -0.7071 -0.7071 -0.0000
vn -0.6088 -0.7934 -0.0000
vn -0.7934 -0.6088 -0.0000
vn -0.3827 -0.9239 -0.0000
vn -0.2588 -0.9659 -0.0000
vn -0.1305 -0.9914 -0.0000
vn 0.1305 -0.9914 -0.0000
vn 0.2588 -0.9659 -0.0000
vn 0.3827 -0.9239 -0.0000
vn 0.7934 -0.6088 -0.0000
vn 0.8660 -0.5000 -0.0000
vn 0.6088 -0.7934 -0.0000
vn 0.9239 -0.3827 -0.0000
vn 0.9914 -0.1305 -0.0000
vn 0.9914 0.1305 -0.0000
vn 0.9239 0.3827 -0.0000
vn 0.8660 0.5000 -0.0000
vn 0.7071 0.7071 -0.0000
vn 0.6088 0.7933 -0.0000
vn 0.3827 0.9239 -0.0000
vn -0.0000 1.0000 -0.0000
vn 0.1305 0.9914 -0.0000
vn 0.0000 1.0000 -0.0000
vn -0.1305 0.9914 -0.0000
vn -0.3827 0.9239 -0.0000
vn -0.7071 0.7071 -0.0000
vn -0.7933 0.6088 -0.0000
vn -0.6088 0.7933 -0.0000
vn -0.9239 0.3827 -0.0000
vn -0.9659 0.2588 -0.0000
vn -0.9914 0.1305 -0.0000
# 36 vertex normals

vt 0.6294 0.0170 0.0000
vt 0.7500 0.0670 0.0000
vt 0.3706 0.0170 0.0000
vt 0.5000 0.0000 0.0000
vt 0.9330 0.7500 0.0000
vt 0.8536 0.8536 0.0000
vt 1.0000 0.5000 0.0000
vt 0.8536 0.1464 0.0000
vt 0.9330 0.2500 0.0000
vt 0.9830 0.3706 0.0000
vt 0.0670 0.2500 0.0000
vt 0.2500 0.0670 0.0000
vt 0.1464 0.1464 0.0000
vt 0.0170 0.3706 0.0000
vt 0.0170 0.6294 0.0000
vt 0.0000 0.5000 0.0000
vt 0.1464 0.8536 0.0000
vt 0.0670 0.7500 0.0000
vt 0.7500 0.9330 0.0000
vt 0.6294 0.9830 0.0000
vt 0.3706 0.9830 0.0000
vt 0.5000 1.0000 0.0000
vt 0.2500 0.9330 0.0000
vt 0.9830 0.6294 0.0000
vt 0.0000 1.0000 0.0000
vt 0.0000 0.7412 0.0170
vt 1.0000 0.7412 0.0170
vt 1.0000 1.0000 0.0000
vt 0.0000 0.5000 0.0670
vt 1.0000 0.5000 0.0670
vt 0.0000 0.2929 0.1464
vt 0.7500 1.0000 0.1340
vt 0.7500 0.0000 0.1340
vt 1.0000 0.2929 0.1464
vt 0.6294 1.0000 0.0341
vt 0.6294 0.0000 0.0341
vt 0.3706 1.0000 0.0341
vt 0.3706 0.0000 0.0341
vt 1.0000 0.1340 0.7500
vt 0.0000 0.1340 0.7500
vt 1.0000 0.2929 0.8536
vt 1.0000 0.5000 0.9330
vt 0.0000 0.5000 0.9330
vt 0.0000 0.2929 0.8536
vt 1.0000 0.7412 0.9830
vt 0.0000 0.7412 0.9830
vt 0.0000 1.0000 1.0000
vt 1.0000 1.0000 1.0000
vt 1.0000 0.0000 1.0000
vt 1.0000 0.2588 0.9830
vt 0.0000 0.2588 0.9830
vt 0.0000 0.0000 1.0000
vt 1.0000 0.7071 0.8536
vt 0.7500 1.0000 0.8660
vt 0.7500 0.0000 0.8660
vt 0.0000 0.7071 0.8536
vt 0.6294 1.0000 0.9659
vt 0.6294 0.0000 0.9659
vt 0.5000 0.0000 1.0000
vt 0.5000 1.0000 1.0000
vt 0.3706 1.0000 0.9659
vt 0.3706 0.0000 0.9659
vt 0.0000 0.8660 0.2500
vt 1.0000 0.8660 0.2500
vt 0.0000 0.7071 0.1464
vt 1.0000 0.7071 0.1464
vt 0.0000 0.2588 0.0170
vt 1.0000 0.2588 0.0170
vt 1.0000 0.0000 0.0000
vt 0.0000 0.0000 0.0000
# 70 texture coords

g Generic_Models
usemtl 3
s 1
f 145/135/102 146/136/102 147/137/102 148/138/102 
f 149/139/102 150/140/102 146/136/102 151/141/102 
f 146/136/102 152/142/102 153/143/102 151/141/102 
f 154/144/102 151/141/102 153/143/102 
f 146/136/102 150/140/102 155/145/102 156/146/102 
f 146/136/102 156/146/102 147/137/102 
f 156/146/102 155/145/102 157/147/102 
f 158/148/102 155/145/102 159/149/102 160/150/102 
f 155/145/102 150/140/102 161/151/102 162/152/102 
f 163/153/102 164/154/102 165/155/102 150/140/102 
f 165/155/102 164/154/102 166/156/102 
f 162/152/102 159/149/102 155/145/102 
f 165/155/102 167/157/102 161/151/102 150/140/102 
f 149/139/102 151/141/102 168/158/102 
f 169/154/103 170/156/103 171/155/103 172/157/103 
f 173/140/103 172/157/103 174/151/103 175/139/103 
f 174/151/103 176/152/103 177/143/103 175/139/103 
f 169/154/103 172/157/103 173/140/103 178/153/103 
f 176/152/103 179/147/103 180/146/103 177/143/103 
f 181/144/103 182/141/103 183/158/103 175/139/103 
f 176/152/103 184/149/103 185/150/103 179/147/103 
f 179/147/103 185/150/103 186/148/103 187/145/103 
f 180/146/103 188/137/103 189/135/103 190/136/103 
f 190/136/103 191/142/103 177/143/103 180/146/103 
f 181/144/103 175/139/103 177/143/103 
f 189/135/103 188/137/103 192/138/103 
f 182/159/104 181/160/105 158/161/105 160/162/104 
f 181/160/105 177/163/106 155/164/106 158/161/105 
s 2
f 191/165/107 190/166/108 156/167/108 157/168/107 
f 177/163/109 191/165/107 157/168/107 155/164/109 
s 1
f 190/166/110 189/169/111 147/170/111 156/167/110 
f 148/138/112 147/170/111 189/169/111 192/156/112 
s 2
f 192/156/113 188/171/114 145/172/114 148/138/113 
f 188/171/114 180/173/115 146/174/115 145/172/114 
s 1
f 179/175/116 187/176/117 153/177/117 152/178/116 
s 4
f 180/173/118 179/175/118 152/178/118 146/174/118 
s 1
f 187/176/117 186/179/119 154/180/119 153/177/117 
s 2
f 151/181/120 154/180/120 186/179/120 185/182/120 
s 1
f 185/183/121 184/184/121 168/185/121 151/186/121 
s 2
f 184/184/122 176/176/123 149/177/123 168/185/122 
f 174/187/124 172/188/125 163/189/125 150/190/124 
f 176/176/123 174/187/124 150/190/124 149/177/123 
s 1
f 172/188/126 171/191/126 164/192/126 163/189/126 
s 2
f 166/193/127 164/192/128 171/191/128 170/194/129 
f 170/194/129 169/195/130 165/196/130 166/193/127 
s 1
f 169/195/131 178/197/131 167/198/131 165/196/131 
s 2
f 173/199/132 175/163/133 162/164/133 161/200/132 
f 178/197/134 173/199/132 161/200/132 167/198/134 
s 1
f 175/163/135 183/201/136 159/202/136 162/164/135 
f 160/203/137 159/202/136 183/201/136 182/204/137 
# 42 polygons - 8 triangles

