# 3ds Max Wavefront OBJ Exporter v0.97b - (c)2007 guruware
# 创建的文件:23.08.2017 16:39:38

mtllib IKE170005.mtl

#
# object Generic_Models
#

#
# object IKE170005__IKEA_KALLAX_Demi___tag__re__gris_clair
#

v  181.9828 350.0000 3.6816
v  71.9828 345.0000 3.6816
v  176.9829 345.0000 3.6816
v  181.9828 0.0000 3.6816
v  176.9829 145.0000 3.6816
v  176.9829 25.0000 3.6816
v  76.9828 345.0000 3.6816
v  76.9828 145.0000 3.6816
v  71.9828 145.0000 3.6816
v  -148.0172 350.0000 3.6816
v  -143.0172 345.0000 3.6816
v  -38.0172 140.0000 3.6816
v  -33.0172 140.0000 3.6816
v  176.9829 140.0000 3.6816
v  -33.0172 25.0000 3.6816
v  -148.0172 0.0000 3.6816
v  -38.0172 25.0000 3.6816
v  -143.0172 145.0000 3.6816
v  -143.0172 140.0000 3.6816
v  -143.0172 25.0000 3.6816
v  181.9828 350.0000 -116.3184
v  -148.0172 350.0000 -116.3184
v  -148.0172 20.0000 -4.3184
v  -148.0172 8.0000 -4.3184
v  -148.0172 0.0000 -12.4712
v  -148.0172 8.0000 -12.4712
v  -148.0172 20.0000 -116.3184
v  181.9828 20.0000 -116.3184
v  181.9828 20.0000 -4.3184
v  181.9828 8.0000 -12.4887
v  181.9828 8.0000 -4.3184
v  181.9828 0.0000 -12.4887
v  -143.0172 140.0000 -106.3184
v  -38.0172 140.0000 -106.3184
v  -38.0172 25.0000 -106.3184
v  -143.0172 25.0000 -106.3184
v  71.9828 345.0000 -106.3184
v  71.9828 145.0000 -106.3184
v  -143.0172 145.0000 -106.3184
v  -143.0172 345.0000 -106.3184
v  76.9828 345.0000 -106.3184
v  176.9829 345.0000 -106.3184
v  176.9829 145.0000 -106.3184
v  76.9828 145.0000 -106.3184
v  -33.0172 140.0000 -106.3184
v  176.9829 140.0000 -106.3184
v  176.9829 25.0000 -106.3184
v  -33.0172 25.0000 -106.3184
v  174.9828 0.0000 -19.4887
v  178.4829 0.0000 -18.5509
v  181.7443 0.0000 -14.3004
v  179.9326 0.0000 -17.4384
v  181.0450 0.0000 -15.9887
v  176.7946 0.0000 -19.2502
v  -140.9997 0.0000 -19.4887
v  -147.7780 0.0000 -14.2875
v  -147.0770 0.0000 -15.9800
v  -145.9618 0.0000 -17.4333
v  -142.8159 0.0000 -19.2496
v  -144.5084 0.0000 -18.5485
v  -140.9997 8.0000 -19.4887
v  -147.0770 8.0000 -15.9800
v  -147.7780 8.0000 -14.2875
v  -145.9618 8.0000 -17.4333
v  -144.5084 8.0000 -18.5485
v  -142.8159 8.0000 -19.2496
v  174.9828 8.0000 -19.4887
v  181.7443 8.0000 -14.3004
v  181.0450 8.0000 -15.9887
v  179.9326 8.0000 -17.4384
v  178.4829 8.0000 -18.5509
v  176.7946 8.0000 -19.2502
# 72 vertices

vn 0.0000 0.0000 1.0000
vn 1.0000 0.0000 -0.0000
vn 0.0000 1.0000 -0.0000
vn -1.0000 0.0000 -0.0000
vn 0.0000 -1.0000 -0.0000
vn 0.0000 0.0000 -1.0000
vn 0.9914 0.0000 -0.1305
vn 0.9239 0.0000 -0.3827
vn 0.8660 0.0000 -0.5000
vn 0.7934 0.0000 -0.6088
vn 0.6088 0.0000 -0.7934
vn 0.3827 0.0000 -0.9239
vn 0.2588 0.0000 -0.9659
vn 0.1305 0.0000 -0.9914
vn -0.1305 0.0000 -0.9914
vn -0.2588 0.0000 -0.9659
vn -0.3827 0.0000 -0.9239
vn -0.7071 0.0000 -0.7071
vn -0.6088 0.0000 -0.7934
vn -0.7933 0.0000 -0.6088
vn -0.9239 0.0000 -0.3827
vn -0.9914 0.0000 -0.1305
# 22 vertex normals

vt 1.0000 1.0000 0.0000
vt 0.6667 0.9857 0.0000
vt 0.9848 0.9857 0.0000
vt 1.0000 0.0000 0.0000
vt 0.9848 0.4143 0.0000
vt 0.9848 0.0714 0.0000
vt 0.6818 0.9857 0.0000
vt 0.6818 0.4143 0.0000
vt 0.6667 0.4143 0.0000
vt 0.0000 1.0000 0.0000
vt 0.0152 0.9857 0.0000
vt 0.3333 0.4000 0.0000
vt 0.3485 0.4000 0.0000
vt 0.9848 0.4000 0.0000
vt 0.0000 0.0714 0.3485
vt 0.0000 0.0000 0.0000
vt 0.0000 0.0714 0.3333
vt 0.0000 0.4143 0.0152
vt 0.0000 0.4000 0.0152
vt 0.0000 0.0714 0.0152
vt 0.9333 0.0571 0.0000
vt 0.9333 0.0229 0.0000
vt 0.8654 0.0000 0.0000
vt 0.8654 0.0229 0.0000
vt 0.0000 0.0571 0.0000
vt 0.1348 0.0229 0.0000
vt 0.0667 0.0229 0.0000
vt 0.0667 0.0571 0.0000
vt 0.1348 0.0000 0.0000
vt 1.0000 0.0571 0.0000
vt 0.3281 0.0000 0.0000
vt 0.3281 0.3594 0.0000
vt 0.0000 0.3594 0.0000
vt 0.0000 0.3750 0.0000
vt 0.6719 0.3750 0.0000
vt 0.6719 1.0000 0.0000
vt 0.6875 0.3750 0.0000
vt 1.0000 0.3750 0.0000
vt 0.6875 1.0000 0.0000
vt 0.3438 0.0000 0.0000
vt 1.0000 0.3594 0.0000
vt 0.3438 0.3594 0.0000
vt 0.0212 1.0000 0.0000
vt 0.0106 0.9595 0.0000
vt 0.0007 0.7761 0.0000
vt 0.0000 0.6979 0.0000
vt 0.0062 0.9115 0.0000
vt 0.0028 0.8489 0.0000
vt 0.0157 0.9897 0.0000
vt 0.9787 1.0000 0.0000
vt 1.0000 0.6971 0.0000
vt 0.9993 0.7755 0.0000
vt 0.9972 0.8486 0.0000
vt 0.9938 0.9113 0.0000
vt 0.9842 0.9897 0.0000
vt 0.9894 0.9594 0.0000
vt 0.0213 1.0000 0.0000
vt 0.0028 0.7687 0.0000
vt 0.0007 0.6571 0.0000
vt 0.0000 0.5374 0.0000
vt 0.0062 0.8645 0.0000
vt 0.0106 0.9380 0.0000
vt 0.0158 0.9842 0.0000
vt 0.9788 1.0000 0.0000
vt 1.0000 0.5386 0.0000
vt 0.9993 0.6580 0.0000
vt 0.9972 0.7693 0.0000
vt 0.9938 0.8649 0.0000
vt 0.9894 0.9382 0.0000
vt 0.9843 0.9843 0.0000
vt -0.0000 1.0000 0.0000
vt -0.0000 0.0000 0.0000
vt 0.0000 0.0000 1.0000
vt 0.2588 0.0000 0.9659
vt 0.2588 1.0000 0.9659
vt 0.0000 1.0000 1.0000
vt 0.5000 0.0000 0.8660
vt 0.5000 1.0000 0.8660
vt 0.2929 1.0000 0.7071
vt 0.2929 0.0000 0.7071
vt 0.7412 0.0000 0.9659
vt 0.7412 1.0000 0.9659
vt 1.0000 1.0000 1.0000
vt 1.0000 0.0000 1.0000
vt 0.2929 1.0000 0.2929
vt 0.2929 0.0000 0.2929
vt 0.5000 0.0000 0.1340
vt 0.5000 1.0000 0.1340
vt 0.7412 0.0000 0.0341
vt 0.7412 1.0000 0.0341
# 90 texture coords

g IKE170005__IKEA_KALLAX_Demi___tag__re__gris_clair
usemtl 1
s 1
f 1/1/1 2/2/1 3/3/1 4/4/1 
f 3/3/1 5/5/1 6/6/1 4/4/1 
s 2
f 7/7/2 3/3/2 2/2/2 
s 4
f 8/8/1 7/7/1 2/2/1 9/9/1 
s 1
f 2/2/1 1/1/1 10/10/1 11/11/1 
s 4
f 9/9/1 12/12/1 13/13/1 8/8/1 
f 13/13/1 14/14/1 5/5/1 8/8/1 
s 2
f 14/14/2 6/6/2 5/5/2 
s 1
f 4/4/1 6/6/1 15/15/1 16/16/1 
s 4
f 15/15/1 13/13/1 12/12/1 17/17/1 
f 9/9/1 18/18/1 19/19/1 12/12/1 
s 1
f 18/18/1 11/11/1 10/10/1 16/16/1 
f 16/16/1 15/15/1 20/20/1 18/18/1 
s 2
f 15/15/2 17/17/2 20/20/2 
s 8
f 20/20/2 19/19/2 18/18/2 
s 1
f 1/4/3 21/1/3 22/10/3 10/16/3 
f 23/21/4 24/22/4 16/4/4 22/10/4 
f 16/4/4 10/1/4 22/10/4 
f 25/23/4 16/4/4 24/22/4 26/24/4 
f 27/25/4 23/21/4 22/10/4 
f 28/10/5 29/16/5 23/4/5 27/1/5 
f 4/16/2 30/26/2 31/27/2 29/28/2 
f 4/16/2 32/29/2 30/26/2 
f 29/28/2 28/30/2 21/1/2 4/16/2 
f 21/1/2 1/10/2 4/16/2 
f 19/4/5 33/1/5 34/10/5 12/16/5 
f 12/1/4 34/10/4 35/16/4 17/4/4 
f 17/4/3 35/1/3 36/10/3 20/16/3 
f 20/16/2 36/4/2 33/1/2 19/10/2 
f 2/1/4 37/10/4 38/16/4 9/4/4 
f 9/4/3 38/1/3 39/10/3 18/16/3 
f 18/16/2 39/4/2 40/1/2 11/10/2 
f 11/4/5 40/1/5 37/10/5 2/16/5 
f 7/4/5 41/1/5 42/10/5 3/16/5 
f 3/1/4 42/10/4 43/16/4 5/4/4 
f 5/4/3 43/1/3 44/10/3 8/16/3 
f 8/16/2 44/4/2 41/1/2 7/10/2 
f 13/4/5 45/1/5 46/10/5 14/16/5 
f 14/1/4 46/10/4 47/16/4 6/4/4 
f 6/4/3 47/1/3 48/10/3 15/16/3 
f 15/16/2 48/4/2 45/1/2 13/10/2 
f 36/16/1 35/31/1 34/32/1 33/33/1 
f 39/34/1 38/35/1 37/36/1 40/10/1 
f 44/37/1 43/38/1 42/1/1 41/39/1 
f 48/40/1 47/4/1 46/41/1 45/42/1 
f 28/16/6 27/4/6 22/1/6 21/10/6 
f 49/43/5 50/44/5 51/45/5 4/16/5 
f 51/45/5 32/46/5 4/16/5 
f 52/47/5 53/48/5 51/45/5 50/44/5 
f 54/49/5 50/44/5 49/43/5 
f 55/50/5 49/43/5 4/16/5 16/4/5 
f 25/51/5 56/52/5 55/50/5 16/4/5 
f 56/52/5 57/53/5 58/54/5 55/50/5 
f 59/55/5 55/50/5 58/54/5 60/56/5 
f 29/10/6 31/16/6 24/4/6 23/1/6 
f 61/57/3 62/58/3 63/59/3 24/16/3 
f 63/59/3 26/60/3 24/16/3 
f 64/61/3 62/58/3 61/57/3 65/62/3 
f 66/63/3 65/62/3 61/57/3 
f 61/57/3 24/16/3 31/4/3 67/64/3 
f 30/65/3 68/66/3 67/64/3 31/4/3 
f 68/66/3 69/67/3 70/68/3 71/69/3 
f 72/70/3 67/64/3 68/66/3 71/69/3 
f 67/71/6 49/72/6 55/4/6 61/1/6 
f 32/73/7 51/74/7 68/75/7 30/76/7 
s 2
f 51/74/8 53/77/9 69/78/9 68/75/8 
f 70/79/10 69/78/9 53/77/9 52/80/10 
s 1
f 52/80/11 50/77/11 71/78/11 70/79/11 
s 2
f 50/77/12 54/81/13 72/82/13 71/78/12 
f 67/83/14 72/82/13 54/81/13 49/84/14 
s 1
f 55/73/15 59/74/16 66/75/16 61/76/15 
f 59/74/16 60/77/17 65/78/17 66/75/16 
s 2
f 64/85/18 65/78/19 60/77/19 58/86/18 
f 58/86/18 57/87/20 62/88/20 64/85/18 
s 1
f 57/87/21 56/89/21 63/90/21 62/88/21 
s 2
f 26/1/22 63/90/22 56/89/22 25/4/22 
# 64 polygons - 12 triangles

