# 3ds Max Wavefront OBJ Exporter v0.97b - (c)2007 guruware
# 创建的文件:02.06.2017 15:40:11

mtllib IKE150031.mtl

#
# object Rectangle002
#

v  300.000 2101.620 -19.326
v  -300.000 2101.620 -19.326
v  -300.000 2101.620 0.674
v  300.000 2101.620 0.674
v  -300.000 1313.191 -19.326
v  -300.000 1313.191 0.674
v  300.000 1313.191 -19.326
v  300.000 1313.191 0.674
# 8 vertices

vn 0.000 1.000 0.000
vn -1.000 0.000 -0.000
vn -0.000 -1.000 -0.000
vn 1.000 0.000 -0.000
vn 0.000 0.000 -1.000
vn -0.000 -0.000 1.000
vn 0.000 -0.000 1.000
# 7 vertex normals

g Rectangle002
usemtl 012__Default
s 1
f 1//1 2//1 3//1 4//1 
s 4
f 2//2 5//2 6//2 3//2 
s 2
f 5//3 7//3 8//3 6//3 
s 4
f 7//4 1//4 4//4 8//4 
s 16
f 5//5 2//5 1//5 7//5 
f 6//6 8//6 4//6 3//7 
# 6 polygons

#
# object Rectangle003
#

v  300.000 810.656 -19.326
v  -300.000 810.656 -19.326
v  -300.000 810.656 0.674
v  300.000 810.656 0.674
v  -300.000 101.620 -19.326
v  -300.000 101.620 0.674
v  300.000 101.620 -19.326
v  300.000 101.620 0.674
# 8 vertices

vn 0.000 1.000 0.000
vn -1.000 0.000 -0.000
vn -0.000 -1.000 -0.000
vn 1.000 0.000 -0.000
vn 0.000 0.000 -1.000
vn -0.000 -0.000 1.000
vn 0.000 -0.000 1.000
# 7 vertex normals

g Rectangle003
usemtl 012__Default
s 1
f 9//8 10//8 11//8 12//8 
s 4
f 10//9 13//9 14//9 11//9 
s 2
f 13//10 15//10 16//10 14//10 
s 4
f 15//11 9//11 12//11 16//11 
s 16
f 13//12 10//12 9//12 15//12 
f 14//13 16//13 12//13 11//14 
# 6 polygons

#
# object Rectangle004
#

v  -300.000 2101.620 620.674
v  300.000 2101.620 620.674
v  300.000 2101.620 600.674
v  -300.000 2101.620 600.674
v  -300.000 1467.308 620.674
v  -300.000 1467.308 600.674
v  300.000 1467.308 620.674
v  300.000 1467.308 600.674
v  -250.000 1517.308 620.674
v  250.000 1517.308 620.674
v  250.000 1517.308 600.674
v  -250.000 1517.308 600.674
v  -250.000 2051.620 620.674
v  -250.000 2051.620 600.674
v  250.000 2051.620 620.674
v  250.000 2051.620 600.674
# 16 vertices

vn 0.000 1.000 0.000
vn -1.000 0.000 -0.000
vn 0.000 -1.000 -0.000
vn 1.000 0.000 0.000
vn 1.000 0.000 -0.000
vn -1.000 -0.000 -0.000
vn -0.000 0.000 -1.000
vn 0.000 0.000 -1.000
vn 0.000 -0.000 1.000
# 9 vertex normals

vt 0.000 0.001 2.770
vt 1.000 0.001 2.770
vt 1.000 0.999 2.770
vt 0.000 0.999 2.770
vt 0.999 1.330 0.000
vt 0.999 2.770 0.000
vt 0.001 2.770 0.000
vt 0.001 1.330 0.000
vt 0.000 0.001 1.330
vt 1.000 0.001 1.330
vt 1.000 0.999 1.330
vt 0.000 0.999 1.330
vt 0.001 2.770 1.000
vt 0.001 1.330 1.000
vt 0.999 1.330 1.000
vt 0.999 2.770 1.000
vt 0.084 0.001 1.444
vt 0.916 0.001 1.444
vt 0.916 0.999 1.444
vt 0.084 0.999 1.444
vt 0.001 2.657 0.084
vt 0.001 1.444 0.084
vt 0.999 1.444 0.084
vt 0.999 2.657 0.084
vt 0.084 0.001 2.657
vt 0.916 0.001 2.657
vt 0.916 0.999 2.657
vt 0.084 0.999 2.657
vt 0.999 1.444 0.916
vt 0.999 2.657 0.916
vt 0.001 2.657 0.916
vt 0.001 1.444 0.916
vt 0.916 1.444 0.999
vt 0.084 1.444 0.999
vt 0.000 1.330 0.999
vt 1.000 1.330 0.999
vt 0.916 2.657 0.999
vt 1.000 2.770 0.999
vt 0.084 2.657 0.999
vt 0.000 2.770 0.999
vt 0.916 1.444 0.001
vt 0.084 1.444 0.001
vt 0.000 1.330 0.001
vt 1.000 1.330 0.001
vt 1.000 2.770 0.001
vt 0.916 2.657 0.001
vt 0.000 2.770 0.001
vt 0.084 2.657 0.001
# 48 texture coords

g Rectangle004
usemtl 01___Default
s 1
f 17/1/15 18/2/15 19/3/15 20/4/15 
s 4
f 21/5/16 17/6/16 20/7/16 22/8/16 
s 2
f 23/9/17 21/10/17 22/11/17 24/12/17 
s 4
f 18/13/18 23/14/18 24/15/18 19/16/18 
s 1
f 25/17/15 26/18/15 27/19/15 28/20/15 
s 4
f 29/21/19 25/22/19 28/23/19 30/24/19 
s 2
f 31/25/17 29/26/17 30/27/17 32/28/17 
s 4
f 26/29/20 31/30/20 32/31/20 27/32/20 
s 16
f 28/33/21 27/34/22 24/35/22 22/36/21 
f 30/37/21 28/33/21 22/36/21 20/38/22 
f 32/39/21 30/37/21 20/38/22 19/40/22 
f 19/40/22 24/35/22 27/34/22 32/39/21 
f 26/41/23 25/42/23 21/43/23 23/44/23 
f 26/41/23 23/44/23 18/45/23 31/46/23 
f 31/46/23 18/45/23 17/47/23 29/48/23 
f 21/43/23 25/42/23 29/48/23 17/47/23 
# 16 polygons

#
# object Rectangle005
#

v  -250.000 2051.620 610.674
v  250.000 2051.620 610.674
v  250.000 2051.620 600.674
v  -250.000 2051.620 600.674
v  -250.000 1517.308 610.674
v  -250.000 1517.308 600.674
v  250.000 1517.308 610.674
v  250.000 1517.308 600.674
# 8 vertices

vn 0.000 1.000 0.000
vn -1.000 0.000 -0.000
vn 0.000 -1.000 -0.000
vn 1.000 0.000 -0.000
vn 0.000 0.000 -1.000
vn 0.000 -0.000 1.000
# 6 vertex normals

vt 0.084 0.500 2.657
vt 0.916 0.500 2.657
vt 0.916 0.999 2.657
vt 0.084 0.999 2.657
vt 0.500 1.444 0.084
vt 0.500 2.657 0.084
vt 0.001 2.657 0.084
vt 0.001 1.444 0.084
vt 0.084 0.500 1.444
vt 0.916 0.500 1.444
vt 0.916 0.999 1.444
vt 0.084 0.999 1.444
vt 0.500 2.657 0.916
vt 0.500 1.444 0.916
vt 0.999 1.444 0.916
vt 0.999 2.657 0.916
vt 0.916 1.444 0.999
vt 0.916 2.657 0.999
vt 0.084 2.657 0.999
vt 0.084 1.444 0.999
vt 0.916 2.657 0.500
vt 0.084 2.657 0.500
vt 0.084 1.444 0.500
vt 0.916 1.444 0.500
# 24 texture coords

g Rectangle005
usemtl 01___Default
s 1
f 33/49/24 34/50/24 35/51/24 36/52/24 
s 4
f 37/53/25 33/54/25 36/55/25 38/56/25 
s 2
f 39/57/26 37/58/26 38/59/26 40/60/26 
s 4
f 34/61/27 39/62/27 40/63/27 35/64/27 
s 16
f 38/65/28 36/66/28 35/67/28 40/68/28 
f 34/69/29 33/70/29 37/71/29 39/72/29 
# 6 polygons

#
# object Rectangle008
#

v  275.000 1.620 0.674
v  -275.000 1.620 0.674
v  -275.000 101.620 0.674
v  275.000 101.620 0.674
v  -275.000 1.620 550.674
v  -275.000 101.620 550.674
v  275.000 1.620 550.674
v  275.000 101.620 550.674
# 8 vertices

vn 0.000 0.000 -1.000
vn -1.000 0.000 -0.000
vn 0.000 0.000 1.000
vn 1.000 0.000 -0.000
vn 0.000 -1.000 -0.000
vn 0.000 1.000 -0.000
# 6 vertex normals

g Rectangle008
usemtl 012__Default
s 1
f 41//30 42//30 43//30 44//30 
s 4
f 42//31 45//31 46//31 43//31 
s 2
f 45//32 47//32 48//32 46//32 
s 4
f 47//33 41//33 44//33 48//33 
s 16
f 45//34 42//34 41//34 47//34 
f 46//35 48//35 44//35 43//35 
# 6 polygons

#
# object Rectangle001
#

v  300.000 2101.620 0.674
v  -300.000 2101.620 0.674
v  -300.000 2101.620 600.674
v  300.000 2101.620 600.674
v  -300.000 101.620 0.674
v  -300.000 101.620 600.674
v  300.000 101.620 0.674
v  300.000 101.620 600.674
v  280.000 121.620 0.674
v  -280.000 121.620 0.674
v  -280.000 121.620 600.674
v  280.000 121.620 600.674
v  -280.000 2081.620 0.674
v  -280.000 2081.620 600.674
v  280.000 2081.620 0.674
v  280.000 2081.620 600.674
v  300.000 1964.161 0.674
v  -300.000 1964.161 0.674
v  -300.000 1964.161 600.674
v  300.000 1964.161 600.674
v  -280.000 1944.161 0.674
v  280.000 1944.161 0.674
v  280.000 1944.161 600.674
v  -280.000 1944.161 600.674
v  300.000 1746.053 0.674
v  -300.000 1746.053 0.674
v  -300.000 1746.053 600.674
v  300.000 1746.053 600.674
v  -280.000 1726.053 0.674
v  280.000 1726.053 0.674
v  280.000 1726.053 600.674
v  -280.000 1726.053 600.674
v  300.000 1487.308 0.674
v  -300.000 1487.308 0.674
v  -300.000 1487.308 600.674
v  300.000 1487.308 600.674
v  -280.000 1467.309 0.674
v  280.000 1467.308 0.674
v  280.000 1467.308 600.674
v  -280.000 1467.308 600.674
v  300.000 810.657 0.674
v  -300.000 810.657 0.674
v  -300.000 810.656 600.674
v  300.000 810.656 600.674
v  -280.000 790.657 0.674
v  280.000 790.656 0.674
v  280.000 790.656 600.674
v  -280.000 790.656 600.674
v  300.000 622.942 0.674
v  -300.000 622.942 0.674
v  -300.000 622.942 600.674
v  300.000 622.942 600.674
v  -280.000 602.942 0.674
v  280.000 602.942 0.674
v  280.000 602.942 600.674
v  -280.000 602.942 600.674
v  300.000 400.708 0.674
v  -300.000 400.708 0.674
v  -300.000 400.708 600.674
v  300.000 400.708 600.674
v  -280.000 380.708 0.674
v  280.000 380.707 0.674
v  280.000 380.707 600.674
v  -280.000 380.708 600.674
# 64 vertices

vn 0.000 1.000 0.000
vn -1.000 0.000 -0.000
vn 0.000 -1.000 -0.000
vn 1.000 0.000 -0.000
vn -0.000 -1.000 -0.000
vn 0.000 0.000 -1.000
vn 0.000 -0.000 1.000
# 7 vertex normals

g Rectangle001
usemtl 012__Default
s 1
f 49//36 50//36 51//36 52//36 
s 4
f 50//37 53//37 54//37 51//37 
s 2
f 53//38 55//38 56//38 54//38 
s 4
f 55//39 49//39 52//39 56//39 
s 1
f 57//36 58//36 59//36 60//36 
s 4
f 58//39 61//39 62//39 59//39 
s 2
f 61//40 63//40 64//40 62//40 
s 4
f 63//37 57//37 60//37 64//37 
s 16
f 63//41 61//41 49//41 57//41 
f 55//41 53//41 57//41 49//41 
f 53//41 50//41 58//41 57//41 
f 50//41 49//41 61//41 58//41 
f 64//42 60//42 56//42 52//42 
f 54//42 56//42 60//42 59//42 
f 51//42 54//42 59//42 62//42 
f 52//42 51//42 62//42 64//42 
s 1
f 65//36 66//36 67//36 68//36 
s 2
f 69//40 70//40 71//40 72//40 
s 16
f 65//41 70//41 69//41 66//41 
f 68//42 67//42 72//42 71//42 
s 1
f 73//36 74//36 75//36 76//36 
s 2
f 77//40 78//40 79//40 80//40 
s 16
f 73//41 78//41 77//41 74//41 
f 76//42 75//42 80//42 79//42 
s 1
f 81//36 82//36 83//36 84//36 
s 2
f 85//40 86//40 87//40 88//40 
s 16
f 81//41 86//41 85//41 82//41 
f 84//42 83//42 88//42 87//42 
s 1
f 89//36 90//36 91//36 92//36 
s 2
f 93//40 94//40 95//40 96//40 
s 16
f 89//41 94//41 93//41 90//41 
f 92//42 91//42 96//42 95//42 
s 1
f 97//36 98//36 99//36 100//36 
s 2
f 101//40 102//40 103//40 104//40 
s 16
f 97//41 102//41 101//41 98//41 
f 100//42 99//42 104//42 103//42 
s 1
f 105//36 106//36 107//36 108//36 
s 2
f 109//40 110//40 111//40 112//40 
s 16
f 105//41 110//41 109//41 106//41 
f 108//42 107//42 112//42 111//42 
# 40 polygons

#
# object Rectangle009
#

v  -300.000 810.656 620.674
v  300.000 810.656 620.674
v  300.000 810.656 600.674
v  -300.000 810.656 600.674
v  -300.000 101.620 620.674
v  -300.000 101.620 600.674
v  300.000 101.620 620.674
v  300.000 101.620 600.674
v  -250.000 151.620 620.674
v  250.000 151.620 620.674
v  250.000 151.620 600.674
v  -250.000 151.620 600.674
v  -250.000 760.656 620.674
v  -250.000 760.656 600.674
v  250.000 760.656 620.674
v  250.000 760.656 600.674
# 16 vertices

vn 0.000 1.000 0.000
vn -1.000 0.000 -0.000
vn 0.000 -1.000 -0.000
vn 1.000 0.000 0.000
vn 1.000 0.000 -0.000
vn -1.000 -0.000 -0.000
vn -0.000 0.000 -1.000
vn 0.000 0.000 -1.000
vn 0.000 -0.000 1.000
vn -0.000 -0.000 1.000
# 10 vertex normals

vt 0.000 0.001 -0.161
vt 1.000 0.001 -0.161
vt 1.000 0.999 -0.161
vt 0.000 0.999 -0.161
vt 0.999 -1.770 0.000
vt 0.999 -0.161 0.000
vt 0.001 -0.161 0.000
vt 0.001 -1.770 0.000
vt 0.000 0.001 -1.770
vt 1.000 0.001 -1.770
vt 1.000 0.999 -1.770
vt 0.000 0.999 -1.770
vt 0.001 -0.161 1.000
vt 0.001 -1.770 1.000
vt 0.999 -1.770 1.000
vt 0.999 -0.161 1.000
vt 0.084 0.001 -1.657
vt 0.916 0.001 -1.657
vt 0.916 0.999 -1.657
vt 0.084 0.999 -1.657
vt 0.001 -0.274 0.084
vt 0.001 -1.657 0.084
vt 0.999 -1.657 0.084
vt 0.999 -0.274 0.084
vt 0.084 0.001 -0.274
vt 0.916 0.001 -0.274
vt 0.916 0.999 -0.274
vt 0.084 0.999 -0.274
vt 0.999 -1.657 0.916
vt 0.999 -0.274 0.916
vt 0.001 -0.274 0.916
vt 0.001 -1.657 0.916
vt 0.916 -1.657 0.999
vt 0.084 -1.657 0.999
vt 0.000 -1.770 0.999
vt 1.000 -1.770 0.999
vt 0.916 -0.274 0.999
vt 1.000 -0.161 0.999
vt 0.084 -0.274 0.999
vt 0.000 -0.161 0.999
vt 0.916 -1.657 0.001
vt 0.084 -1.657 0.001
vt 0.000 -1.770 0.001
vt 1.000 -1.770 0.001
vt 1.000 -0.161 0.001
vt 0.916 -0.274 0.001
vt 0.000 -0.161 0.001
vt 0.084 -0.274 0.001
# 48 texture coords

g Rectangle009
usemtl 01___Default
s 1
f 113/73/43 114/74/43 115/75/43 116/76/43 
s 4
f 117/77/44 113/78/44 116/79/44 118/80/44 
s 2
f 119/81/45 117/82/45 118/83/45 120/84/45 
s 4
f 114/85/46 119/86/46 120/87/46 115/88/46 
s 1
f 121/89/43 122/90/43 123/91/43 124/92/43 
s 4
f 125/93/47 121/94/47 124/95/47 126/96/47 
s 2
f 127/97/45 125/98/45 126/99/45 128/100/45 
s 4
f 122/101/48 127/102/48 128/103/48 123/104/48 
s 16
f 124/105/49 123/106/50 120/107/50 118/108/49 
f 126/109/49 124/105/49 118/108/49 116/110/49 
f 128/111/50 126/109/49 116/110/49 115/112/50 
f 115/112/50 120/107/50 123/106/50 128/111/50 
f 122/113/51 121/114/52 117/115/52 119/116/51 
f 122/113/51 119/116/51 114/117/52 127/118/52 
f 127/118/52 114/117/52 113/119/51 125/120/51 
f 117/115/52 121/114/52 125/120/51 113/119/51 
# 16 polygons

#
# object Rectangle010
#

v  -250.000 760.656 610.674
v  250.000 760.656 610.674
v  250.000 760.656 600.674
v  -250.000 760.656 600.674
v  -250.000 151.620 610.674
v  -250.000 151.620 600.674
v  250.000 151.620 610.674
v  250.000 151.620 600.674
# 8 vertices

vn 0.000 1.000 0.000
vn -1.000 0.000 -0.000
vn 0.000 -1.000 -0.000
vn 1.000 0.000 -0.000
vn 0.000 0.000 -1.000
vn 0.000 -0.000 1.000
# 6 vertex normals

vt 0.084 0.500 -0.274
vt 0.916 0.500 -0.274
vt 0.916 0.999 -0.274
vt 0.084 0.999 -0.274
vt 0.500 -1.657 0.084
vt 0.500 -0.274 0.084
vt 0.001 -0.274 0.084
vt 0.001 -1.657 0.084
vt 0.084 0.500 -1.657
vt 0.916 0.500 -1.657
vt 0.916 0.999 -1.657
vt 0.084 0.999 -1.657
vt 0.500 -0.274 0.916
vt 0.500 -1.657 0.916
vt 0.999 -1.657 0.916
vt 0.999 -0.274 0.916
vt 0.916 -1.657 0.999
vt 0.916 -0.274 0.999
vt 0.084 -0.274 0.999
vt 0.084 -1.657 0.999
vt 0.916 -0.274 0.500
vt 0.084 -0.274 0.500
vt 0.084 -1.657 0.500
vt 0.916 -1.657 0.500
# 24 texture coords

g Rectangle010
usemtl 01___Default
s 1
f 129/121/53 130/122/53 131/123/53 132/124/53 
s 4
f 133/125/54 129/126/54 132/127/54 134/128/54 
s 2
f 135/129/55 133/130/55 134/131/55 136/132/55 
s 4
f 130/133/56 135/134/56 136/135/56 131/136/56 
s 16
f 134/137/57 132/138/57 131/139/57 136/140/57 
f 130/141/58 129/142/58 133/143/58 135/144/58 
# 6 polygons

