# 3ds Max Wavefront OBJ Exporter v0.97b - (c)2007 guruware
# 创建的文件:13.12.2016 17:11:27

mtllib IKE150041.mtl

#
# object Box002
#

v  -333.11 659.70 -168.86
v  -333.11 729.70 -168.86
v  -293.11 729.70 -168.86
v  -293.11 659.70 -168.86
v  -330.61 659.70 -123.86
v  -330.61 729.70 -123.86
v  -333.11 729.70 -123.86
v  -333.11 659.70 -123.86
v  -293.11 659.70 -166.36
v  -330.61 659.70 -166.36
v  -333.11 659.70 -166.36
v  -293.11 729.70 -166.36
v  -333.11 729.70 -166.36
v  -330.61 729.70 -166.36
v  426.89 659.70 -168.86
v  386.89 659.70 -168.86
v  386.89 729.70 -168.86
v  426.89 729.70 -168.86
v  424.39 659.70 -123.86
v  426.89 659.70 -123.86
v  426.89 729.70 -123.86
v  424.39 729.70 -123.86
v  424.39 659.70 -166.36
v  386.89 659.70 -166.36
v  426.89 659.70 -166.36
v  386.89 729.70 -166.36
v  424.39 729.70 -166.36
v  426.89 729.70 -166.36
v  -353.11 -0.00 160.22
v  -353.11 800.00 160.22
v  -3.11 800.00 160.22
v  -3.11 -0.00 160.22
v  -353.11 -0.00 180.22
v  -5.11 -0.00 180.22
v  -5.11 800.00 180.22
v  -353.11 800.00 180.22
v  -3.11 -0.00 178.22
v  -3.11 800.00 178.22
v  446.89 800.00 160.22
v  446.89 -0.00 160.22
v  -2.11 -0.00 180.22
v  446.89 -0.00 180.22
v  446.89 800.00 180.22
v  -2.11 800.00 180.22
v  -3.11 -0.00 179.22
v  -3.11 800.00 179.22
# 46 vertices

vn 0.00 0.00 -1.00
vn 0.00 -0.00 1.00
vn 0.00 -1.00 -0.00
vn 1.00 0.00 -0.00
vn 0.00 1.00 0.00
vn -1.00 0.00 -0.00
vn -0.00 -1.00 -0.00
vn -0.00 1.00 0.00
vn 0.00 -0.00 -1.00
vn 0.00 0.00 1.00
vn 1.00 -0.00 -0.00
vn -1.00 0.00 0.00
vn 0.71 0.00 0.71
vn -0.00 -0.00 -1.00
vn -0.00 -1.00 0.00
vn -0.71 0.00 0.71
# 16 vertex normals

vt 1.00 0.00 0.00
vt 1.00 70.00 0.00
vt -39.00 70.00 0.00
vt -39.00 0.00 0.00
vt 20.00 0.00 0.00
vt 20.00 70.00 0.00
vt 0.00 70.00 0.00
vt 0.00 0.00 0.00
vt 40.00 0.00 0.00
vt 40.00 5.00 0.00
vt 20.00 5.00 0.00
vt 0.00 5.00 0.00
vt 70.00 0.00 0.00
vt 70.00 5.00 0.00
vt 40.00 70.00 0.00
vt 1.00 800.00 0.00
vt -349.00 800.00 0.00
vt -349.00 0.00 0.00
vt 348.00 0.00 0.00
vt 348.00 800.00 0.00
vt 0.00 800.00 0.00
vt 350.00 0.00 0.00
vt 350.00 18.00 0.00
vt 348.00 20.00 0.00
vt 0.00 20.00 0.00
vt 800.00 0.00 0.00
vt 800.00 18.00 0.00
vt 0.00 18.00 0.00
vt 350.00 20.00 0.00
vt 2.00 20.00 0.00
vt 800.00 20.00 0.00
vt -0.00 21.89 0.00
vt 800.00 21.89 0.00
vt -449.00 800.00 0.00
vt -449.00 0.00 0.00
vt 450.00 0.00 0.00
vt 450.00 800.00 0.00
vt 450.00 20.00 0.00
vt 0.00 19.00 0.00
vt 1.00 20.00 0.00
vt 450.00 19.00 0.00
vt 449.00 20.00 0.00
vt 800.00 19.00 0.00
vt -0.00 20.96 0.00
vt 800.00 20.96 0.00
# 45 texture coords

g Box002
usemtl 01___Default
s 2
f 1/1/1 2/2/1 3/3/1 4/4/1 
s 4
f 5/5/2 6/6/2 7/7/2 8/8/2 
s 8
f 1/8/3 4/9/3 9/10/3 10/11/3 
f 1/8/3 10/11/3 11/12/3 
s 16
f 4/8/4 3/13/4 12/14/4 9/12/4 
s 32
f 3/8/5 2/9/5 13/10/5 14/11/5 
f 3/8/5 14/11/5 12/12/5 
s 64
f 2/8/6 1/13/6 11/14/6 13/12/6 
s 4
f 9/9/2 12/15/2 14/6/2 10/5/2 
s off
f 11/12/7 10/11/7 5/5/7 8/8/7 
f 10/5/4 14/6/4 6/6/4 5/5/4 
f 14/11/5 13/10/5 7/7/5 6/6/5 
f 13/12/6 11/14/6 8/8/6 7/7/6 
s 2
f 15/1/1 16/4/1 17/3/1 18/2/1 
s 4
f 19/5/2 20/8/2 21/7/2 22/6/2 
s 8
f 15/8/3 23/11/3 24/10/3 16/9/3 
f 15/8/3 25/12/3 23/11/3 
s 16
f 16/8/6 24/12/6 26/14/6 17/13/6 
s 32
f 17/8/5 27/11/5 28/10/5 18/9/5 
f 17/8/5 26/12/5 27/11/5 
s 64
f 18/8/4 28/12/4 25/14/4 15/13/4 
s 4
f 24/9/2 23/5/2 27/6/2 26/15/2 
s off
f 25/12/3 20/8/3 19/5/3 23/11/3 
f 23/5/6 19/5/6 22/6/6 27/6/6 
f 27/11/8 22/6/8 21/7/8 28/10/8 
f 28/12/4 21/7/4 20/8/4 25/14/4 
s 2
f 29/1/9 30/16/9 31/17/9 32/18/9 
s 4
f 33/8/10 34/19/10 35/20/10 36/21/10 
s 8
f 32/22/3 37/23/3 34/24/3 29/8/3 
f 29/8/3 34/24/3 33/25/3 
s 16
f 32/8/11 31/26/11 38/27/11 37/28/11 
s 32
f 31/8/5 30/22/5 36/29/5 38/28/5 
f 36/29/5 35/30/5 38/28/5 
s 64
f 30/8/12 29/26/12 33/31/12 36/25/12 
s off
f 34/32/13 37/28/13 38/27/13 35/33/13 
s 2
f 32/1/14 31/16/14 39/34/14 40/35/14 
s 4
f 41/1/10 42/36/10 43/37/10 44/16/10 
s 8
f 32/8/7 40/36/7 42/38/7 45/39/15 
f 42/38/7 41/40/15 45/39/15 
s 16
f 40/8/11 39/26/11 43/31/11 42/25/11 
s 32
f 31/36/5 46/41/5 44/42/5 39/8/5 
f 39/8/5 44/42/5 43/25/5 
s 64
f 31/8/12 32/26/12 45/43/12 46/39/12 
s off
f 44/44/16 46/39/16 45/43/16 41/45/16 
# 36 polygons - 8 triangles

#
# object Box001
#

v  -352.11 0.00 -189.78
v  -352.11 0.00 -209.78
v  445.89 0.00 -209.78
v  445.89 0.00 -189.78
v  -352.11 800.00 -189.78
v  445.89 800.00 -189.78
v  445.89 800.00 -209.78
v  -352.11 800.00 -209.78
v  -333.11 283.33 -189.78
v  426.89 283.33 -189.78
v  426.89 516.67 -189.78
v  -333.11 516.67 -189.78
v  446.89 1.00 -189.78
v  446.89 1.00 -209.78
v  446.89 799.00 -209.78
v  446.89 20.00 -189.78
v  446.89 799.00 -189.78
v  446.89 780.00 -189.78
v  -353.11 1.00 -209.78
v  -353.11 799.00 -209.78
v  -353.11 1.00 -189.78
v  -353.11 20.00 -189.78
v  -353.11 780.00 -189.78
v  -353.11 799.00 -189.78
v  446.89 780.00 160.22
v  446.89 799.00 160.22
v  445.89 800.00 160.22
v  -353.11 799.00 160.22
v  -352.11 800.00 160.22
v  -353.11 780.00 160.22
v  -333.11 780.00 160.22
v  426.89 780.00 160.22
v  -353.11 20.00 160.22
v  -353.11 1.00 160.22
v  -352.11 0.00 160.22
v  -333.11 20.00 160.22
v  445.89 0.00 160.22
v  446.89 1.00 160.22
v  446.89 20.00 160.22
v  426.89 20.00 160.22
v  -333.11 283.33 160.22
v  -333.11 263.33 160.22
v  -333.11 516.66 160.22
v  -333.11 536.66 160.22
v  426.89 516.66 160.22
v  426.89 536.66 160.22
v  426.89 283.33 160.22
v  426.89 263.33 160.22
v  -333.11 20.00 -189.78
v  426.89 20.00 -189.78
v  426.89 263.33 -189.78
v  -333.11 263.33 -189.78
v  426.89 780.00 -189.78
v  -333.11 780.00 -189.78
v  -333.11 536.67 -189.78
v  426.89 536.67 -189.78
v  -333.11 283.33 140.22
v  -333.11 263.33 140.22
v  426.89 263.33 140.22
v  426.89 283.33 140.22
v  426.89 516.67 140.22
v  426.89 536.67 140.22
v  -333.11 536.67 140.22
v  -333.11 516.67 140.22
# 64 vertices

vn 0.00 -1.00 -0.00
vn 0.00 1.00 -0.00
vn 0.00 0.00 1.00
vn 1.00 0.00 0.00
vn 1.00 0.00 -0.00
vn 1.00 -0.00 0.00
vn 1.00 -0.00 -0.00
vn 0.00 0.00 -1.00
vn -1.00 0.00 -0.00
vn -0.98 -0.00 -0.17
vn -1.00 -0.00 -0.00
vn -0.00 -0.00 1.00
vn 0.00 -0.00 1.00
vn -0.00 0.00 1.00
vn 0.97 0.00 -0.24
vn 0.00 1.00 0.00
vn -1.00 0.00 0.00
vn -0.00 -1.00 -0.00
vn -0.00 -1.00 0.00
vn 0.00 -1.00 0.00
vn 0.71 0.71 -0.00
vn 0.71 0.71 0.00
vn 0.71 -0.71 -0.00
vn -0.71 -0.71 -0.00
vn -0.71 0.71 -0.00
vn -0.71 0.71 0.00
# 26 vertex normals

vt 0.00 0.00 0.00
vt 0.00 20.00 0.00
vt -798.00 20.00 0.00
vt -798.00 0.00 0.00
vt 1.00 0.00 0.00
vt 799.00 0.00 0.00
vt 799.00 20.00 0.00
vt 1.00 20.00 0.00
vt 266.67 359.06 0.00
vt 533.33 359.06 0.00
vt 533.33 440.94 0.00
vt 266.67 440.94 0.00
vt 0.00 13.33 0.00
vt 20.00 1.00 0.00
vt 20.00 799.00 0.00
vt 0.00 266.67 0.00
vt 0.00 786.67 0.00
vt 0.00 533.33 0.00
vt 800.00 1.00 0.00
vt 799.00 800.00 0.00
vt 800.00 799.00 0.00
vt 1.00 800.00 0.00
vt 0.00 799.00 0.00
vt 0.00 1.00 0.00
vt 20.00 13.33 0.00
vt 20.00 266.67 0.00
vt 20.00 533.33 0.00
vt 20.00 786.67 0.00
vt 800.00 533.33 0.00
vt 800.00 786.67 0.00
vt 266.67 533.33 0.00
vt 533.33 533.33 0.00
vt 266.67 266.67 0.00
vt 800.00 13.33 0.00
vt 800.00 266.67 0.00
vt 533.33 266.67 0.00
vt 266.67 352.05 0.00
vt 266.67 447.95 0.00
vt 533.33 447.95 0.00
vt 533.33 352.05 0.00
vt 0.68 799.71 0.00
vt 20.66 799.71 0.00
vt 668.54 -0.00 0.00
vt 668.54 800.00 0.00
vt 20.66 0.29 0.00
vt 0.68 0.29 0.00
vt -0.00 2.62 0.00
vt 800.00 2.62 0.00
vt 19.32 0.29 0.00
vt -0.66 0.29 0.00
vt -38.95 182.34 0.00
vt 39.95 182.34 0.00
vt -0.66 799.71 0.00
vt 19.32 799.71 0.00
vt 20.00 799.61 0.00
vt 0.00 799.61 0.00
# 56 texture coords

g Box001
usemtl 01___Default1
s 2
f 47/46/17 48/47/17 49/48/17 50/49/17 
s 4
f 51/50/18 52/51/18 53/52/18 54/53/18 
s 8
f 55/54/19 56/55/19 57/56/19 58/57/19 
s 16
f 59/58/20 60/59/21 61/60/22 62/61/20 
f 61/60/22 63/62/21 64/63/23 62/61/20 
s 32
f 49/50/24 48/51/24 65/64/24 54/65/24 
f 65/64/24 66/66/24 54/65/24 
f 54/65/24 53/67/24 61/68/24 49/50/24 
f 60/69/24 49/50/24 61/68/24 
s 64
f 67/70/25 68/71/26 69/72/27 66/68/25 
f 69/72/27 70/73/25 66/68/25 
f 65/69/25 67/70/25 66/68/25 
s 8
f 71/74/28 72/75/28 73/65/28 74/62/29 
f 73/65/28 75/67/19 74/62/29 
f 74/62/29 76/63/28 77/76/29 71/74/28 
f 71/74/28 77/76/29 78/77/30 
f 79/61/28 80/58/28 81/50/28 82/78/29 
f 81/50/28 83/51/19 84/79/29 82/78/29 
f 84/79/29 85/80/28 86/81/29 82/78/29 
f 76/63/28 79/61/28 82/78/29 87/54/19 
f 82/78/29 88/82/31 87/54/19 
f 87/54/19 89/57/21 90/83/30 76/63/28 
f 77/76/29 76/63/28 90/83/30 
f 85/80/28 71/74/28 78/77/30 91/56/30 
f 78/77/30 92/84/31 91/56/30 
f 91/56/30 93/55/21 94/85/30 85/80/28 
f 86/81/29 85/80/28 94/85/30 
f 95/78/19 96/81/19 97/85/19 98/82/19 
f 99/77/19 100/76/19 101/83/19 102/84/19 
f 103/54/19 104/82/19 105/85/19 106/55/19 
f 107/56/19 108/84/19 109/83/19 110/57/19 
s off
f 47/46/17 50/49/17 83/51/17 81/50/17 
f 59/58/20 62/61/20 85/80/20 84/79/20 
f 62/61/23 64/63/23 71/74/23 85/80/23 
f 64/63/21 63/62/21 72/75/21 71/74/21 
f 52/51/32 51/50/32 75/67/32 73/65/32 
f 70/73/25 69/72/25 76/63/25 74/62/25 
f 69/72/33 68/71/33 79/61/33 76/63/33 
f 68/71/27 67/70/27 80/58/27 79/61/27 
f 100/76/34 99/77/34 78/77/34 77/76/34 
f 99/77/27 102/84/27 92/84/27 78/77/27 
f 102/84/25 57/56/25 91/56/25 92/84/25 
f 57/56/25 56/55/25 93/55/25 91/56/25 
f 56/55/25 97/85/25 94/85/25 93/55/25 
f 97/85/27 96/81/27 86/81/27 94/85/27 
f 96/81/32 95/78/32 82/78/32 86/81/32 
f 95/78/20 98/82/20 88/82/20 82/78/20 
f 98/82/21 55/54/21 87/54/21 88/82/21 
f 55/54/21 58/57/21 89/57/21 87/54/21 
f 58/57/21 101/83/21 90/83/21 89/57/21 
f 101/83/20 100/76/20 77/76/20 90/83/20 
f 56/55/18 55/54/18 103/54/18 106/55/18 
f 55/54/25 98/82/25 104/82/25 103/54/25 
f 98/82/35 97/85/35 105/85/35 104/82/35 
f 97/85/21 56/55/21 106/55/21 105/85/21 
f 58/57/36 57/56/36 107/56/36 110/57/36 
f 57/56/21 102/84/21 108/84/21 107/56/21 
f 102/84/18 101/83/18 109/83/18 108/84/18 
f 101/83/25 58/57/25 110/57/25 109/83/25 
f 52/86/37 63/62/37 61/60/37 53/87/37 
f 63/88/38 52/51/38 73/65/38 72/89/38 
f 49/90/39 60/59/39 59/58/39 50/91/39 
f 50/92/39 59/58/39 84/79/39 83/93/39 
f 47/94/40 67/70/40 65/69/40 48/95/40 
f 67/96/40 47/46/40 81/50/40 80/97/40 
f 54/98/41 66/68/41 70/73/41 51/99/41 
f 51/100/42 70/73/42 74/62/42 75/101/42 
# 57 polygons - 10 triangles

