# 3ds Max Wavefront OBJ Exporter v0.97b - (c)2007 guruware
# 创建的文件:10.08.2017 13:57:55

mtllib IKE160275.mtl

#
# object Revit_008539_01
#

v  360.0000 790.0000 500.0000
v  320.0000 0.0000 500.0000
v  320.0000 790.0000 500.0000
v  360.0000 0.0000 500.0000
v  360.0000 790.0000 530.0000
v  360.0000 0.0000 530.0000
v  320.0000 790.0000 530.0000
v  320.0000 0.0000 530.0000
v  -320.0000 790.0000 530.0000
v  -320.0000 0.0000 500.0000
v  -320.0000 790.0000 500.0000
v  -320.0000 0.0000 530.0000
v  -360.0000 790.0000 530.0000
v  -360.0000 0.0000 530.0000
v  -360.0000 790.0000 500.0000
v  -360.0000 0.0000 500.0000
v  360.0000 790.0000 -0.0000
v  320.0000 0.0000 -0.0000
v  320.0000 790.0000 -0.0000
v  360.0000 0.0000 -0.0000
v  360.0000 790.0000 30.0000
v  360.0000 0.0000 30.0000
v  320.0000 790.0000 30.0000
v  320.0000 0.0000 30.0000
v  -320.0000 790.0000 30.0000
v  -320.0000 0.0000 -0.0000
v  -320.0000 790.0000 -0.0000
v  -320.0000 0.0000 30.0000
v  -360.0000 790.0000 30.0000
v  -360.0000 0.0000 30.0000
v  -360.0000 790.0000 -0.0000
v  -360.0000 0.0000 -0.0000
v  360.0000 870.0000 515.0000
v  320.0000 790.0000 515.0000
v  320.0000 870.0000 515.0000
v  360.0000 790.0000 515.0000
v  360.0000 870.0000 530.0000
v  320.0000 870.0000 530.0000
v  -320.0000 870.0000 530.0000
v  -320.0000 790.0000 515.0000
v  -320.0000 870.0000 515.0000
v  -360.0000 870.0000 530.0000
v  -360.0000 870.0000 515.0000
v  -360.0000 790.0000 515.0000
v  360.0000 870.0000 -0.0000
v  320.0000 870.0000 -0.0000
v  360.0000 870.0000 15.0000
v  360.0000 790.0000 15.0000
v  320.0000 870.0000 15.0000
v  320.0000 790.0000 15.0000
v  -320.0000 870.0000 15.0000
v  -320.0000 870.0000 -0.0000
v  -320.0000 790.0000 15.0000
v  -360.0000 870.0000 15.0000
v  -360.0000 790.0000 15.0000
v  -360.0000 870.0000 -0.0000
v  340.0000 790.0000 15.0000
v  340.0000 870.0000 15.0000
v  340.0000 870.0000 515.0000
v  340.0000 790.0000 515.0000
v  -340.0000 870.0000 515.0000
v  -340.0000 790.0000 15.0000
v  -340.0000 870.0000 15.0000
v  -340.0000 790.0000 515.0000
v  -340.0000 870.0000 500.0000
v  -340.0000 790.0000 500.0000
v  340.0000 870.0000 500.0000
v  340.0000 790.0000 500.0000
v  340.0000 870.0000 30.0000
v  340.0000 790.0000 30.0000
v  -340.0000 870.0000 30.0000
v  -340.0000 790.0000 30.0000
v  360.0000 350.0000 30.0000
v  340.0000 270.0000 30.0000
v  340.0000 350.0000 30.0000
v  360.0000 270.0000 30.0000
v  360.0000 350.0000 500.0000
v  360.0000 270.0000 500.0000
v  340.0000 350.0000 500.0000
v  340.0000 270.0000 500.0000
v  -340.0000 350.0000 500.0000
v  -340.0000 270.0000 30.0000
v  -340.0000 350.0000 30.0000
v  -340.0000 270.0000 500.0000
v  -360.0000 350.0000 500.0000
v  -360.0000 270.0000 500.0000
v  -360.0000 350.0000 30.0000
v  -360.0000 270.0000 30.0000
v  -340.0000 350.0000 485.0000
v  -340.0000 270.0000 485.0000
v  340.0000 270.0000 485.0000
v  340.0000 350.0000 485.0000
v  340.0000 350.0000 45.0000
v  340.0000 270.0000 45.0000
v  -340.0000 350.0000 45.0000
v  -340.0000 270.0000 45.0000
# 96 vertices

vn 0.0000 0.0000 -1.0000
vn 1.0000 0.0000 -0.0000
vn 0.0000 0.0000 1.0000
vn -1.0000 0.0000 -0.0000
vn 0.0000 -1.0000 -0.0000
vn 0.0000 1.0000 -0.0000
vn -0.0000 0.0000 1.0000
vn -1.0000 0.0000 0.0000
vn 1.0000 0.0000 0.0000
# 9 vertex normals

vt 0.9995 0.0570 0.9076
vt 0.9440 0.0570 0.0005
vt 0.9440 0.0570 0.9076
vt 0.9995 0.0570 0.0005
vt 0.9995 0.0005 0.9076
vt 0.9995 0.0005 0.0005
vt 0.9440 0.0005 0.9076
vt 0.9440 0.0005 0.0005
vt 0.0560 0.0005 0.9076
vt 0.0560 0.0570 0.0005
vt 0.0560 0.0570 0.9076
vt 0.0560 0.0005 0.0005
vt 0.0005 0.0005 0.9076
vt 0.0005 0.0005 0.0005
vt 0.0005 0.0570 0.9076
vt 0.0005 0.0570 0.0005
vt 0.9995 0.9995 0.9076
vt 0.9440 0.9995 0.0005
vt 0.9440 0.9995 0.9076
vt 0.9995 0.9995 0.0005
vt 0.9995 0.9430 0.9076
vt 0.9995 0.9430 0.0005
vt 0.9440 0.9430 0.9076
vt 0.9440 0.9430 0.0005
vt 0.0560 0.9430 0.9076
vt 0.0560 0.9995 0.0005
vt 0.0560 0.9995 0.9076
vt 0.0560 0.9430 0.0005
vt 0.0005 0.9430 0.9076
vt 0.0005 0.9430 0.0005
vt 0.0005 0.9995 0.9076
vt 0.0005 0.9995 0.0005
vt 0.9995 0.0288 0.9995
vt 0.9440 0.0288 0.9076
vt 0.9440 0.0288 0.9995
vt 0.9995 0.0288 0.9076
vt 0.9995 0.0005 0.9995
vt 0.9440 0.0005 0.9995
vt 0.0560 0.0005 0.9995
vt 0.0560 0.0288 0.9076
vt 0.0560 0.0288 0.9995
vt 0.0005 0.0005 0.9995
vt 0.0005 0.0288 0.9995
vt 0.0005 0.0288 0.9076
vt 0.9995 0.9995 0.9995
vt 0.9440 0.9995 0.9995
vt 0.9995 0.9712 0.9995
vt 0.9995 0.9712 0.9076
vt 0.9440 0.9712 0.9995
vt 0.9440 0.9712 0.9076
vt 0.0560 0.9712 0.9995
vt 0.0560 0.9995 0.9995
vt 0.0560 0.9712 0.9076
vt 0.0005 0.9712 0.9995
vt 0.0005 0.9712 0.9076
vt 0.0005 0.9995 0.9995
vt 0.9718 0.9712 0.9076
vt 0.9718 0.9712 0.9995
vt 0.9718 0.0288 0.9995
vt 0.9718 0.0288 0.9076
vt 0.0282 0.0288 0.9995
vt 0.0282 0.9712 0.9076
vt 0.0282 0.9712 0.9995
vt 0.0282 0.0288 0.9076
vt 0.0282 0.0570 0.9995
vt 0.0282 0.0570 0.9076
vt 0.9718 0.0570 0.9995
vt 0.9718 0.0570 0.9076
vt 0.9718 0.9430 0.9995
vt 0.9718 0.9430 0.9076
vt 0.0282 0.9430 0.9995
vt 0.0282 0.9430 0.9076
vt 0.9995 0.9430 0.4024
vt 0.9718 0.9430 0.3105
vt 0.9718 0.9430 0.4024
vt 0.9995 0.9430 0.3105
vt 0.9995 0.0570 0.4024
vt 0.9995 0.0570 0.3105
vt 0.9718 0.0570 0.4024
vt 0.9718 0.0570 0.3105
vt 0.0282 0.0570 0.4024
vt 0.0282 0.9430 0.3105
vt 0.0282 0.9430 0.4024
vt 0.0282 0.0570 0.3105
vt 0.0005 0.0570 0.4024
vt 0.0005 0.0570 0.3105
vt 0.0005 0.9430 0.4024
vt 0.0005 0.9430 0.3105
vt 0.0282 0.0853 0.4024
vt 0.0282 0.0853 0.3105
vt 0.9718 0.0853 0.3105
vt 0.9718 0.0853 0.4024
vt 0.9718 0.9147 0.4024
vt 0.9718 0.9147 0.3105
vt 0.0282 0.9147 0.4024
vt 0.0282 0.9147 0.3105
# 96 texture coords

g Revit_008539_01
usemtl 01___Default
s 1
f 1/1/1 2/2/1 3/3/1 
f 2/2/1 1/1/1 4/4/1 
s 2
f 5/5/2 4/4/2 1/1/2 
f 4/4/2 5/5/2 6/6/2 
s 1
f 7/7/3 6/6/3 5/5/3 
f 6/6/3 7/7/3 8/8/3 
s 2
f 3/3/4 8/8/4 7/7/4 
f 8/8/4 3/3/4 2/2/4 
s 4
f 4/4/5 8/8/5 2/2/5 
f 8/8/5 4/4/5 6/6/5 
f 7/7/6 1/1/6 3/3/6 
f 1/1/6 7/7/6 5/5/6 
s 1
f 9/9/2 10/10/2 11/11/2 
f 10/10/2 9/9/2 12/12/2 
s 2
f 13/13/3 12/12/3 9/9/3 
f 12/12/3 13/13/3 14/14/3 
s 1
f 15/15/4 14/14/4 13/13/4 
f 14/14/4 15/15/4 16/16/4 
s 2
f 11/11/1 16/16/1 15/15/1 
f 16/16/1 11/11/1 10/10/1 
s 4
f 12/12/5 16/16/5 10/10/5 
f 16/16/5 12/12/5 14/14/5 
f 15/15/6 9/9/6 11/11/6 
f 9/9/6 15/15/6 13/13/6 
s 1
f 17/17/1 18/18/1 19/19/1 
f 18/18/1 17/17/1 20/20/1 
s 2
f 21/21/2 20/20/2 17/17/2 
f 20/20/2 21/21/2 22/22/2 
s 1
f 23/23/3 22/22/3 21/21/3 
f 22/22/3 23/23/3 24/24/3 
s 2
f 19/19/4 24/24/4 23/23/4 
f 24/24/4 19/19/4 18/18/4 
s 4
f 20/20/5 24/24/5 18/18/5 
f 24/24/5 20/20/5 22/22/5 
f 23/23/6 17/17/6 19/19/6 
f 17/17/6 23/23/6 21/21/6 
s 1
f 25/25/2 26/26/2 27/27/2 
f 26/26/2 25/25/2 28/28/2 
s 2
f 29/29/3 28/28/3 25/25/3 
f 28/28/3 29/29/3 30/30/3 
s 1
f 31/31/4 30/30/4 29/29/4 
f 30/30/4 31/31/4 32/32/4 
s 2
f 27/27/1 32/32/1 31/31/1 
f 32/32/1 27/27/1 26/26/1 
s 4
f 28/28/5 32/32/5 26/26/5 
f 32/32/5 28/28/5 30/30/5 
f 31/31/6 25/25/6 27/27/6 
f 25/25/6 31/31/6 29/29/6 
s 1
f 33/33/1 34/34/1 35/35/1 
f 34/34/1 33/33/1 36/36/1 
s 2
f 37/37/2 36/36/2 33/33/2 
f 36/36/2 37/37/2 5/5/2 
s 1
f 38/38/3 5/5/3 37/37/3 
f 5/5/3 38/38/3 7/7/3 
s 2
f 35/35/4 7/7/4 38/38/4 
f 7/7/4 35/35/4 34/34/4 
s 4
f 34/34/5 5/5/5 7/7/5 
f 5/5/5 34/34/5 36/36/5 
f 35/35/6 37/37/6 33/33/6 
f 37/37/6 35/35/6 38/38/6 
s 1
f 39/39/2 40/40/2 41/41/2 
f 40/40/2 39/39/2 9/9/2 
s 2
f 42/42/7 9/9/7 39/39/7 
f 9/9/7 42/42/7 13/13/7 
s 1
f 43/43/4 13/13/4 42/42/4 
f 13/13/4 43/43/4 44/44/4 
s 2
f 41/41/1 44/44/1 43/43/1 
f 44/44/1 41/41/1 40/40/1 
s 4
f 40/40/5 13/13/5 44/44/5 
f 13/13/5 40/40/5 9/9/5 
f 41/41/6 42/42/6 39/39/6 
f 42/42/6 41/41/6 43/43/6 
s 1
f 45/45/1 19/19/1 46/46/1 
f 19/19/1 45/45/1 17/17/1 
s 2
f 47/47/2 17/17/2 45/45/2 
f 17/17/2 47/47/2 48/48/2 
s 1
f 49/49/3 48/48/3 47/47/3 
f 48/48/3 49/49/3 50/50/3 
s 2
f 46/46/4 50/50/4 49/49/4 
f 50/50/4 46/46/4 19/19/4 
s 4
f 19/19/5 48/48/5 50/50/5 
f 48/48/5 19/19/5 17/17/5 
f 46/46/6 47/47/6 45/45/6 
f 47/47/6 46/46/6 49/49/6 
s 1
f 51/51/2 27/27/2 52/52/2 
f 27/27/2 51/51/2 53/53/2 
s 2
f 54/54/7 53/53/7 51/51/7 
f 53/53/7 54/54/7 55/55/7 
s 1
f 56/56/4 55/55/4 54/54/4 
f 55/55/4 56/56/4 31/31/4 
s 2
f 52/52/1 31/31/1 56/56/1 
f 31/31/1 52/52/1 27/27/1 
s 4
f 27/27/5 55/55/5 31/31/5 
f 55/55/5 27/27/5 53/53/5 
f 52/52/6 54/54/6 51/51/6 
f 54/54/6 52/52/6 56/56/6 
s 1
f 47/47/1 57/57/1 58/58/1 
f 57/57/1 47/47/1 48/48/1 
s 2
f 47/47/2 36/36/2 48/48/2 
f 36/36/2 47/47/2 33/33/2 
s 1
f 59/59/3 36/36/3 33/33/3 
f 36/36/3 59/59/3 60/60/3 
s 2
f 58/58/4 60/60/4 59/59/4 
f 60/60/4 58/58/4 57/57/4 
s 4
f 48/48/5 60/60/5 57/57/5 
f 60/60/5 48/48/5 36/36/5 
f 59/59/6 47/47/6 58/58/6 
f 47/47/6 59/59/6 33/33/6 
s 1
f 61/61/2 62/62/2 63/63/2 
f 62/62/2 61/61/2 64/64/2 
s 2
f 43/43/3 64/64/3 61/61/3 
f 64/64/3 43/43/3 44/44/3 
s 1
f 54/54/4 44/44/4 43/43/4 
f 44/44/4 54/54/4 55/55/4 
s 2
f 63/63/1 55/55/1 54/54/1 
f 55/55/1 63/63/1 62/62/1 
s 4
f 64/64/5 55/55/5 62/62/5 
f 55/55/5 64/64/5 44/44/5 
f 54/54/6 61/61/6 63/63/6 
f 61/61/6 54/54/6 43/43/6 
s 1
f 65/65/8 64/64/8 61/61/8 
f 64/64/8 65/65/8 66/66/8 
s 2
f 67/67/1 66/66/1 65/65/1 
f 66/66/1 67/67/1 68/68/1 
s 1
f 59/59/9 68/68/9 67/67/9 
f 68/68/9 59/59/9 60/60/9 
s 2
f 61/61/3 60/60/3 59/59/3 
f 60/60/3 61/61/3 64/64/3 
s 4
f 66/66/5 60/60/5 64/64/5 
f 60/60/5 66/66/5 68/68/5 
f 59/59/6 65/65/6 61/61/6 
f 65/65/6 59/59/6 67/67/6 
s 1
f 69/69/2 57/57/2 58/58/2 
f 57/57/2 69/69/2 70/70/2 
s 2
f 71/71/3 70/70/3 69/69/3 
f 70/70/3 71/71/3 72/72/3 
s 1
f 63/63/4 72/72/4 71/71/4 
f 72/72/4 63/63/4 62/62/4 
s 2
f 58/58/1 62/62/1 63/63/1 
f 62/62/1 58/58/1 57/57/1 
s 4
f 70/70/5 62/62/5 57/57/5 
f 62/62/5 70/70/5 72/72/5 
f 63/63/6 69/69/6 58/58/6 
f 69/69/6 63/63/6 71/71/6 
s 1
f 73/73/1 74/74/1 75/75/1 
f 74/74/1 73/73/1 76/76/1 
s 2
f 77/77/2 76/76/2 73/73/2 
f 76/76/2 77/77/2 78/78/2 
s 1
f 79/79/3 78/78/3 77/77/3 
f 78/78/3 79/79/3 80/80/3 
s 2
f 75/75/4 80/80/4 79/79/4 
f 80/80/4 75/75/4 74/74/4 
s 4
f 76/76/5 80/80/5 74/74/5 
f 80/80/5 76/76/5 78/78/5 
f 79/79/6 73/73/6 75/75/6 
f 73/73/6 79/79/6 77/77/6 
s 1
f 81/81/2 82/82/2 83/83/2 
f 82/82/2 81/81/2 84/84/2 
s 2
f 85/85/3 84/84/3 81/81/3 
f 84/84/3 85/85/3 86/86/3 
s 1
f 87/87/4 86/86/4 85/85/4 
f 86/86/4 87/87/4 88/88/4 
s 2
f 83/83/1 88/88/1 87/87/1 
f 88/88/1 83/83/1 82/82/1 
s 4
f 84/84/5 88/88/5 82/82/5 
f 88/88/5 84/84/5 86/86/5 
f 87/87/6 81/81/6 83/83/6 
f 81/81/6 87/87/6 85/85/6 
s 1
f 89/89/8 84/84/8 81/81/8 
f 84/84/8 89/89/8 90/90/8 
s 2
f 89/89/1 91/91/1 90/90/1 
f 91/91/1 89/89/1 92/92/1 
s 1
f 79/79/2 91/91/2 92/92/2 
f 91/91/2 79/79/2 80/80/2 
s 2
f 81/81/3 80/80/3 79/79/3 
f 80/80/3 81/81/3 84/84/3 
s 4
f 90/90/5 80/80/5 84/84/5 
f 80/80/5 90/90/5 91/91/5 
f 79/79/6 89/89/6 81/81/6 
f 89/89/6 79/79/6 92/92/6 
s 1
f 93/93/2 74/74/2 75/75/2 
f 74/74/2 93/93/2 94/94/2 
s 2
f 95/95/3 94/94/3 93/93/3 
f 94/94/3 95/95/3 96/96/3 
s 1
f 83/83/4 96/96/4 95/95/4 
f 96/96/4 83/83/4 82/82/4 
s 2
f 75/75/1 82/82/1 83/83/1 
f 82/82/1 75/75/1 74/74/1 
s 4
f 94/94/5 82/82/5 74/74/5 
f 82/82/5 94/94/5 96/96/5 
f 83/83/6 93/93/6 75/75/6 
f 93/93/6 83/83/6 95/95/6 
# 0 polygons - 192 triangles

#
# object Revit_038838_17
#

v  340.0000 820.0000 500.0000
v  340.0000 790.0000 30.0000
v  340.0000 820.0000 30.0000
v  340.0000 790.0000 500.0000
v  -340.0000 820.0000 500.0000
v  -340.0000 790.0000 500.0000
v  -340.0000 820.0000 30.0000
v  -340.0000 790.0000 30.0000
# 8 vertices

vn 1.0000 0.0000 -0.0000
vn 0.0000 0.0000 1.0000
vn -1.0000 0.0000 -0.0000
vn 0.0000 0.0000 -1.0000
vn 0.0000 -1.0000 -0.0000
vn 0.0000 1.0000 -0.0000
# 6 vertex normals

vt 0.0000 0.0000 0.0000
vt 0.2176 3.4092 0.0000
vt 0.0000 3.4092 0.0000
vt 0.2176 0.0000 0.0000
vt 0.2176 4.9325 0.0000
vt 0.0000 4.9325 0.0000
vt 4.9325 3.4092 0.0000
vt 4.9325 0.0000 0.0000
vt -0.0000 0.0000 0.0000
vt -4.9325 3.4092 0.0000
vt -4.9325 0.0000 0.0000
vt -0.0000 3.4092 0.0000
# 12 texture coords

g Revit_038838_17
usemtl 02___Default
s 1
f 97/97/10 98/98/10 99/99/10 
f 98/98/10 97/97/10 100/100/10 
s 2
f 101/97/11 100/101/11 97/102/11 
f 100/101/11 101/97/11 102/100/11 
s 1
f 103/97/12 102/98/12 101/99/12 
f 102/98/12 103/97/12 104/100/12 
s 2
f 99/97/13 104/101/13 103/102/13 
f 104/101/13 99/97/13 98/100/13 
s 4
f 100/103/14 104/97/14 98/104/14 
f 104/97/14 100/103/14 102/99/14 
f 103/105/15 97/106/15 99/107/15 
f 97/106/15 103/105/15 101/108/15 
# 0 polygons - 12 triangles

#
# object Revit_038838_18
#

v  340.0000 300.0000 485.0000
v  340.0000 270.0000 45.0000
v  340.0000 300.0000 45.0000
v  340.0000 270.0000 485.0000
v  -340.0000 300.0000 485.0000
v  -340.0000 270.0000 485.0000
v  -340.0000 300.0000 45.0000
v  -340.0000 270.0000 45.0000
# 8 vertices

vn 1.0000 0.0000 -0.0000
vn 0.0000 0.0000 1.0000
vn -1.0000 0.0000 -0.0000
vn 0.0000 0.0000 -1.0000
vn 0.0000 -1.0000 -0.0000
vn 0.0000 1.0000 -0.0000
# 6 vertex normals

vt 0.0000 0.0000 0.0000
vt 0.2221 3.2573 0.0000
vt 0.0000 3.2573 0.0000
vt 0.2221 0.0000 0.0000
vt 0.2221 5.0340 0.0000
vt 0.0000 5.0340 0.0000
vt 5.0340 3.2573 0.0000
vt 5.0340 0.0000 0.0000
vt -5.0340 3.2573 0.0000
vt -5.0340 0.0000 0.0000
# 10 texture coords

g Revit_038838_18
usemtl 02___Default
s 1
f 105/109/16 106/110/16 107/111/16 
f 106/110/16 105/109/16 108/112/16 
s 2
f 109/109/17 108/113/17 105/114/17 
f 108/113/17 109/109/17 110/112/17 
s 1
f 111/109/18 110/110/18 109/111/18 
f 110/110/18 111/109/18 112/112/18 
s 2
f 107/109/19 112/113/19 111/114/19 
f 112/113/19 107/109/19 106/112/19 
s 4
f 108/115/20 112/109/20 106/116/20 
f 112/109/20 108/115/20 110/111/20 
f 111/109/21 105/117/21 107/118/21 
f 105/117/21 111/109/21 109/111/21 
# 0 polygons - 12 triangles

